<?xml version="1.0" encoding="UTF-8" standalone="no"?>
<!DOCTYPE svg PUBLIC "-//W3C//DTD SVG 1.1//EN"
 "http://www.w3.org/Graphics/SVG/1.1/DTD/svg11.dtd">
<!-- Generated by graphviz version 2.40.1 (20161225.0304)
 -->
<!-- Title: dependencies Pages: 1 -->
<svg width="1509pt" height="284pt"
 viewBox="0.00 0.00 1509.00 284.00" xmlns="http://www.w3.org/2000/svg" xmlns:xlink="http://www.w3.org/1999/xlink">
<g id="graph0" class="graph" transform="scale(1 1) rotate(0) translate(4 280)">
<title>dependencies</title>
<polygon fill="#ffffff" stroke="transparent" points="-4,4 -4,-280 1505,-280 1505,4 -4,4"/>
<text text-anchor="start" x="729.5091" y="-42.4" font-family="sans-serif" font-weight="bold" font-size="14.00" fill="#000000">Legend</text>
<polygon fill="#ffffb3" stroke="transparent" points="516.5,-10 516.5,-30 536.5,-30 536.5,-10 516.5,-10"/>
<text text-anchor="start" x="540.129" y="-15.4" font-family="sans-serif" font-size="14.00" fill="#000000"> &#160;Declarations</text>
<polygon fill="#8dd3c7" stroke="transparent" points="629.5,-10 629.5,-30 649.5,-30 649.5,-10 629.5,-10"/>
<text text-anchor="start" x="653.2251" y="-15.4" font-family="sans-serif" font-size="14.00" fill="#000000"> &#160;Module</text>
<polygon fill="#80b1d3" stroke="transparent" points="715.5,-10 715.5,-30 735.5,-30 735.5,-10 715.5,-10"/>
<text text-anchor="start" x="739.2812" y="-15.4" font-family="sans-serif" font-size="14.00" fill="#000000"> &#160;Bootstrap</text>
<polygon fill="#fdb462" stroke="transparent" points="812.5,-10 812.5,-30 832.5,-30 832.5,-10 812.5,-10"/>
<text text-anchor="start" x="836.1732" y="-15.4" font-family="sans-serif" font-size="14.00" fill="#000000"> &#160;Providers</text>
<polygon fill="#fb8072" stroke="transparent" points="908.5,-10 908.5,-30 928.5,-30 928.5,-10 908.5,-10"/>
<text text-anchor="start" x="932.2258" y="-15.4" font-family="sans-serif" font-size="14.00" fill="#000000"> &#160;Exports</text>
<g id="clust1" class="cluster">
<title>cluster_CoreModule</title>
<polygon fill="none" stroke="#000000" stroke-dasharray="1,5" points="8,-70 8,-268 1493,-268 1493,-70 8,-70"/>
</g>
<g id="clust3" class="cluster">
<title>cluster_CoreModule_imports</title>
<polygon fill="none" stroke="#000000" points="1313,-78 1313,-130 1485,-130 1485,-78 1313,-78"/>
</g>
<g id="clust4" class="cluster">
<title>cluster_CoreModule_exports</title>
<polygon fill="none" stroke="#000000" points="645,-208 645,-260 819,-260 819,-208 645,-208"/>
</g>
<g id="clust6" class="cluster">
<title>cluster_CoreModule_providers</title>
<polygon fill="none" stroke="#000000" points="16,-78 16,-130 1305,-130 1305,-78 16,-78"/>
</g>
<!-- NgxSchemaPageModule -->
<g id="node1" class="node">
<title>NgxSchemaPageModule</title>
<polygon fill="#8dd3c7" stroke="#000000" points="1476.6853,-122 1473.6853,-126 1452.6853,-126 1449.6853,-122 1321.3147,-122 1321.3147,-86 1476.6853,-86 1476.6853,-122"/>
<text text-anchor="middle" x="1399" y="-99.8" font-family="Times,serif" font-size="14.00" fill="#000000">NgxSchemaPageModule</text>
</g>
<!-- CoreModule -->
<g id="node2" class="node">
<title>CoreModule</title>
<polygon fill="#8dd3c7" stroke="#000000" points="775.2619,-187 772.2619,-191 751.2619,-191 748.2619,-187 688.7381,-187 688.7381,-151 775.2619,-151 775.2619,-187"/>
<text text-anchor="middle" x="732" y="-164.8" font-family="Times,serif" font-size="14.00" fill="#000000">CoreModule</text>
</g>
<!-- NgxSchemaPageModule&#45;&gt;CoreModule -->
<g id="edge1" class="edge">
<title>NgxSchemaPageModule&#45;&gt;CoreModule</title>
<path fill="none" stroke="#000000" d="M1399,-122.2921C1399,-144.2057 1399,-178 1399,-178 1399,-178 785.5064,-178 785.5064,-178"/>
<polygon fill="#000000" stroke="#000000" points="785.5065,-174.5001 775.5064,-178 785.5064,-181.5001 785.5065,-174.5001"/>
</g>
<!-- NgxSchemaPageModule  -->
<g id="node3" class="node">
<title>NgxSchemaPageModule </title>
<polygon fill="#fb8072" stroke="#000000" points="811.1855,-252 652.8145,-252 652.8145,-216 811.1855,-216 811.1855,-252"/>
<text text-anchor="middle" x="732" y="-229.8" font-family="Times,serif" font-size="14.00" fill="#000000">NgxSchemaPageModule </text>
</g>
<!-- CoreModule&#45;&gt;NgxSchemaPageModule  -->
<g id="edge2" class="edge">
<title>CoreModule&#45;&gt;NgxSchemaPageModule </title>
<path fill="none" stroke="#000000" stroke-dasharray="5,2" d="M732,-187.1061C732,-187.1061 732,-205.991 732,-205.991"/>
<polygon fill="#000000" stroke="#000000" points="728.5001,-205.9909 732,-215.991 735.5001,-205.991 728.5001,-205.9909"/>
</g>
<!-- ApiConfigReaderService -->
<g id="node4" class="node">
<title>ApiConfigReaderService</title>
<ellipse fill="#fdb462" stroke="#000000" cx="1188" cy="-104" rx="108.7864" ry="18"/>
<text text-anchor="middle" x="1188" y="-99.8" font-family="Times,serif" font-size="14.00" fill="#000000">ApiConfigReaderService</text>
</g>
<!-- ApiConfigReaderService&#45;&gt;CoreModule -->
<g id="edge3" class="edge">
<title>ApiConfigReaderService&#45;&gt;CoreModule</title>
<path fill="none" stroke="#000000" d="M1188,-122.1061C1188,-141.3391 1188,-169 1188,-169 1188,-169 785.3105,-169 785.3105,-169"/>
<polygon fill="#000000" stroke="#000000" points="785.3105,-165.5001 775.3105,-169 785.3104,-172.5001 785.3105,-165.5001"/>
</g>
<!-- ApiDataCleanerService -->
<g id="node5" class="node">
<title>ApiDataCleanerService</title>
<ellipse fill="#fdb462" stroke="#000000" cx="959" cy="-104" rx="102.9628" ry="18"/>
<text text-anchor="middle" x="959" y="-99.8" font-family="Times,serif" font-size="14.00" fill="#000000">ApiDataCleanerService</text>
</g>
<!-- ApiDataCleanerService&#45;&gt;CoreModule -->
<g id="edge4" class="edge">
<title>ApiDataCleanerService&#45;&gt;CoreModule</title>
<path fill="none" stroke="#000000" d="M959,-122.027C959,-138.3976 959,-160 959,-160 959,-160 785.4993,-160 785.4993,-160"/>
<polygon fill="#000000" stroke="#000000" points="785.4993,-156.5001 775.4993,-160 785.4993,-163.5001 785.4993,-156.5001"/>
</g>
<!-- ApiDataProviderService -->
<g id="node6" class="node">
<title>ApiDataProviderService</title>
<ellipse fill="#fdb462" stroke="#000000" cx="732" cy="-104" rx="105.915" ry="18"/>
<text text-anchor="middle" x="732" y="-99.8" font-family="Times,serif" font-size="14.00" fill="#000000">ApiDataProviderService</text>
</g>
<!-- ApiDataProviderService&#45;&gt;CoreModule -->
<g id="edge5" class="edge">
<title>ApiDataProviderService&#45;&gt;CoreModule</title>
<path fill="none" stroke="#000000" d="M732,-122.1061C732,-122.1061 732,-140.991 732,-140.991"/>
<polygon fill="#000000" stroke="#000000" points="728.5001,-140.9909 732,-150.991 735.5001,-140.991 728.5001,-140.9909"/>
</g>
<!-- FormLoaderService -->
<g id="node7" class="node">
<title>FormLoaderService</title>
<ellipse fill="#fdb462" stroke="#000000" cx="520" cy="-104" rx="88.021" ry="18"/>
<text text-anchor="middle" x="520" y="-99.8" font-family="Times,serif" font-size="14.00" fill="#000000">FormLoaderService</text>
</g>
<!-- FormLoaderService&#45;&gt;CoreModule -->
<g id="edge6" class="edge">
<title>FormLoaderService&#45;&gt;CoreModule</title>
<path fill="none" stroke="#000000" d="M520,-122.027C520,-138.3976 520,-160 520,-160 520,-160 678.5871,-160 678.5871,-160"/>
<polygon fill="#000000" stroke="#000000" points="678.5871,-163.5001 688.5871,-160 678.587,-156.5001 678.5871,-163.5001"/>
</g>
<!-- MenuLoaderService -->
<g id="node8" class="node">
<title>MenuLoaderService</title>
<ellipse fill="#fdb462" stroke="#000000" cx="324" cy="-104" rx="89.7286" ry="18"/>
<text text-anchor="middle" x="324" y="-99.8" font-family="Times,serif" font-size="14.00" fill="#000000">MenuLoaderService</text>
</g>
<!-- MenuLoaderService&#45;&gt;CoreModule -->
<g id="edge7" class="edge">
<title>MenuLoaderService&#45;&gt;CoreModule</title>
<path fill="none" stroke="#000000" d="M324,-122.1061C324,-141.3391 324,-169 324,-169 324,-169 678.7231,-169 678.7231,-169"/>
<polygon fill="#000000" stroke="#000000" points="678.7232,-172.5001 688.7231,-169 678.7231,-165.5001 678.7232,-172.5001"/>
</g>
<!-- PageTitleTagsService -->
<g id="node9" class="node">
<title>PageTitleTagsService</title>
<ellipse fill="#fdb462" stroke="#000000" cx="120" cy="-104" rx="95.5394" ry="18"/>
<text text-anchor="middle" x="120" y="-99.8" font-family="Times,serif" font-size="14.00" fill="#000000">PageTitleTagsService</text>
</g>
<!-- PageTitleTagsService&#45;&gt;CoreModule -->
<g id="edge8" class="edge">
<title>PageTitleTagsService&#45;&gt;CoreModule</title>
<path fill="none" stroke="#000000" d="M120,-122.2921C120,-144.2057 120,-178 120,-178 120,-178 678.4771,-178 678.4771,-178"/>
<polygon fill="#000000" stroke="#000000" points="678.4771,-181.5001 688.4771,-178 678.4771,-174.5001 678.4771,-181.5001"/>
</g>
</g>
</svg>
