<?xml version="1.0" encoding="UTF-8" standalone="no"?>
<!DOCTYPE svg PUBLIC "-//W3C//DTD SVG 1.1//EN"
 "http://www.w3.org/Graphics/SVG/1.1/DTD/svg11.dtd">
<!-- Generated by graphviz version 2.40.1 (20161225.0304)
 -->
<!-- Title: dependencies Pages: 1 -->
<svg width="1354pt" height="211pt"
 viewBox="0.00 0.00 1354.00 211.00" xmlns="http://www.w3.org/2000/svg" xmlns:xlink="http://www.w3.org/1999/xlink">
<g id="graph0" class="graph" transform="scale(1 1) rotate(0) translate(4 207)">
<title>dependencies</title>
<polygon fill="#ffffff" stroke="transparent" points="-4,4 -4,-207 1350,-207 1350,4 -4,4"/>
<text text-anchor="start" x="652.0091" y="-42.4" font-family="sans-serif" font-weight="bold" font-size="14.00" fill="#000000">Legend</text>
<polygon fill="#ffffb3" stroke="transparent" points="439,-10 439,-30 459,-30 459,-10 439,-10"/>
<text text-anchor="start" x="462.629" y="-15.4" font-family="sans-serif" font-size="14.00" fill="#000000"> &#160;Declarations</text>
<polygon fill="#8dd3c7" stroke="transparent" points="552,-10 552,-30 572,-30 572,-10 552,-10"/>
<text text-anchor="start" x="575.7251" y="-15.4" font-family="sans-serif" font-size="14.00" fill="#000000"> &#160;Module</text>
<polygon fill="#80b1d3" stroke="transparent" points="638,-10 638,-30 658,-30 658,-10 638,-10"/>
<text text-anchor="start" x="661.7812" y="-15.4" font-family="sans-serif" font-size="14.00" fill="#000000"> &#160;Bootstrap</text>
<polygon fill="#fdb462" stroke="transparent" points="735,-10 735,-30 755,-30 755,-10 735,-10"/>
<text text-anchor="start" x="758.6732" y="-15.4" font-family="sans-serif" font-size="14.00" fill="#000000"> &#160;Providers</text>
<polygon fill="#fb8072" stroke="transparent" points="831,-10 831,-30 851,-30 851,-10 831,-10"/>
<text text-anchor="start" x="854.7258" y="-15.4" font-family="sans-serif" font-size="14.00" fill="#000000"> &#160;Exports</text>
<g id="clust1" class="cluster">
<title>cluster_UsersModule</title>
<polygon fill="none" stroke="#000000" stroke-dasharray="1,5" points="8,-70 8,-195 1338,-195 1338,-70 8,-70"/>
</g>
<g id="clust2" class="cluster">
<title>cluster_UsersModule_declarations</title>
<polygon fill="none" stroke="#000000" points="592,-78 592,-130 1330,-130 1330,-78 592,-78"/>
</g>
<g id="clust8" class="cluster">
<title>cluster_UsersModule_imports</title>
<polygon fill="none" stroke="#000000" points="164,-78 164,-130 584,-130 584,-78 164,-78"/>
</g>
<g id="clust11" class="cluster">
<title>cluster_UsersModule_providers</title>
<polygon fill="none" stroke="#000000" points="16,-78 16,-130 156,-130 156,-78 16,-78"/>
</g>
<!-- CrudAddComponent -->
<g id="node1" class="node">
<title>CrudAddComponent</title>
<polygon fill="#ffffb3" stroke="#000000" points="1321.9369,-122 1188.0631,-122 1188.0631,-86 1321.9369,-86 1321.9369,-122"/>
<text text-anchor="middle" x="1255" y="-99.8" font-family="Times,serif" font-size="14.00" fill="#000000">CrudAddComponent</text>
</g>
<!-- UsersModule -->
<g id="node6" class="node">
<title>UsersModule</title>
<polygon fill="#8dd3c7" stroke="#000000" points="711.9218,-187 708.9218,-191 687.9218,-191 684.9218,-187 620.0782,-187 620.0782,-151 711.9218,-151 711.9218,-187"/>
<text text-anchor="middle" x="666" y="-164.8" font-family="Times,serif" font-size="14.00" fill="#000000">UsersModule</text>
</g>
<!-- CrudAddComponent&#45;&gt;UsersModule -->
<g id="edge1" class="edge">
<title>CrudAddComponent&#45;&gt;UsersModule</title>
<path fill="none" stroke="#000000" d="M1255,-122.0109C1255,-144.4852 1255,-180 1255,-180 1255,-180 721.7277,-180 721.7277,-180"/>
<polygon fill="#000000" stroke="#000000" points="721.7278,-176.5001 711.7277,-180 721.7277,-183.5001 721.7278,-176.5001"/>
</g>
<!-- CrudComponent -->
<g id="node2" class="node">
<title>CrudComponent</title>
<polygon fill="#ffffb3" stroke="#000000" points="1170.8301,-122 1061.1699,-122 1061.1699,-86 1170.8301,-86 1170.8301,-122"/>
<text text-anchor="middle" x="1116" y="-99.8" font-family="Times,serif" font-size="14.00" fill="#000000">CrudComponent</text>
</g>
<!-- CrudComponent&#45;&gt;UsersModule -->
<g id="edge2" class="edge">
<title>CrudComponent&#45;&gt;UsersModule</title>
<path fill="none" stroke="#000000" d="M1116,-122.1289C1116,-142.5724 1116,-173 1116,-173 1116,-173 722.0431,-173 722.0431,-173"/>
<polygon fill="#000000" stroke="#000000" points="722.0432,-169.5001 712.0431,-173 722.0431,-176.5001 722.0432,-169.5001"/>
</g>
<!-- CrudDetailComponent -->
<g id="node3" class="node">
<title>CrudDetailComponent</title>
<polygon fill="#ffffb3" stroke="#000000" points="1043.5379,-122 900.4621,-122 900.4621,-86 1043.5379,-86 1043.5379,-122"/>
<text text-anchor="middle" x="972" y="-99.8" font-family="Times,serif" font-size="14.00" fill="#000000">CrudDetailComponent</text>
</g>
<!-- CrudDetailComponent&#45;&gt;UsersModule -->
<g id="edge3" class="edge">
<title>CrudDetailComponent&#45;&gt;UsersModule</title>
<path fill="none" stroke="#000000" d="M972,-122.2667C972,-140.5552 972,-166 972,-166 972,-166 721.8113,-166 721.8113,-166"/>
<polygon fill="#000000" stroke="#000000" points="721.8113,-162.5001 711.8113,-166 721.8113,-169.5001 721.8113,-162.5001"/>
</g>
<!-- CrudEditComponent -->
<g id="node4" class="node">
<title>CrudEditComponent</title>
<polygon fill="#ffffb3" stroke="#000000" points="882.1638,-122 749.8362,-122 749.8362,-86 882.1638,-86 882.1638,-122"/>
<text text-anchor="middle" x="816" y="-99.8" font-family="Times,serif" font-size="14.00" fill="#000000">CrudEditComponent</text>
</g>
<!-- CrudEditComponent&#45;&gt;UsersModule -->
<g id="edge4" class="edge">
<title>CrudEditComponent&#45;&gt;UsersModule</title>
<path fill="none" stroke="#000000" d="M816,-122.0091C816,-138.0494 816,-159 816,-159 816,-159 721.82,-159 721.82,-159"/>
<polygon fill="#000000" stroke="#000000" points="721.82,-155.5001 711.82,-159 721.82,-162.5001 721.82,-155.5001"/>
</g>
<!-- CrudListComponent -->
<g id="node5" class="node">
<title>CrudListComponent</title>
<polygon fill="#ffffb3" stroke="#000000" points="731.608,-122 600.392,-122 600.392,-86 731.608,-86 731.608,-122"/>
<text text-anchor="middle" x="666" y="-99.8" font-family="Times,serif" font-size="14.00" fill="#000000">CrudListComponent</text>
</g>
<!-- CrudListComponent&#45;&gt;UsersModule -->
<g id="edge5" class="edge">
<title>CrudListComponent&#45;&gt;UsersModule</title>
<path fill="none" stroke="#000000" d="M666,-122.1061C666,-122.1061 666,-140.991 666,-140.991"/>
<polygon fill="#000000" stroke="#000000" points="662.5001,-140.9909 666,-150.991 669.5001,-140.991 662.5001,-140.9909"/>
</g>
<!-- SchemaFormModule -->
<g id="node7" class="node">
<title>SchemaFormModule</title>
<polygon fill="#8dd3c7" stroke="#000000" points="576.2008,-122 573.2008,-126 552.2008,-126 549.2008,-122 441.7992,-122 441.7992,-86 576.2008,-86 576.2008,-122"/>
<text text-anchor="middle" x="509" y="-99.8" font-family="Times,serif" font-size="14.00" fill="#000000">SchemaFormModule</text>
</g>
<!-- SchemaFormModule&#45;&gt;UsersModule -->
<g id="edge6" class="edge">
<title>SchemaFormModule&#45;&gt;UsersModule</title>
<path fill="none" stroke="#000000" d="M509,-122.0091C509,-138.0494 509,-159 509,-159 509,-159 610.1671,-159 610.1671,-159"/>
<polygon fill="#000000" stroke="#000000" points="610.1671,-162.5001 620.1671,-159 610.167,-155.5001 610.1671,-162.5001"/>
</g>
<!-- ThemeModule -->
<g id="node8" class="node">
<title>ThemeModule</title>
<polygon fill="#8dd3c7" stroke="#000000" points="424.4231,-122 421.4231,-126 400.4231,-126 397.4231,-122 325.5769,-122 325.5769,-86 424.4231,-86 424.4231,-122"/>
<text text-anchor="middle" x="375" y="-99.8" font-family="Times,serif" font-size="14.00" fill="#000000">ThemeModule</text>
</g>
<!-- ThemeModule&#45;&gt;UsersModule -->
<g id="edge7" class="edge">
<title>ThemeModule&#45;&gt;UsersModule</title>
<path fill="none" stroke="#000000" d="M375,-122.2667C375,-140.5552 375,-166 375,-166 375,-166 610.2111,-166 610.2111,-166"/>
<polygon fill="#000000" stroke="#000000" points="610.2112,-169.5001 620.2111,-166 610.2111,-162.5001 610.2112,-169.5001"/>
</g>
<!-- UsersRoutingModule -->
<g id="node9" class="node">
<title>UsersRoutingModule</title>
<polygon fill="#8dd3c7" stroke="#000000" points="308.0394,-122 305.0394,-126 284.0394,-126 281.0394,-122 171.9606,-122 171.9606,-86 308.0394,-86 308.0394,-122"/>
<text text-anchor="middle" x="240" y="-99.8" font-family="Times,serif" font-size="14.00" fill="#000000">UsersRoutingModule</text>
</g>
<!-- UsersRoutingModule&#45;&gt;UsersModule -->
<g id="edge8" class="edge">
<title>UsersRoutingModule&#45;&gt;UsersModule</title>
<path fill="none" stroke="#000000" d="M240,-122.1289C240,-142.5724 240,-173 240,-173 240,-173 610.0058,-173 610.0058,-173"/>
<polygon fill="#000000" stroke="#000000" points="610.0058,-176.5001 620.0058,-173 610.0057,-169.5001 610.0058,-176.5001"/>
</g>
<!-- UsersService -->
<g id="node10" class="node">
<title>UsersService</title>
<ellipse fill="#fdb462" stroke="#000000" cx="86" cy="-104" rx="61.9519" ry="18"/>
<text text-anchor="middle" x="86" y="-99.8" font-family="Times,serif" font-size="14.00" fill="#000000">UsersService</text>
</g>
<!-- UsersService&#45;&gt;UsersModule -->
<g id="edge9" class="edge">
<title>UsersService&#45;&gt;UsersModule</title>
<path fill="none" stroke="#000000" d="M86,-122.0109C86,-144.4852 86,-180 86,-180 86,-180 610.0036,-180 610.0036,-180"/>
<polygon fill="#000000" stroke="#000000" points="610.0036,-183.5001 620.0036,-180 610.0035,-176.5001 610.0036,-183.5001"/>
</g>
</g>
</svg>
