<?xml version="1.0" encoding="UTF-8" standalone="no"?>
<!DOCTYPE svg PUBLIC "-//W3C//DTD SVG 1.1//EN"
 "http://www.w3.org/Graphics/SVG/1.1/DTD/svg11.dtd">
<!-- Generated by graphviz version 2.40.1 (20161225.0304)
 -->
<!-- Title: dependencies Pages: 1 -->
<svg width="2859pt" height="211pt"
 viewBox="0.00 0.00 2859.00 211.00" xmlns="http://www.w3.org/2000/svg" xmlns:xlink="http://www.w3.org/1999/xlink">
<g id="graph0" class="graph" transform="scale(1 1) rotate(0) translate(4 207)">
<title>dependencies</title>
<polygon fill="#ffffff" stroke="transparent" points="-4,4 -4,-207 2855,-207 2855,4 -4,4"/>
<text text-anchor="start" x="1404.5091" y="-42.4" font-family="sans-serif" font-weight="bold" font-size="14.00" fill="#000000">Legend</text>
<polygon fill="#ffffb3" stroke="transparent" points="1191.5,-10 1191.5,-30 1211.5,-30 1211.5,-10 1191.5,-10"/>
<text text-anchor="start" x="1215.129" y="-15.4" font-family="sans-serif" font-size="14.00" fill="#000000"> &#160;Declarations</text>
<polygon fill="#8dd3c7" stroke="transparent" points="1304.5,-10 1304.5,-30 1324.5,-30 1324.5,-10 1304.5,-10"/>
<text text-anchor="start" x="1328.2251" y="-15.4" font-family="sans-serif" font-size="14.00" fill="#000000"> &#160;Module</text>
<polygon fill="#80b1d3" stroke="transparent" points="1390.5,-10 1390.5,-30 1410.5,-30 1410.5,-10 1390.5,-10"/>
<text text-anchor="start" x="1414.2812" y="-15.4" font-family="sans-serif" font-size="14.00" fill="#000000"> &#160;Bootstrap</text>
<polygon fill="#fdb462" stroke="transparent" points="1487.5,-10 1487.5,-30 1507.5,-30 1507.5,-10 1487.5,-10"/>
<text text-anchor="start" x="1511.1732" y="-15.4" font-family="sans-serif" font-size="14.00" fill="#000000"> &#160;Providers</text>
<polygon fill="#fb8072" stroke="transparent" points="1583.5,-10 1583.5,-30 1603.5,-30 1603.5,-10 1583.5,-10"/>
<text text-anchor="start" x="1607.2258" y="-15.4" font-family="sans-serif" font-size="14.00" fill="#000000"> &#160;Exports</text>
<g id="clust1" class="cluster">
<title>cluster_DashboardModule</title>
<polygon fill="none" stroke="#000000" stroke-dasharray="1,5" points="8,-70 8,-195 2843,-195 2843,-70 8,-70"/>
</g>
<g id="clust2" class="cluster">
<title>cluster_DashboardModule_declarations</title>
<polygon fill="none" stroke="#000000" points="138,-78 138,-130 2835,-130 2835,-78 138,-78"/>
</g>
<g id="clust20" class="cluster">
<title>cluster_DashboardModule_imports</title>
<polygon fill="none" stroke="#000000" points="16,-78 16,-130 130,-130 130,-78 16,-78"/>
</g>
<!-- ContactsComponent -->
<g id="node1" class="node">
<title>ContactsComponent</title>
<polygon fill="#ffffb3" stroke="#000000" points="2827.3244,-122 2696.6756,-122 2696.6756,-86 2827.3244,-86 2827.3244,-122"/>
<text text-anchor="middle" x="2762" y="-99.8" font-family="Times,serif" font-size="14.00" fill="#000000">ContactsComponent</text>
</g>
<!-- DashboardModule -->
<g id="node18" class="node">
<title>DashboardModule</title>
<polygon fill="#8dd3c7" stroke="#000000" points="1476.191,-187 1473.191,-191 1452.191,-191 1449.191,-187 1355.809,-187 1355.809,-151 1476.191,-151 1476.191,-187"/>
<text text-anchor="middle" x="1416" y="-164.8" font-family="Times,serif" font-size="14.00" fill="#000000">DashboardModule</text>
</g>
<!-- ContactsComponent&#45;&gt;DashboardModule -->
<g id="edge1" class="edge">
<title>ContactsComponent&#45;&gt;DashboardModule</title>
<path fill="none" stroke="#000000" d="M2762,-122.3228C2762,-145.6602 2762,-183 2762,-183 2762,-183 1486.4497,-183 1486.4497,-183"/>
<polygon fill="#000000" stroke="#000000" points="1486.4497,-179.5001 1476.4497,-183 1486.4497,-186.5001 1486.4497,-179.5001"/>
</g>
<!-- DashboardComponent -->
<g id="node2" class="node">
<title>DashboardComponent</title>
<polygon fill="#ffffb3" stroke="#000000" points="2678.9734,-122 2537.0266,-122 2537.0266,-86 2678.9734,-86 2678.9734,-122"/>
<text text-anchor="middle" x="2608" y="-99.8" font-family="Times,serif" font-size="14.00" fill="#000000">DashboardComponent</text>
</g>
<!-- DashboardComponent&#45;&gt;DashboardModule -->
<g id="edge2" class="edge">
<title>DashboardComponent&#45;&gt;DashboardModule</title>
<path fill="none" stroke="#000000" d="M2608,-122.1554C2608,-144.3519 2608,-179 2608,-179 2608,-179 1486.3387,-179 1486.3387,-179"/>
<polygon fill="#000000" stroke="#000000" points="1486.3387,-175.5001 1476.3387,-179 1486.3386,-182.5001 1486.3387,-175.5001"/>
</g>
<!-- ElectricityChartComponent -->
<g id="node3" class="node">
<title>ElectricityChartComponent</title>
<polygon fill="#ffffb3" stroke="#000000" points="2519.245,-122 2348.755,-122 2348.755,-86 2519.245,-86 2519.245,-122"/>
<text text-anchor="middle" x="2434" y="-99.8" font-family="Times,serif" font-size="14.00" fill="#000000">ElectricityChartComponent</text>
</g>
<!-- ElectricityChartComponent&#45;&gt;DashboardModule -->
<g id="edge3" class="edge">
<title>ElectricityChartComponent&#45;&gt;DashboardModule</title>
<path fill="none" stroke="#000000" d="M2434,-122.2843C2434,-143.3211 2434,-175 2434,-175 2434,-175 1486.2554,-175 1486.2554,-175"/>
<polygon fill="#000000" stroke="#000000" points="1486.2555,-171.5001 1476.2554,-175 1486.2554,-178.5001 1486.2555,-171.5001"/>
</g>
<!-- ElectricityComponent -->
<g id="node4" class="node">
<title>ElectricityComponent</title>
<polygon fill="#ffffb3" stroke="#000000" points="2330.6429,-122 2191.3571,-122 2191.3571,-86 2330.6429,-86 2330.6429,-122"/>
<text text-anchor="middle" x="2261" y="-99.8" font-family="Times,serif" font-size="14.00" fill="#000000">ElectricityComponent</text>
</g>
<!-- ElectricityComponent&#45;&gt;DashboardModule -->
<g id="edge4" class="edge">
<title>ElectricityComponent&#45;&gt;DashboardModule</title>
<path fill="none" stroke="#000000" d="M2261,-122.308C2261,-142.1455 2261,-171 2261,-171 2261,-171 1486.4312,-171 1486.4312,-171"/>
<polygon fill="#000000" stroke="#000000" points="1486.4312,-167.5001 1476.4312,-171 1486.4312,-174.5001 1486.4312,-167.5001"/>
</g>
<!-- KittenComponent -->
<g id="node5" class="node">
<title>KittenComponent</title>
<polygon fill="#ffffb3" stroke="#000000" points="2173.3259,-122 2056.6741,-122 2056.6741,-86 2173.3259,-86 2173.3259,-122"/>
<text text-anchor="middle" x="2115" y="-99.8" font-family="Times,serif" font-size="14.00" fill="#000000">KittenComponent</text>
</g>
<!-- KittenComponent&#45;&gt;DashboardModule -->
<g id="edge5" class="edge">
<title>KittenComponent&#45;&gt;DashboardModule</title>
<path fill="none" stroke="#000000" d="M2115,-122.2222C2115,-140.8285 2115,-167 2115,-167 2115,-167 1486.2013,-167 1486.2013,-167"/>
<polygon fill="#000000" stroke="#000000" points="1486.2014,-163.5001 1476.2013,-167 1486.2013,-170.5001 1486.2014,-163.5001"/>
</g>
<!-- PlayerComponent -->
<g id="node6" class="node">
<title>PlayerComponent</title>
<polygon fill="#ffffb3" stroke="#000000" points="2038.5954,-122 1921.4046,-122 1921.4046,-86 2038.5954,-86 2038.5954,-122"/>
<text text-anchor="middle" x="1980" y="-99.8" font-family="Times,serif" font-size="14.00" fill="#000000">PlayerComponent</text>
</g>
<!-- PlayerComponent&#45;&gt;DashboardModule -->
<g id="edge6" class="edge">
<title>PlayerComponent&#45;&gt;DashboardModule</title>
<path fill="none" stroke="#000000" d="M1980,-122.0225C1980,-139.3734 1980,-163 1980,-163 1980,-163 1486.3579,-163 1486.3579,-163"/>
<polygon fill="#000000" stroke="#000000" points="1486.3579,-159.5001 1476.3579,-163 1486.3578,-166.5001 1486.3579,-159.5001"/>
</g>
<!-- RoomSelectorComponent -->
<g id="node7" class="node">
<title>RoomSelectorComponent</title>
<polygon fill="#ffffb3" stroke="#000000" points="1903.9284,-122 1742.0716,-122 1742.0716,-86 1903.9284,-86 1903.9284,-122"/>
<text text-anchor="middle" x="1823" y="-99.8" font-family="Times,serif" font-size="14.00" fill="#000000">RoomSelectorComponent</text>
</g>
<!-- RoomSelectorComponent&#45;&gt;DashboardModule -->
<g id="edge7" class="edge">
<title>RoomSelectorComponent&#45;&gt;DashboardModule</title>
<path fill="none" stroke="#000000" d="M1823,-122.0091C1823,-138.0494 1823,-159 1823,-159 1823,-159 1486.4925,-159 1486.4925,-159"/>
<polygon fill="#000000" stroke="#000000" points="1486.4926,-155.5001 1476.4925,-159 1486.4925,-162.5001 1486.4926,-155.5001"/>
</g>
<!-- RoomsComponent -->
<g id="node8" class="node">
<title>RoomsComponent</title>
<polygon fill="#ffffb3" stroke="#000000" points="1724.5042,-122 1603.4958,-122 1603.4958,-86 1724.5042,-86 1724.5042,-122"/>
<text text-anchor="middle" x="1664" y="-99.8" font-family="Times,serif" font-size="14.00" fill="#000000">RoomsComponent</text>
</g>
<!-- RoomsComponent&#45;&gt;DashboardModule -->
<g id="edge8" class="edge">
<title>RoomsComponent&#45;&gt;DashboardModule</title>
<path fill="none" stroke="#000000" d="M1664,-122.1243C1664,-136.7832 1664,-155 1664,-155 1664,-155 1486.3505,-155 1486.3505,-155"/>
<polygon fill="#000000" stroke="#000000" points="1486.3505,-151.5001 1476.3505,-155 1486.3505,-158.5001 1486.3505,-151.5001"/>
</g>
<!-- SecurityCamerasComponent -->
<g id="node9" class="node">
<title>SecurityCamerasComponent</title>
<polygon fill="#ffffb3" stroke="#000000" points="1585.4622,-122 1408.5378,-122 1408.5378,-86 1585.4622,-86 1585.4622,-122"/>
<text text-anchor="middle" x="1497" y="-99.8" font-family="Times,serif" font-size="14.00" fill="#000000">SecurityCamerasComponent</text>
</g>
<!-- SecurityCamerasComponent&#45;&gt;DashboardModule -->
<g id="edge9" class="edge">
<title>SecurityCamerasComponent&#45;&gt;DashboardModule</title>
<path fill="none" stroke="#000000" d="M1442.3072,-122.1061C1442.3072,-122.1061 1442.3072,-140.991 1442.3072,-140.991"/>
<polygon fill="#000000" stroke="#000000" points="1438.8072,-140.9909 1442.3072,-150.991 1445.8072,-140.991 1438.8072,-140.9909"/>
</g>
<!-- SolarComponent -->
<g id="node10" class="node">
<title>SolarComponent</title>
<polygon fill="#ffffb3" stroke="#000000" points="1390.3809,-122 1279.6191,-122 1279.6191,-86 1390.3809,-86 1390.3809,-122"/>
<text text-anchor="middle" x="1335" y="-99.8" font-family="Times,serif" font-size="14.00" fill="#000000">SolarComponent</text>
</g>
<!-- SolarComponent&#45;&gt;DashboardModule -->
<g id="edge10" class="edge">
<title>SolarComponent&#45;&gt;DashboardModule</title>
<path fill="none" stroke="#000000" d="M1373.1725,-122.1061C1373.1725,-122.1061 1373.1725,-140.991 1373.1725,-140.991"/>
<polygon fill="#000000" stroke="#000000" points="1369.6726,-140.9909 1373.1725,-150.991 1376.6726,-140.991 1369.6726,-140.9909"/>
</g>
<!-- StatusCardComponent -->
<g id="node11" class="node">
<title>StatusCardComponent</title>
<polygon fill="#ffffb3" stroke="#000000" points="1261.2674,-122 1118.7326,-122 1118.7326,-86 1261.2674,-86 1261.2674,-122"/>
<text text-anchor="middle" x="1190" y="-99.8" font-family="Times,serif" font-size="14.00" fill="#000000">StatusCardComponent</text>
</g>
<!-- StatusCardComponent&#45;&gt;DashboardModule -->
<g id="edge11" class="edge">
<title>StatusCardComponent&#45;&gt;DashboardModule</title>
<path fill="none" stroke="#000000" d="M1190,-122.1243C1190,-136.7832 1190,-155 1190,-155 1190,-155 1345.733,-155 1345.733,-155"/>
<polygon fill="#000000" stroke="#000000" points="1345.7331,-158.5001 1355.733,-155 1345.733,-151.5001 1345.7331,-158.5001"/>
</g>
<!-- TeamComponent -->
<g id="node12" class="node">
<title>TeamComponent</title>
<polygon fill="#ffffb3" stroke="#000000" points="1100.705,-122 987.295,-122 987.295,-86 1100.705,-86 1100.705,-122"/>
<text text-anchor="middle" x="1044" y="-99.8" font-family="Times,serif" font-size="14.00" fill="#000000">TeamComponent</text>
</g>
<!-- TeamComponent&#45;&gt;DashboardModule -->
<g id="edge12" class="edge">
<title>TeamComponent&#45;&gt;DashboardModule</title>
<path fill="none" stroke="#000000" d="M1044,-122.0091C1044,-138.0494 1044,-159 1044,-159 1044,-159 1345.8183,-159 1345.8183,-159"/>
<polygon fill="#000000" stroke="#000000" points="1345.8184,-162.5001 1355.8183,-159 1345.8183,-155.5001 1345.8184,-162.5001"/>
</g>
<!-- TemperatureComponent -->
<g id="node13" class="node">
<title>TemperatureComponent</title>
<polygon fill="#ffffb3" stroke="#000000" points="969.3459,-122 816.6541,-122 816.6541,-86 969.3459,-86 969.3459,-122"/>
<text text-anchor="middle" x="893" y="-99.8" font-family="Times,serif" font-size="14.00" fill="#000000">TemperatureComponent</text>
</g>
<!-- TemperatureComponent&#45;&gt;DashboardModule -->
<g id="edge13" class="edge">
<title>TemperatureComponent&#45;&gt;DashboardModule</title>
<path fill="none" stroke="#000000" d="M893,-122.0225C893,-139.3734 893,-163 893,-163 893,-163 1345.75,-163 1345.75,-163"/>
<polygon fill="#000000" stroke="#000000" points="1345.75,-166.5001 1355.75,-163 1345.75,-159.5001 1345.75,-166.5001"/>
</g>
<!-- TemperatureDraggerComponent -->
<g id="node14" class="node">
<title>TemperatureDraggerComponent</title>
<polygon fill="#ffffb3" stroke="#000000" points="798.203,-122 599.797,-122 599.797,-86 798.203,-86 798.203,-122"/>
<text text-anchor="middle" x="699" y="-99.8" font-family="Times,serif" font-size="14.00" fill="#000000">TemperatureDraggerComponent</text>
</g>
<!-- TemperatureDraggerComponent&#45;&gt;DashboardModule -->
<g id="edge14" class="edge">
<title>TemperatureDraggerComponent&#45;&gt;DashboardModule</title>
<path fill="none" stroke="#000000" d="M699,-122.2222C699,-140.8285 699,-167 699,-167 699,-167 1345.7949,-167 1345.7949,-167"/>
<polygon fill="#000000" stroke="#000000" points="1345.7949,-170.5001 1355.7949,-167 1345.7949,-163.5001 1345.7949,-170.5001"/>
</g>
<!-- TrafficChartComponent -->
<g id="node15" class="node">
<title>TrafficChartComponent</title>
<polygon fill="#ffffb3" stroke="#000000" points="581.7893,-122 430.2107,-122 430.2107,-86 581.7893,-86 581.7893,-122"/>
<text text-anchor="middle" x="506" y="-99.8" font-family="Times,serif" font-size="14.00" fill="#000000">TrafficChartComponent</text>
</g>
<!-- TrafficChartComponent&#45;&gt;DashboardModule -->
<g id="edge15" class="edge">
<title>TrafficChartComponent&#45;&gt;DashboardModule</title>
<path fill="none" stroke="#000000" d="M506,-122.308C506,-142.1455 506,-171 506,-171 506,-171 1345.5876,-171 1345.5876,-171"/>
<polygon fill="#000000" stroke="#000000" points="1345.5877,-174.5001 1355.5876,-171 1345.5876,-167.5001 1345.5877,-174.5001"/>
</g>
<!-- TrafficComponent -->
<g id="node16" class="node">
<title>TrafficComponent</title>
<polygon fill="#ffffb3" stroke="#000000" points="412.1867,-122 291.8133,-122 291.8133,-86 412.1867,-86 412.1867,-122"/>
<text text-anchor="middle" x="352" y="-99.8" font-family="Times,serif" font-size="14.00" fill="#000000">TrafficComponent</text>
</g>
<!-- TrafficComponent&#45;&gt;DashboardModule -->
<g id="edge16" class="edge">
<title>TrafficComponent&#45;&gt;DashboardModule</title>
<path fill="none" stroke="#000000" d="M352,-122.2843C352,-143.3211 352,-175 352,-175 352,-175 1345.7462,-175 1345.7462,-175"/>
<polygon fill="#000000" stroke="#000000" points="1345.7462,-178.5001 1355.7462,-175 1345.7461,-171.5001 1345.7462,-178.5001"/>
</g>
<!-- WeatherComponent -->
<g id="node17" class="node">
<title>WeatherComponent</title>
<polygon fill="#ffffb3" stroke="#000000" points="274.2423,-122 145.7577,-122 145.7577,-86 274.2423,-86 274.2423,-122"/>
<text text-anchor="middle" x="210" y="-99.8" font-family="Times,serif" font-size="14.00" fill="#000000">WeatherComponent</text>
</g>
<!-- WeatherComponent&#45;&gt;DashboardModule -->
<g id="edge17" class="edge">
<title>WeatherComponent&#45;&gt;DashboardModule</title>
<path fill="none" stroke="#000000" d="M210,-122.1554C210,-144.3519 210,-179 210,-179 210,-179 1345.7817,-179 1345.7817,-179"/>
<polygon fill="#000000" stroke="#000000" points="1345.7817,-182.5001 1355.7817,-179 1345.7816,-175.5001 1345.7817,-182.5001"/>
</g>
<!-- ThemeModule -->
<g id="node19" class="node">
<title>ThemeModule</title>
<polygon fill="#8dd3c7" stroke="#000000" points="122.4231,-122 119.4231,-126 98.4231,-126 95.4231,-122 23.5769,-122 23.5769,-86 122.4231,-86 122.4231,-122"/>
<text text-anchor="middle" x="73" y="-99.8" font-family="Times,serif" font-size="14.00" fill="#000000">ThemeModule</text>
</g>
<!-- ThemeModule&#45;&gt;DashboardModule -->
<g id="edge18" class="edge">
<title>ThemeModule&#45;&gt;DashboardModule</title>
<path fill="none" stroke="#000000" d="M73,-122.3228C73,-145.6602 73,-183 73,-183 73,-183 1345.685,-183 1345.685,-183"/>
<polygon fill="#000000" stroke="#000000" points="1345.6851,-186.5001 1355.685,-183 1345.685,-179.5001 1345.6851,-186.5001"/>
</g>
</g>
</svg>
