<?xml version="1.0" encoding="UTF-8" standalone="no"?>
<!DOCTYPE svg PUBLIC "-//W3C//DTD SVG 1.1//EN"
 "http://www.w3.org/Graphics/SVG/1.1/DTD/svg11.dtd">
<!-- Generated by graphviz version 2.40.1 (20161225.0304)
 -->
<!-- Title: dependencies Pages: 1 -->
<svg width="3475pt" height="284pt"
 viewBox="0.00 0.00 3475.00 284.00" xmlns="http://www.w3.org/2000/svg" xmlns:xlink="http://www.w3.org/1999/xlink">
<g id="graph0" class="graph" transform="scale(1 1) rotate(0) translate(4 280)">
<title>dependencies</title>
<polygon fill="#ffffff" stroke="transparent" points="-4,4 -4,-280 3471,-280 3471,4 -4,4"/>
<text text-anchor="start" x="1712.5091" y="-42.4" font-family="sans-serif" font-weight="bold" font-size="14.00" fill="#000000">Legend</text>
<polygon fill="#ffffb3" stroke="transparent" points="1499.5,-10 1499.5,-30 1519.5,-30 1519.5,-10 1499.5,-10"/>
<text text-anchor="start" x="1523.129" y="-15.4" font-family="sans-serif" font-size="14.00" fill="#000000"> &#160;Declarations</text>
<polygon fill="#8dd3c7" stroke="transparent" points="1612.5,-10 1612.5,-30 1632.5,-30 1632.5,-10 1612.5,-10"/>
<text text-anchor="start" x="1636.2251" y="-15.4" font-family="sans-serif" font-size="14.00" fill="#000000"> &#160;Module</text>
<polygon fill="#80b1d3" stroke="transparent" points="1698.5,-10 1698.5,-30 1718.5,-30 1718.5,-10 1698.5,-10"/>
<text text-anchor="start" x="1722.2812" y="-15.4" font-family="sans-serif" font-size="14.00" fill="#000000"> &#160;Bootstrap</text>
<polygon fill="#fdb462" stroke="transparent" points="1795.5,-10 1795.5,-30 1815.5,-30 1815.5,-10 1795.5,-10"/>
<text text-anchor="start" x="1819.1732" y="-15.4" font-family="sans-serif" font-size="14.00" fill="#000000"> &#160;Providers</text>
<polygon fill="#fb8072" stroke="transparent" points="1891.5,-10 1891.5,-30 1911.5,-30 1911.5,-10 1891.5,-10"/>
<text text-anchor="start" x="1915.2258" y="-15.4" font-family="sans-serif" font-size="14.00" fill="#000000"> &#160;Exports</text>
<g id="clust1" class="cluster">
<title>cluster_ThemeModule</title>
<polygon fill="none" stroke="#000000" stroke-dasharray="1,5" points="8,-70 8,-268 3459,-268 3459,-70 8,-70"/>
</g>
<g id="clust2" class="cluster">
<title>cluster_ThemeModule_declarations</title>
<polygon fill="none" stroke="#000000" points="158,-78 158,-130 3451,-130 3451,-78 158,-78"/>
</g>
<g id="clust24" class="cluster">
<title>cluster_ThemeModule_exports</title>
<polygon fill="none" stroke="#000000" points="53,-208 53,-260 3415,-260 3415,-208 53,-208"/>
</g>
<g id="clust26" class="cluster">
<title>cluster_ThemeModule_providers</title>
<polygon fill="none" stroke="#000000" points="16,-78 16,-130 150,-130 150,-78 16,-78"/>
</g>
<!-- CapitalizePipe -->
<g id="node1" class="node">
<title>CapitalizePipe</title>
<polygon fill="#ffffb3" stroke="#000000" points="3442.6458,-122 3345.3542,-122 3345.3542,-86 3442.6458,-86 3442.6458,-122"/>
<text text-anchor="middle" x="3394" y="-99.8" font-family="Times,serif" font-size="14.00" fill="#000000">CapitalizePipe</text>
</g>
<!-- ThemeModule -->
<g id="node21" class="node">
<title>ThemeModule</title>
<polygon fill="#8dd3c7" stroke="#000000" points="1888.4231,-187 1885.4231,-191 1864.4231,-191 1861.4231,-187 1789.5769,-187 1789.5769,-151 1888.4231,-151 1888.4231,-187"/>
<text text-anchor="middle" x="1839" y="-164.8" font-family="Times,serif" font-size="14.00" fill="#000000">ThemeModule</text>
</g>
<!-- CapitalizePipe&#45;&gt;ThemeModule -->
<g id="edge1" class="edge">
<title>CapitalizePipe&#45;&gt;ThemeModule</title>
<path fill="none" stroke="#000000" d="M3375.875,-122.1061C3375.875,-141.3391 3375.875,-169 3375.875,-169 3375.875,-169 1898.3939,-169 1898.3939,-169"/>
<polygon fill="#000000" stroke="#000000" points="1898.394,-165.5001 1888.3939,-169 1898.3939,-172.5001 1898.394,-165.5001"/>
</g>
<!-- FooterComponent -->
<g id="node2" class="node">
<title>FooterComponent</title>
<polygon fill="#ffffb3" stroke="#000000" points="3326.8809,-122 3209.1191,-122 3209.1191,-86 3326.8809,-86 3326.8809,-122"/>
<text text-anchor="middle" x="3268" y="-99.8" font-family="Times,serif" font-size="14.00" fill="#000000">FooterComponent</text>
</g>
<!-- FooterComponent&#45;&gt;ThemeModule -->
<g id="edge2" class="edge">
<title>FooterComponent&#45;&gt;ThemeModule</title>
<path fill="none" stroke="#000000" d="M3248.375,-122.1686C3248.375,-141.0898 3248.375,-168 3248.375,-168 3248.375,-168 1898.334,-168 1898.334,-168"/>
<polygon fill="#000000" stroke="#000000" points="1898.334,-164.5001 1888.334,-168 1898.334,-171.5001 1898.334,-164.5001"/>
</g>
<!-- HeaderComponent -->
<g id="node3" class="node">
<title>HeaderComponent</title>
<polygon fill="#ffffb3" stroke="#000000" points="3190.7437,-122 3069.2563,-122 3069.2563,-86 3190.7437,-86 3190.7437,-122"/>
<text text-anchor="middle" x="3130" y="-99.8" font-family="Times,serif" font-size="14.00" fill="#000000">HeaderComponent</text>
</g>
<!-- HeaderComponent&#45;&gt;ThemeModule -->
<g id="edge3" class="edge">
<title>HeaderComponent&#45;&gt;ThemeModule</title>
<path fill="none" stroke="#000000" d="M3108.875,-122.2667C3108.875,-140.5552 3108.875,-166 3108.875,-166 3108.875,-166 1898.3909,-166 1898.3909,-166"/>
<polygon fill="#000000" stroke="#000000" points="1898.3909,-162.5001 1888.3909,-166 1898.3908,-169.5001 1898.3909,-162.5001"/>
</g>
<!-- LayoutDirectionSwitcherComponent -->
<g id="node4" class="node">
<title>LayoutDirectionSwitcherComponent</title>
<polygon fill="#ffffb3" stroke="#000000" points="3050.6189,-122 2827.3811,-122 2827.3811,-86 3050.6189,-86 3050.6189,-122"/>
<text text-anchor="middle" x="2939" y="-99.8" font-family="Times,serif" font-size="14.00" fill="#000000">LayoutDirectionSwitcherComponent</text>
</g>
<!-- LayoutDirectionSwitcherComponent&#45;&gt;ThemeModule -->
<g id="edge4" class="edge">
<title>LayoutDirectionSwitcherComponent&#45;&gt;ThemeModule</title>
<path fill="none" stroke="#000000" d="M2916.375,-122.002C2916.375,-139.6754 2916.375,-164 2916.375,-164 2916.375,-164 1898.4471,-164 1898.4471,-164"/>
<polygon fill="#000000" stroke="#000000" points="1898.4472,-160.5001 1888.4471,-164 1898.4471,-167.5001 1898.4472,-160.5001"/>
</g>
<!-- NgxAuthBlockComponent -->
<g id="node5" class="node">
<title>NgxAuthBlockComponent</title>
<polygon fill="#ffffb3" stroke="#000000" points="2809.378,-122 2642.622,-122 2642.622,-86 2809.378,-86 2809.378,-122"/>
<text text-anchor="middle" x="2726" y="-99.8" font-family="Times,serif" font-size="14.00" fill="#000000">NgxAuthBlockComponent</text>
</g>
<!-- NgxAuthBlockComponent&#45;&gt;ThemeModule -->
<g id="edge5" class="edge">
<title>NgxAuthBlockComponent&#45;&gt;ThemeModule</title>
<path fill="none" stroke="#000000" d="M2701.375,-122.0336C2701.375,-139.0597 2701.375,-162 2701.375,-162 2701.375,-162 1898.4624,-162 1898.4624,-162"/>
<polygon fill="#000000" stroke="#000000" points="1898.4624,-158.5001 1888.4624,-162 1898.4624,-165.5001 1898.4624,-158.5001"/>
</g>
<!-- NgxAuthComponent -->
<g id="node6" class="node">
<title>NgxAuthComponent</title>
<polygon fill="#ffffb3" stroke="#000000" points="2624.9369,-122 2491.0631,-122 2491.0631,-86 2624.9369,-86 2624.9369,-122"/>
<text text-anchor="middle" x="2558" y="-99.8" font-family="Times,serif" font-size="14.00" fill="#000000">NgxAuthComponent</text>
</g>
<!-- NgxAuthComponent&#45;&gt;ThemeModule -->
<g id="edge6" class="edge">
<title>NgxAuthComponent&#45;&gt;ThemeModule</title>
<path fill="none" stroke="#000000" d="M2531.375,-122.027C2531.375,-138.3976 2531.375,-160 2531.375,-160 2531.375,-160 1898.2388,-160 1898.2388,-160"/>
<polygon fill="#000000" stroke="#000000" points="1898.2389,-156.5001 1888.2388,-160 1898.2388,-163.5001 1898.2389,-156.5001"/>
</g>
<!-- NgxLoginComponent -->
<g id="node7" class="node">
<title>NgxLoginComponent</title>
<polygon fill="#ffffb3" stroke="#000000" points="2473.3822,-122 2334.6178,-122 2334.6178,-86 2473.3822,-86 2473.3822,-122"/>
<text text-anchor="middle" x="2404" y="-99.8" font-family="Times,serif" font-size="14.00" fill="#000000">NgxLoginComponent</text>
</g>
<!-- NgxLoginComponent&#45;&gt;ThemeModule -->
<g id="edge7" class="edge">
<title>NgxLoginComponent&#45;&gt;ThemeModule</title>
<path fill="none" stroke="#000000" d="M2375.375,-122.0091C2375.375,-138.0494 2375.375,-159 2375.375,-159 2375.375,-159 1898.4995,-159 1898.4995,-159"/>
<polygon fill="#000000" stroke="#000000" points="1898.4995,-155.5001 1888.4995,-159 1898.4994,-162.5001 1898.4995,-155.5001"/>
</g>
<!-- OneColumnLayoutComponent -->
<g id="node8" class="node">
<title>OneColumnLayoutComponent</title>
<polygon fill="#ffffb3" stroke="#000000" points="2316.9297,-122 2127.0703,-122 2127.0703,-86 2316.9297,-86 2316.9297,-122"/>
<text text-anchor="middle" x="2222" y="-99.8" font-family="Times,serif" font-size="14.00" fill="#000000">OneColumnLayoutComponent</text>
</g>
<!-- OneColumnLayoutComponent&#45;&gt;ThemeModule -->
<g id="edge8" class="edge">
<title>OneColumnLayoutComponent&#45;&gt;ThemeModule</title>
<path fill="none" stroke="#000000" d="M2191.375,-122.2396C2191.375,-137.5706 2191.375,-157 2191.375,-157 2191.375,-157 1898.3673,-157 1898.3673,-157"/>
<polygon fill="#000000" stroke="#000000" points="1898.3673,-153.5001 1888.3673,-157 1898.3672,-160.5001 1898.3673,-153.5001"/>
</g>
<!-- PluralPipe -->
<g id="node9" class="node">
<title>PluralPipe</title>
<polygon fill="#ffffb3" stroke="#000000" points="2109.3275,-122 2034.6725,-122 2034.6725,-86 2109.3275,-86 2109.3275,-122"/>
<text text-anchor="middle" x="2072" y="-99.8" font-family="Times,serif" font-size="14.00" fill="#000000">PluralPipe</text>
</g>
<!-- PluralPipe&#45;&gt;ThemeModule -->
<g id="edge9" class="edge">
<title>PluralPipe&#45;&gt;ThemeModule</title>
<path fill="none" stroke="#000000" d="M2039.875,-122.1243C2039.875,-136.7832 2039.875,-155 2039.875,-155 2039.875,-155 1898.3968,-155 1898.3968,-155"/>
<polygon fill="#000000" stroke="#000000" points="1898.3969,-151.5001 1888.3968,-155 1898.3968,-158.5001 1898.3969,-151.5001"/>
</g>
<!-- RoundPipe -->
<g id="node10" class="node">
<title>RoundPipe</title>
<polygon fill="#ffffb3" stroke="#000000" points="2017.2247,-122 1938.7753,-122 1938.7753,-86 2017.2247,-86 2017.2247,-122"/>
<text text-anchor="middle" x="1978" y="-99.8" font-family="Times,serif" font-size="14.00" fill="#000000">RoundPipe</text>
</g>
<!-- RoundPipe&#45;&gt;ThemeModule -->
<g id="edge10" class="edge">
<title>RoundPipe&#45;&gt;ThemeModule</title>
<path fill="none" stroke="#000000" d="M1943.875,-122.2458C1943.875,-136.1772 1943.875,-153 1943.875,-153 1943.875,-153 1898.3666,-153 1898.3666,-153"/>
<polygon fill="#000000" stroke="#000000" points="1898.3666,-149.5001 1888.3666,-153 1898.3665,-156.5001 1898.3666,-149.5001"/>
</g>
<!-- SampleLayoutComponent -->
<g id="node11" class="node">
<title>SampleLayoutComponent</title>
<polygon fill="#ffffb3" stroke="#000000" points="1920.4832,-122 1757.5168,-122 1757.5168,-86 1920.4832,-86 1920.4832,-122"/>
<text text-anchor="middle" x="1839" y="-99.8" font-family="Times,serif" font-size="14.00" fill="#000000">SampleLayoutComponent</text>
</g>
<!-- SampleLayoutComponent&#45;&gt;ThemeModule -->
<g id="edge11" class="edge">
<title>SampleLayoutComponent&#45;&gt;ThemeModule</title>
<path fill="none" stroke="#000000" d="M1839,-122.1061C1839,-122.1061 1839,-140.991 1839,-140.991"/>
<polygon fill="#000000" stroke="#000000" points="1835.5001,-140.9909 1839,-150.991 1842.5001,-140.991 1835.5001,-140.9909"/>
</g>
<!-- SearchInputComponent -->
<g id="node12" class="node">
<title>SearchInputComponent</title>
<polygon fill="#ffffb3" stroke="#000000" points="1739.4706,-122 1590.5294,-122 1590.5294,-86 1739.4706,-86 1739.4706,-122"/>
<text text-anchor="middle" x="1665" y="-99.8" font-family="Times,serif" font-size="14.00" fill="#000000">SearchInputComponent</text>
</g>
<!-- SearchInputComponent&#45;&gt;ThemeModule -->
<g id="edge12" class="edge">
<title>SearchInputComponent&#45;&gt;ThemeModule</title>
<path fill="none" stroke="#000000" d="M1711.1219,-122.2458C1711.1219,-136.1772 1711.1219,-153 1711.1219,-153 1711.1219,-153 1779.559,-153 1779.559,-153"/>
<polygon fill="#000000" stroke="#000000" points="1779.559,-156.5001 1789.559,-153 1779.5589,-149.5001 1779.559,-156.5001"/>
</g>
<!-- SwitcherComponent -->
<g id="node13" class="node">
<title>SwitcherComponent</title>
<polygon fill="#ffffb3" stroke="#000000" points="1572.5926,-122 1441.4074,-122 1441.4074,-86 1572.5926,-86 1572.5926,-122"/>
<text text-anchor="middle" x="1507" y="-99.8" font-family="Times,serif" font-size="14.00" fill="#000000">SwitcherComponent</text>
</g>
<!-- SwitcherComponent&#45;&gt;ThemeModule -->
<g id="edge13" class="edge">
<title>SwitcherComponent&#45;&gt;ThemeModule</title>
<path fill="none" stroke="#000000" d="M1542.6555,-122.1243C1542.6555,-136.7832 1542.6555,-155 1542.6555,-155 1542.6555,-155 1779.7321,-155 1779.7321,-155"/>
<polygon fill="#000000" stroke="#000000" points="1779.7321,-158.5001 1789.7321,-155 1779.732,-151.5001 1779.7321,-158.5001"/>
</g>
<!-- ThemeSettingsComponent -->
<g id="node14" class="node">
<title>ThemeSettingsComponent</title>
<polygon fill="#ffffb3" stroke="#000000" points="1423.8187,-122 1258.1813,-122 1258.1813,-86 1423.8187,-86 1423.8187,-122"/>
<text text-anchor="middle" x="1341" y="-99.8" font-family="Times,serif" font-size="14.00" fill="#000000">ThemeSettingsComponent</text>
</g>
<!-- ThemeSettingsComponent&#45;&gt;ThemeModule -->
<g id="edge14" class="edge">
<title>ThemeSettingsComponent&#45;&gt;ThemeModule</title>
<path fill="none" stroke="#000000" d="M1391.6815,-122.2396C1391.6815,-137.5706 1391.6815,-157 1391.6815,-157 1391.6815,-157 1779.42,-157 1779.42,-157"/>
<polygon fill="#000000" stroke="#000000" points="1779.42,-160.5001 1789.42,-157 1779.4199,-153.5001 1779.42,-160.5001"/>
</g>
<!-- ThemeSwitcherComponent -->
<g id="node15" class="node">
<title>ThemeSwitcherComponent</title>
<polygon fill="#ffffb3" stroke="#000000" points="1239.965,-122 1070.035,-122 1070.035,-86 1239.965,-86 1239.965,-122"/>
<text text-anchor="middle" x="1155" y="-99.8" font-family="Times,serif" font-size="14.00" fill="#000000">ThemeSwitcherComponent</text>
</g>
<!-- ThemeSwitcherComponent&#45;&gt;ThemeModule -->
<g id="edge15" class="edge">
<title>ThemeSwitcherComponent&#45;&gt;ThemeModule</title>
<path fill="none" stroke="#000000" d="M1206.2867,-122.0091C1206.2867,-138.0494 1206.2867,-159 1206.2867,-159 1206.2867,-159 1779.6156,-159 1779.6156,-159"/>
<polygon fill="#000000" stroke="#000000" points="1779.6156,-162.5001 1789.6156,-159 1779.6156,-155.5001 1779.6156,-162.5001"/>
</g>
<!-- ThemeSwitcherListComponent -->
<g id="node16" class="node">
<title>ThemeSwitcherListComponent</title>
<polygon fill="#ffffb3" stroke="#000000" points="1051.7436,-122 860.2564,-122 860.2564,-86 1051.7436,-86 1051.7436,-122"/>
<text text-anchor="middle" x="956" y="-99.8" font-family="Times,serif" font-size="14.00" fill="#000000">ThemeSwitcherListComponent</text>
</g>
<!-- ThemeSwitcherListComponent&#45;&gt;ThemeModule -->
<g id="edge16" class="edge">
<title>ThemeSwitcherListComponent&#45;&gt;ThemeModule</title>
<path fill="none" stroke="#000000" d="M1016.5696,-122.027C1016.5696,-138.3976 1016.5696,-160 1016.5696,-160 1016.5696,-160 1779.7112,-160 1779.7112,-160"/>
<polygon fill="#000000" stroke="#000000" points="1779.7112,-163.5001 1789.7112,-160 1779.7112,-156.5001 1779.7112,-163.5001"/>
</g>
<!-- ThreeColumnsLayoutComponent -->
<g id="node17" class="node">
<title>ThreeColumnsLayoutComponent</title>
<polygon fill="#ffffb3" stroke="#000000" points="842.1951,-122 637.8049,-122 637.8049,-86 842.1951,-86 842.1951,-122"/>
<text text-anchor="middle" x="740" y="-99.8" font-family="Times,serif" font-size="14.00" fill="#000000">ThreeColumnsLayoutComponent</text>
</g>
<!-- ThreeColumnsLayoutComponent&#45;&gt;ThemeModule -->
<g id="edge17" class="edge">
<title>ThreeColumnsLayoutComponent&#45;&gt;ThemeModule</title>
<path fill="none" stroke="#000000" d="M805.2379,-122.0336C805.2379,-139.0597 805.2379,-162 805.2379,-162 805.2379,-162 1779.4878,-162 1779.4878,-162"/>
<polygon fill="#000000" stroke="#000000" points="1779.4878,-165.5001 1789.4878,-162 1779.4877,-158.5001 1779.4878,-165.5001"/>
</g>
<!-- TimingPipe -->
<g id="node18" class="node">
<title>TimingPipe</title>
<polygon fill="#ffffb3" stroke="#000000" points="620.1123,-122 537.8877,-122 537.8877,-86 620.1123,-86 620.1123,-122"/>
<text text-anchor="middle" x="579" y="-99.8" font-family="Times,serif" font-size="14.00" fill="#000000">TimingPipe</text>
</g>
<!-- TimingPipe&#45;&gt;ThemeModule -->
<g id="edge18" class="edge">
<title>TimingPipe&#45;&gt;ThemeModule</title>
<path fill="none" stroke="#000000" d="M581.6043,-122.002C581.6043,-139.6754 581.6043,-164 581.6043,-164 581.6043,-164 1779.7086,-164 1779.7086,-164"/>
<polygon fill="#000000" stroke="#000000" points="1779.7086,-167.5001 1789.7086,-164 1779.7086,-160.5001 1779.7086,-167.5001"/>
</g>
<!-- TinyMCEComponent -->
<g id="node19" class="node">
<title>TinyMCEComponent</title>
<polygon fill="#ffffb3" stroke="#000000" points="520.1094,-122 381.8906,-122 381.8906,-86 520.1094,-86 520.1094,-122"/>
<text text-anchor="middle" x="451" y="-99.8" font-family="Times,serif" font-size="14.00" fill="#000000">TinyMCEComponent</text>
</g>
<!-- TinyMCEComponent&#45;&gt;ThemeModule -->
<g id="edge19" class="edge">
<title>TinyMCEComponent&#45;&gt;ThemeModule</title>
<path fill="none" stroke="#000000" d="M466.1475,-122.2667C466.1475,-140.5552 466.1475,-166 466.1475,-166 466.1475,-166 1779.7347,-166 1779.7347,-166"/>
<polygon fill="#000000" stroke="#000000" points="1779.7347,-169.5001 1789.7347,-166 1779.7347,-162.5001 1779.7347,-169.5001"/>
</g>
<!-- TwoColumnsLayoutComponent -->
<g id="node20" class="node">
<title>TwoColumnsLayoutComponent</title>
<polygon fill="#ffffb3" stroke="#000000" points="363.7119,-122 166.2881,-122 166.2881,-86 363.7119,-86 363.7119,-122"/>
<text text-anchor="middle" x="265" y="-99.8" font-family="Times,serif" font-size="14.00" fill="#000000">TwoColumnsLayoutComponent</text>
</g>
<!-- TwoColumnsLayoutComponent&#45;&gt;ThemeModule -->
<g id="edge20" class="edge">
<title>TwoColumnsLayoutComponent&#45;&gt;ThemeModule</title>
<path fill="none" stroke="#000000" d="M321.4006,-122.1686C321.4006,-141.0898 321.4006,-168 321.4006,-168 321.4006,-168 1779.3696,-168 1779.3696,-168"/>
<polygon fill="#000000" stroke="#000000" points="1779.3696,-171.5001 1789.3696,-168 1779.3695,-164.5001 1779.3696,-171.5001"/>
</g>
<!-- CapitalizePipe  -->
<g id="node22" class="node">
<title>CapitalizePipe </title>
<polygon fill="#fb8072" stroke="#000000" points="3406.6453,-252 3305.3547,-252 3305.3547,-216 3406.6453,-216 3406.6453,-252"/>
<text text-anchor="middle" x="3356" y="-229.8" font-family="Times,serif" font-size="14.00" fill="#000000">CapitalizePipe </text>
</g>
<!-- ThemeModule&#45;&gt;CapitalizePipe  -->
<g id="edge21" class="edge">
<title>ThemeModule&#45;&gt;CapitalizePipe </title>
<path fill="none" stroke="#000000" stroke-dasharray="5,2" d="M1888.5709,-171C2145.747,-171 3316.1839,-171 3316.1839,-171 3316.1839,-171 3316.1839,-205.7778 3316.1839,-205.7778"/>
<polygon fill="#000000" stroke="#000000" points="3312.684,-205.7778 3316.1839,-215.7778 3319.684,-205.7778 3312.684,-205.7778"/>
</g>
<!-- FooterComponent  -->
<g id="node23" class="node">
<title>FooterComponent </title>
<polygon fill="#fb8072" stroke="#000000" points="3287.8814,-252 3166.1186,-252 3166.1186,-216 3287.8814,-216 3287.8814,-252"/>
<text text-anchor="middle" x="3227" y="-229.8" font-family="Times,serif" font-size="14.00" fill="#000000">FooterComponent </text>
</g>
<!-- ThemeModule&#45;&gt;FooterComponent  -->
<g id="edge22" class="edge">
<title>ThemeModule&#45;&gt;FooterComponent </title>
<path fill="none" stroke="#000000" stroke-dasharray="5,2" d="M1888.2655,-173C2129.9454,-173 3178.5907,-173 3178.5907,-173 3178.5907,-173 3178.5907,-205.698 3178.5907,-205.698"/>
<polygon fill="#000000" stroke="#000000" points="3175.0907,-205.698 3178.5907,-215.698 3182.0907,-205.698 3175.0907,-205.698"/>
</g>
<!-- HeaderComponent  -->
<g id="node24" class="node">
<title>HeaderComponent </title>
<polygon fill="#fb8072" stroke="#000000" points="3148.7436,-252 3023.2564,-252 3023.2564,-216 3148.7436,-216 3148.7436,-252"/>
<text text-anchor="middle" x="3086" y="-229.8" font-family="Times,serif" font-size="14.00" fill="#000000">HeaderComponent </text>
</g>
<!-- ThemeModule&#45;&gt;HeaderComponent  -->
<g id="edge23" class="edge">
<title>ThemeModule&#45;&gt;HeaderComponent </title>
<path fill="none" stroke="#000000" stroke-dasharray="5,2" d="M1888.5771,-175C2114.6773,-175 3037.0938,-175 3037.0938,-175 3037.0938,-175 3037.0938,-205.9775 3037.0938,-205.9775"/>
<polygon fill="#000000" stroke="#000000" points="3033.5939,-205.9774 3037.0938,-215.9775 3040.5939,-205.9775 3033.5939,-205.9774"/>
</g>
<!-- LayoutDirectionSwitcherComponent  -->
<g id="node25" class="node">
<title>LayoutDirectionSwitcherComponent </title>
<polygon fill="#fb8072" stroke="#000000" points="3005.6186,-252 2778.3814,-252 2778.3814,-216 3005.6186,-216 3005.6186,-252"/>
<text text-anchor="middle" x="2892" y="-229.8" font-family="Times,serif" font-size="14.00" fill="#000000">LayoutDirectionSwitcherComponent </text>
</g>
<!-- ThemeModule&#45;&gt;LayoutDirectionSwitcherComponent  -->
<g id="edge24" class="edge">
<title>ThemeModule&#45;&gt;LayoutDirectionSwitcherComponent </title>
<path fill="none" stroke="#000000" stroke-dasharray="5,2" d="M1888.3308,-177C2083.8758,-177 2793.9398,-177 2793.9398,-177 2793.9398,-177 2793.9398,-205.9648 2793.9398,-205.9648"/>
<polygon fill="#000000" stroke="#000000" points="2790.4399,-205.9648 2793.9398,-215.9648 2797.4399,-205.9649 2790.4399,-205.9648"/>
</g>
<!-- NgxAuthBlockComponent  -->
<g id="node26" class="node">
<title>NgxAuthBlockComponent </title>
<polygon fill="#fb8072" stroke="#000000" points="2760.3784,-252 2589.6216,-252 2589.6216,-216 2760.3784,-216 2760.3784,-252"/>
<text text-anchor="middle" x="2675" y="-229.8" font-family="Times,serif" font-size="14.00" fill="#000000">NgxAuthBlockComponent </text>
</g>
<!-- ThemeModule&#45;&gt;NgxAuthBlockComponent  -->
<g id="edge25" class="edge">
<title>ThemeModule&#45;&gt;NgxAuthBlockComponent </title>
<path fill="none" stroke="#000000" stroke-dasharray="5,2" d="M1888.2271,-178C2057.7912,-178 2607.2646,-178 2607.2646,-178 2607.2646,-178 2607.2646,-205.973 2607.2646,-205.973"/>
<polygon fill="#000000" stroke="#000000" points="2603.7646,-205.973 2607.2646,-215.973 2610.7646,-205.973 2603.7646,-205.973"/>
</g>
<!-- NgxAuthComponent  -->
<g id="node27" class="node">
<title>NgxAuthComponent </title>
<polygon fill="#fb8072" stroke="#000000" points="2571.4362,-252 2434.5638,-252 2434.5638,-216 2571.4362,-216 2571.4362,-252"/>
<text text-anchor="middle" x="2503" y="-229.8" font-family="Times,serif" font-size="14.00" fill="#000000">NgxAuthComponent </text>
</g>
<!-- ThemeModule&#45;&gt;NgxAuthComponent  -->
<g id="edge26" class="edge">
<title>ThemeModule&#45;&gt;NgxAuthComponent </title>
<path fill="none" stroke="#000000" stroke-dasharray="5,2" d="M1888.2874,-180C2034.2213,-180 2453.9865,-180 2453.9865,-180 2453.9865,-180 2453.9865,-205.7181 2453.9865,-205.7181"/>
<polygon fill="#000000" stroke="#000000" points="2450.4866,-205.718 2453.9865,-215.7181 2457.4866,-205.7181 2450.4866,-205.718"/>
</g>
<!-- NgxLoginComponent  -->
<g id="node28" class="node">
<title>NgxLoginComponent </title>
<polygon fill="#fb8072" stroke="#000000" points="2416.3827,-252 2273.6173,-252 2273.6173,-216 2416.3827,-216 2416.3827,-252"/>
<text text-anchor="middle" x="2345" y="-229.8" font-family="Times,serif" font-size="14.00" fill="#000000">NgxLoginComponent </text>
</g>
<!-- ThemeModule&#45;&gt;NgxLoginComponent  -->
<g id="edge27" class="edge">
<title>ThemeModule&#45;&gt;NgxLoginComponent </title>
<path fill="none" stroke="#000000" stroke-dasharray="5,2" d="M1888.2615,-182C2006.2408,-182 2295.2617,-182 2295.2617,-182 2295.2617,-182 2295.2617,-205.8129 2295.2617,-205.8129"/>
<polygon fill="#000000" stroke="#000000" points="2291.7618,-205.8129 2295.2617,-215.8129 2298.7618,-205.813 2291.7618,-205.8129"/>
</g>
<!-- OneColumnLayoutComponent  -->
<g id="node29" class="node">
<title>OneColumnLayoutComponent </title>
<polygon fill="#fb8072" stroke="#000000" points="2255.4292,-252 2062.5708,-252 2062.5708,-216 2255.4292,-216 2255.4292,-252"/>
<text text-anchor="middle" x="2159" y="-229.8" font-family="Times,serif" font-size="14.00" fill="#000000">OneColumnLayoutComponent </text>
</g>
<!-- ThemeModule&#45;&gt;OneColumnLayoutComponent  -->
<g id="edge28" class="edge">
<title>ThemeModule&#45;&gt;OneColumnLayoutComponent </title>
<path fill="none" stroke="#000000" stroke-dasharray="5,2" d="M1888.3604,-184C1960.3973,-184 2085.8494,-184 2085.8494,-184 2085.8494,-184 2085.8494,-205.9489 2085.8494,-205.9489"/>
<polygon fill="#000000" stroke="#000000" points="2082.3495,-205.9488 2085.8494,-215.9489 2089.3495,-205.9489 2082.3495,-205.9488"/>
</g>
<!-- PluralPipe  -->
<g id="node30" class="node">
<title>PluralPipe </title>
<polygon fill="#fb8072" stroke="#000000" points="2044.827,-252 1967.173,-252 1967.173,-216 2044.827,-216 2044.827,-252"/>
<text text-anchor="middle" x="2006" y="-229.8" font-family="Times,serif" font-size="14.00" fill="#000000">PluralPipe </text>
</g>
<!-- ThemeModule&#45;&gt;PluralPipe  -->
<g id="edge29" class="edge">
<title>ThemeModule&#45;&gt;PluralPipe </title>
<path fill="none" stroke="#000000" stroke-dasharray="5,2" d="M1888.2843,-186C1933.0402,-186 1992.0994,-186 1992.0994,-186 1992.0994,-186 1992.0994,-205.8533 1992.0994,-205.8533"/>
<polygon fill="#000000" stroke="#000000" points="1988.5995,-205.8532 1992.0994,-215.8533 1995.5995,-205.8533 1988.5995,-205.8532"/>
</g>
<!-- RoundPipe  -->
<g id="node31" class="node">
<title>RoundPipe </title>
<polygon fill="#fb8072" stroke="#000000" points="1948.7249,-252 1867.2751,-252 1867.2751,-216 1948.7249,-216 1948.7249,-252"/>
<text text-anchor="middle" x="1908" y="-229.8" font-family="Times,serif" font-size="14.00" fill="#000000">RoundPipe </text>
</g>
<!-- ThemeModule&#45;&gt;RoundPipe  -->
<g id="edge30" class="edge">
<title>ThemeModule&#45;&gt;RoundPipe </title>
<path fill="none" stroke="#000000" stroke-dasharray="5,2" d="M1877.6745,-187.1061C1877.6745,-187.1061 1877.6745,-205.991 1877.6745,-205.991"/>
<polygon fill="#000000" stroke="#000000" points="1874.1745,-205.9909 1877.6745,-215.991 1881.1745,-205.991 1874.1745,-205.9909"/>
</g>
<!-- SampleLayoutComponent  -->
<g id="node32" class="node">
<title>SampleLayoutComponent </title>
<polygon fill="#fb8072" stroke="#000000" points="1849.4839,-252 1682.5161,-252 1682.5161,-216 1849.4839,-216 1849.4839,-252"/>
<text text-anchor="middle" x="1766" y="-229.8" font-family="Times,serif" font-size="14.00" fill="#000000">SampleLayoutComponent </text>
</g>
<!-- ThemeModule&#45;&gt;SampleLayoutComponent  -->
<g id="edge31" class="edge">
<title>ThemeModule&#45;&gt;SampleLayoutComponent </title>
<path fill="none" stroke="#000000" stroke-dasharray="5,2" d="M1819.5153,-187.1061C1819.5153,-187.1061 1819.5153,-205.991 1819.5153,-205.991"/>
<polygon fill="#000000" stroke="#000000" points="1816.0153,-205.9909 1819.5153,-215.991 1823.0153,-205.991 1816.0153,-205.9909"/>
</g>
<!-- SearchInputComponent  -->
<g id="node33" class="node">
<title>SearchInputComponent </title>
<polygon fill="#fb8072" stroke="#000000" points="1665.4713,-252 1512.5287,-252 1512.5287,-216 1665.4713,-216 1665.4713,-252"/>
<text text-anchor="middle" x="1589" y="-229.8" font-family="Times,serif" font-size="14.00" fill="#000000">SearchInputComponent </text>
</g>
<!-- ThemeModule&#45;&gt;SearchInputComponent  -->
<g id="edge32" class="edge">
<title>ThemeModule&#45;&gt;SearchInputComponent </title>
<path fill="none" stroke="#000000" stroke-dasharray="5,2" d="M1789.767,-186C1727.3813,-186 1627.875,-186 1627.875,-186 1627.875,-186 1627.875,-205.8533 1627.875,-205.8533"/>
<polygon fill="#000000" stroke="#000000" points="1624.3751,-205.8532 1627.875,-215.8533 1631.3751,-205.8533 1624.3751,-205.8532"/>
</g>
<!-- SwitcherComponent  -->
<g id="node34" class="node">
<title>SwitcherComponent </title>
<polygon fill="#fb8072" stroke="#000000" points="1494.0932,-252 1359.9068,-252 1359.9068,-216 1494.0932,-216 1494.0932,-252"/>
<text text-anchor="middle" x="1427" y="-229.8" font-family="Times,serif" font-size="14.00" fill="#000000">SwitcherComponent </text>
</g>
<!-- ThemeModule&#45;&gt;SwitcherComponent  -->
<g id="edge33" class="edge">
<title>ThemeModule&#45;&gt;SwitcherComponent </title>
<path fill="none" stroke="#000000" stroke-dasharray="5,2" d="M1789.7175,-184C1688.7642,-184 1467.875,-184 1467.875,-184 1467.875,-184 1467.875,-205.9489 1467.875,-205.9489"/>
<polygon fill="#000000" stroke="#000000" points="1464.3751,-205.9488 1467.875,-215.9489 1471.3751,-205.9489 1464.3751,-205.9488"/>
</g>
<!-- ThemeSettingsComponent  -->
<g id="node35" class="node">
<title>ThemeSettingsComponent </title>
<polygon fill="#fb8072" stroke="#000000" points="1341.3185,-252 1172.6815,-252 1172.6815,-216 1341.3185,-216 1341.3185,-252"/>
<text text-anchor="middle" x="1257" y="-229.8" font-family="Times,serif" font-size="14.00" fill="#000000">ThemeSettingsComponent </text>
</g>
<!-- ThemeModule&#45;&gt;ThemeSettingsComponent  -->
<g id="edge34" class="edge">
<title>ThemeModule&#45;&gt;ThemeSettingsComponent </title>
<path fill="none" stroke="#000000" stroke-dasharray="5,2" d="M1789.727,-182C1656.6378,-182 1299.875,-182 1299.875,-182 1299.875,-182 1299.875,-205.8129 1299.875,-205.8129"/>
<polygon fill="#000000" stroke="#000000" points="1296.3751,-205.8129 1299.875,-215.8129 1303.3751,-205.813 1296.3751,-205.8129"/>
</g>
<!-- ThemeSwitcherComponent  -->
<g id="node36" class="node">
<title>ThemeSwitcherComponent </title>
<polygon fill="#fb8072" stroke="#000000" points="1154.9656,-252 981.0344,-252 981.0344,-216 1154.9656,-216 1154.9656,-252"/>
<text text-anchor="middle" x="1068" y="-229.8" font-family="Times,serif" font-size="14.00" fill="#000000">ThemeSwitcherComponent </text>
</g>
<!-- ThemeModule&#45;&gt;ThemeSwitcherComponent  -->
<g id="edge35" class="edge">
<title>ThemeModule&#45;&gt;ThemeSwitcherComponent </title>
<path fill="none" stroke="#000000" stroke-dasharray="5,2" d="M1789.6274,-180C1626.0835,-180 1112.375,-180 1112.375,-180 1112.375,-180 1112.375,-205.7181 1112.375,-205.7181"/>
<polygon fill="#000000" stroke="#000000" points="1108.8751,-205.718 1112.375,-215.7181 1115.8751,-205.7181 1108.8751,-205.718"/>
</g>
<!-- ThemeSwitcherListComponent  -->
<g id="node37" class="node">
<title>ThemeSwitcherListComponent </title>
<polygon fill="#fb8072" stroke="#000000" points="963.7436,-252 768.2564,-252 768.2564,-216 963.7436,-216 963.7436,-252"/>
<text text-anchor="middle" x="866" y="-229.8" font-family="Times,serif" font-size="14.00" fill="#000000">ThemeSwitcherListComponent </text>
</g>
<!-- ThemeModule&#45;&gt;ThemeSwitcherListComponent  -->
<g id="edge36" class="edge">
<title>ThemeModule&#45;&gt;ThemeSwitcherListComponent </title>
<path fill="none" stroke="#000000" stroke-dasharray="5,2" d="M1789.4815,-178C1597.3586,-178 911.875,-178 911.875,-178 911.875,-178 911.875,-205.973 911.875,-205.973"/>
<polygon fill="#000000" stroke="#000000" points="908.3751,-205.973 911.875,-215.973 915.3751,-205.973 908.3751,-205.973"/>
</g>
<!-- ThreeColumnsLayoutComponent  -->
<g id="node38" class="node">
<title>ThreeColumnsLayoutComponent </title>
<polygon fill="#fb8072" stroke="#000000" points="750.6952,-252 543.3048,-252 543.3048,-216 750.6952,-216 750.6952,-252"/>
<text text-anchor="middle" x="647" y="-229.8" font-family="Times,serif" font-size="14.00" fill="#000000">ThreeColumnsLayoutComponent </text>
</g>
<!-- ThemeModule&#45;&gt;ThreeColumnsLayoutComponent  -->
<g id="edge37" class="edge">
<title>ThemeModule&#45;&gt;ThreeColumnsLayoutComponent </title>
<path fill="none" stroke="#000000" stroke-dasharray="5,2" d="M1789.4495,-177C1569.7507,-177 694.375,-177 694.375,-177 694.375,-177 694.375,-205.9648 694.375,-205.9648"/>
<polygon fill="#000000" stroke="#000000" points="690.8751,-205.9648 694.375,-215.9648 697.8751,-205.9649 690.8751,-205.9648"/>
</g>
<!-- TimingPipe  -->
<g id="node39" class="node">
<title>TimingPipe </title>
<polygon fill="#fb8072" stroke="#000000" points="524.6131,-252 439.3869,-252 439.3869,-216 524.6131,-216 524.6131,-252"/>
<text text-anchor="middle" x="482" y="-229.8" font-family="Times,serif" font-size="14.00" fill="#000000">TimingPipe </text>
</g>
<!-- ThemeModule&#45;&gt;TimingPipe  -->
<g id="edge38" class="edge">
<title>ThemeModule&#45;&gt;TimingPipe </title>
<path fill="none" stroke="#000000" stroke-dasharray="5,2" d="M1789.5026,-175C1546.6845,-175 493.1011,-175 493.1011,-175 493.1011,-175 493.1011,-205.9775 493.1011,-205.9775"/>
<polygon fill="#000000" stroke="#000000" points="489.6012,-205.9774 493.1011,-215.9775 496.6012,-205.9775 489.6012,-205.9774"/>
</g>
<!-- TinyMCEComponent  -->
<g id="node40" class="node">
<title>TinyMCEComponent </title>
<polygon fill="#fb8072" stroke="#000000" points="420.6099,-252 279.3901,-252 279.3901,-216 420.6099,-216 420.6099,-252"/>
<text text-anchor="middle" x="350" y="-229.8" font-family="Times,serif" font-size="14.00" fill="#000000">TinyMCEComponent </text>
</g>
<!-- ThemeModule&#45;&gt;TinyMCEComponent  -->
<g id="edge39" class="edge">
<title>ThemeModule&#45;&gt;TinyMCEComponent </title>
<path fill="none" stroke="#000000" stroke-dasharray="5,2" d="M1789.5137,-173C1536.7217,-173 401.375,-173 401.375,-173 401.375,-173 401.375,-205.698 401.375,-205.698"/>
<polygon fill="#000000" stroke="#000000" points="397.8751,-205.698 401.375,-215.698 404.8751,-205.698 397.8751,-205.698"/>
</g>
<!-- TwoColumnsLayoutComponent  -->
<g id="node41" class="node">
<title>TwoColumnsLayoutComponent </title>
<polygon fill="#fb8072" stroke="#000000" points="261.212,-252 60.788,-252 60.788,-216 261.212,-216 261.212,-252"/>
<text text-anchor="middle" x="161" y="-229.8" font-family="Times,serif" font-size="14.00" fill="#000000">TwoColumnsLayoutComponent </text>
</g>
<!-- ThemeModule&#45;&gt;TwoColumnsLayoutComponent  -->
<g id="edge40" class="edge">
<title>ThemeModule&#45;&gt;TwoColumnsLayoutComponent </title>
<path fill="none" stroke="#000000" stroke-dasharray="5,2" d="M1789.4759,-171C1517.1184,-171 213.875,-171 213.875,-171 213.875,-171 213.875,-205.7778 213.875,-205.7778"/>
<polygon fill="#000000" stroke="#000000" points="210.3751,-205.7778 213.875,-215.7778 217.3751,-205.7778 210.3751,-205.7778"/>
</g>
<!-- AuthService -->
<g id="node42" class="node">
<title>AuthService</title>
<ellipse fill="#fdb462" stroke="#000000" cx="83" cy="-104" rx="59.1083" ry="18"/>
<text text-anchor="middle" x="83" y="-99.8" font-family="Times,serif" font-size="14.00" fill="#000000">AuthService</text>
</g>
<!-- AuthService&#45;&gt;ThemeModule -->
<g id="edge41" class="edge">
<title>AuthService&#45;&gt;ThemeModule</title>
<path fill="none" stroke="#000000" d="M101.474,-121.4188C101.474,-140.6726 101.474,-169 101.474,-169 101.474,-169 1779.3366,-169 1779.3366,-169"/>
<polygon fill="#000000" stroke="#000000" points="1779.3366,-172.5001 1789.3366,-169 1779.3365,-165.5001 1779.3366,-172.5001"/>
</g>
</g>
</svg>
