<?xml version="1.0" encoding="UTF-8" standalone="no"?>
<!DOCTYPE svg PUBLIC "-//W3C//DTD SVG 1.1//EN"
 "http://www.w3.org/Graphics/SVG/1.1/DTD/svg11.dtd">
<!-- Generated by graphviz version 2.40.1 (20161225.0304)
 -->
<!-- Title: dependencies Pages: 1 -->
<svg width="2109pt" height="396pt"
 viewBox="0.00 0.00 2109.00 395.59" xmlns="http://www.w3.org/2000/svg" xmlns:xlink="http://www.w3.org/1999/xlink">
<g id="graph0" class="graph" transform="scale(1 1) rotate(0) translate(4 391.5901)">
<title>dependencies</title>
<polygon fill="#ffffff" stroke="transparent" points="-4,4 -4,-391.5901 2105,-391.5901 2105,4 -4,4"/>
<text text-anchor="start" x="1029.5091" y="-42.4" font-family="sans-serif" font-weight="bold" font-size="14.00" fill="#000000">Legend</text>
<polygon fill="#ffffb3" stroke="transparent" points="816.5,-10 816.5,-30 836.5,-30 836.5,-10 816.5,-10"/>
<text text-anchor="start" x="840.129" y="-15.4" font-family="sans-serif" font-size="14.00" fill="#000000"> &#160;Declarations</text>
<polygon fill="#8dd3c7" stroke="transparent" points="929.5,-10 929.5,-30 949.5,-30 949.5,-10 929.5,-10"/>
<text text-anchor="start" x="953.2251" y="-15.4" font-family="sans-serif" font-size="14.00" fill="#000000"> &#160;Module</text>
<polygon fill="#80b1d3" stroke="transparent" points="1015.5,-10 1015.5,-30 1035.5,-30 1035.5,-10 1015.5,-10"/>
<text text-anchor="start" x="1039.2812" y="-15.4" font-family="sans-serif" font-size="14.00" fill="#000000"> &#160;Bootstrap</text>
<polygon fill="#fdb462" stroke="transparent" points="1112.5,-10 1112.5,-30 1132.5,-30 1132.5,-10 1112.5,-10"/>
<text text-anchor="start" x="1136.1732" y="-15.4" font-family="sans-serif" font-size="14.00" fill="#000000"> &#160;Providers</text>
<polygon fill="#fb8072" stroke="transparent" points="1208.5,-10 1208.5,-30 1228.5,-30 1228.5,-10 1208.5,-10"/>
<text text-anchor="start" x="1232.2258" y="-15.4" font-family="sans-serif" font-size="14.00" fill="#000000"> &#160;Exports</text>
<g id="clust1" class="cluster">
<title>cluster_SchemaFormModule</title>
<polygon fill="none" stroke="#000000" stroke-dasharray="1,5" points="8,-70 8,-379.5901 2093,-379.5901 2093,-70 8,-70"/>
</g>
<g id="clust2" class="cluster">
<title>cluster_SchemaFormModule_declarations</title>
<polygon fill="none" stroke="#000000" points="16,-189.5901 16,-241.5901 2085,-241.5901 2085,-189.5901 16,-189.5901"/>
</g>
<g id="clust8" class="cluster">
<title>cluster_SchemaFormModule_FormComponent_providers</title>
<polygon fill="none" stroke="#000000" points="914,-78 914,-176.5901 2067,-176.5901 2067,-78 914,-78"/>
</g>
<g id="clust20" class="cluster">
<title>cluster_SchemaFormModule_exports</title>
<polygon fill="none" stroke="#000000" points="50,-319.5901 50,-371.5901 2051,-371.5901 2051,-319.5901 50,-319.5901"/>
</g>
<!-- ArrayWidget -->
<g id="node1" class="node">
<title>ArrayWidget</title>
<polygon fill="#ffffb3" stroke="#000000" points="2076.8529,-233.5901 1987.1471,-233.5901 1987.1471,-197.5901 2076.8529,-197.5901 2076.8529,-233.5901"/>
<text text-anchor="middle" x="2032" y="-211.3901" font-family="Times,serif" font-size="14.00" fill="#000000">ArrayWidget</text>
</g>
<!-- SchemaFormModule -->
<g id="node17" class="node">
<title>SchemaFormModule</title>
<polygon fill="#8dd3c7" stroke="#000000" points="1065.2008,-298.5901 1062.2008,-302.5901 1041.2008,-302.5901 1038.2008,-298.5901 930.7992,-298.5901 930.7992,-262.5901 1065.2008,-262.5901 1065.2008,-298.5901"/>
<text text-anchor="middle" x="998" y="-276.3901" font-family="Times,serif" font-size="14.00" fill="#000000">SchemaFormModule</text>
</g>
<!-- ArrayWidget&#45;&gt;SchemaFormModule -->
<g id="edge1" class="edge">
<title>ArrayWidget&#45;&gt;SchemaFormModule</title>
<path fill="none" stroke="#000000" d="M2014.875,-233.6962C2014.875,-252.9292 2014.875,-280.5901 2014.875,-280.5901 2014.875,-280.5901 1075.1133,-280.5901 1075.1133,-280.5901"/>
<polygon fill="#000000" stroke="#000000" points="1075.1133,-277.0902 1065.1133,-280.5901 1075.1132,-284.0902 1075.1133,-277.0902"/>
</g>
<!-- ButtonWidget -->
<g id="node2" class="node">
<title>ButtonWidget</title>
<polygon fill="#ffffb3" stroke="#000000" points="1968.8288,-233.5901 1873.1712,-233.5901 1873.1712,-197.5901 1968.8288,-197.5901 1968.8288,-233.5901"/>
<text text-anchor="middle" x="1921" y="-211.3901" font-family="Times,serif" font-size="14.00" fill="#000000">ButtonWidget</text>
</g>
<!-- ButtonWidget&#45;&gt;SchemaFormModule -->
<g id="edge2" class="edge">
<title>ButtonWidget&#45;&gt;SchemaFormModule</title>
<path fill="none" stroke="#000000" d="M1902.375,-233.8123C1902.375,-252.4186 1902.375,-278.5901 1902.375,-278.5901 1902.375,-278.5901 1075.2363,-278.5901 1075.2363,-278.5901"/>
<polygon fill="#000000" stroke="#000000" points="1075.2363,-275.0902 1065.2363,-278.5901 1075.2362,-282.0902 1075.2363,-275.0902"/>
</g>
<!-- CheckboxWidget -->
<g id="node3" class="node">
<title>CheckboxWidget</title>
<polygon fill="#ffffb3" stroke="#000000" points="1854.9762,-233.5901 1741.0238,-233.5901 1741.0238,-197.5901 1854.9762,-197.5901 1854.9762,-233.5901"/>
<text text-anchor="middle" x="1798" y="-211.3901" font-family="Times,serif" font-size="14.00" fill="#000000">CheckboxWidget</text>
</g>
<!-- CheckboxWidget&#45;&gt;SchemaFormModule -->
<g id="edge3" class="edge">
<title>CheckboxWidget&#45;&gt;SchemaFormModule</title>
<path fill="none" stroke="#000000" d="M1777.875,-233.5921C1777.875,-251.2654 1777.875,-275.5901 1777.875,-275.5901 1777.875,-275.5901 1075.1667,-275.5901 1075.1667,-275.5901"/>
<polygon fill="#000000" stroke="#000000" points="1075.1667,-272.0902 1065.1667,-275.5901 1075.1667,-279.0902 1075.1667,-272.0902"/>
</g>
<!-- DefaultWidget -->
<g id="node4" class="node">
<title>DefaultWidget</title>
<polygon fill="#ffffb3" stroke="#000000" points="1722.6882,-233.5901 1623.3118,-233.5901 1623.3118,-197.5901 1722.6882,-197.5901 1722.6882,-233.5901"/>
<text text-anchor="middle" x="1673" y="-211.3901" font-family="Times,serif" font-size="14.00" fill="#000000">DefaultWidget</text>
</g>
<!-- DefaultWidget&#45;&gt;SchemaFormModule -->
<g id="edge4" class="edge">
<title>DefaultWidget&#45;&gt;SchemaFormModule</title>
<path fill="none" stroke="#000000" d="M1651.3252,-233.6237C1651.3252,-250.6497 1651.3252,-273.5901 1651.3252,-273.5901 1651.3252,-273.5901 1075.1515,-273.5901 1075.1515,-273.5901"/>
<polygon fill="#000000" stroke="#000000" points="1075.1515,-270.0902 1065.1515,-273.5901 1075.1514,-277.0902 1075.1515,-270.0902"/>
</g>
<!-- FileWidget -->
<g id="node5" class="node">
<title>FileWidget</title>
<polygon fill="#ffffb3" stroke="#000000" points="1605.4888,-233.5901 1526.5112,-233.5901 1526.5112,-197.5901 1605.4888,-197.5901 1605.4888,-233.5901"/>
<text text-anchor="middle" x="1566" y="-211.3901" font-family="Times,serif" font-size="14.00" fill="#000000">FileWidget</text>
</g>
<!-- FileWidget&#45;&gt;SchemaFormModule -->
<g id="edge5" class="edge">
<title>FileWidget&#45;&gt;SchemaFormModule</title>
<path fill="none" stroke="#000000" d="M1552.5444,-233.5991C1552.5444,-249.6394 1552.5444,-270.5901 1552.5444,-270.5901 1552.5444,-270.5901 1075.1671,-270.5901 1075.1671,-270.5901"/>
<polygon fill="#000000" stroke="#000000" points="1075.1671,-267.0902 1065.1671,-270.5901 1075.1671,-274.0902 1075.1671,-267.0902"/>
</g>
<!-- FormComponent -->
<g id="node6" class="node">
<title>FormComponent</title>
<polygon fill="#ffffb3" stroke="#000000" points="1508.6667,-233.5901 1397.3333,-233.5901 1397.3333,-197.5901 1508.6667,-197.5901 1508.6667,-233.5901"/>
<text text-anchor="middle" x="1453" y="-211.3901" font-family="Times,serif" font-size="14.00" fill="#000000">FormComponent</text>
</g>
<!-- FormComponent&#45;&gt;SchemaFormModule -->
<g id="edge6" class="edge">
<title>FormComponent&#45;&gt;SchemaFormModule</title>
<path fill="none" stroke="#000000" d="M1421.5384,-233.8297C1421.5384,-249.1607 1421.5384,-268.5901 1421.5384,-268.5901 1421.5384,-268.5901 1075.1109,-268.5901 1075.1109,-268.5901"/>
<polygon fill="#000000" stroke="#000000" points="1075.111,-265.0902 1065.1109,-268.5901 1075.1109,-272.0902 1075.111,-265.0902"/>
</g>
<!-- FormElementComponent -->
<g id="node7" class="node">
<title>FormElementComponent</title>
<polygon fill="#ffffb3" stroke="#000000" points="1379.3201,-233.5901 1220.6799,-233.5901 1220.6799,-197.5901 1379.3201,-197.5901 1379.3201,-233.5901"/>
<text text-anchor="middle" x="1300" y="-211.3901" font-family="Times,serif" font-size="14.00" fill="#000000">FormElementComponent</text>
</g>
<!-- FormElementComponent&#45;&gt;SchemaFormModule -->
<g id="edge14" class="edge">
<title>FormElementComponent&#45;&gt;SchemaFormModule</title>
<path fill="none" stroke="#000000" d="M1243.4006,-233.6412C1243.4006,-247.9631 1243.4006,-265.5901 1243.4006,-265.5901 1243.4006,-265.5901 1075.3814,-265.5901 1075.3814,-265.5901"/>
<polygon fill="#000000" stroke="#000000" points="1075.3814,-262.0902 1065.3814,-265.5901 1075.3813,-269.0902 1075.3814,-262.0902"/>
</g>
<!-- FormElementComponentAction -->
<g id="node8" class="node">
<title>FormElementComponentAction</title>
<polygon fill="#ffffb3" stroke="#000000" points="1203.4227,-233.5901 1006.5773,-233.5901 1006.5773,-197.5901 1203.4227,-197.5901 1203.4227,-233.5901"/>
<text text-anchor="middle" x="1105" y="-211.3901" font-family="Times,serif" font-size="14.00" fill="#000000">FormElementComponentAction</text>
</g>
<!-- FormElementComponentAction&#45;&gt;SchemaFormModule -->
<g id="edge15" class="edge">
<title>FormElementComponentAction&#45;&gt;SchemaFormModule</title>
<path fill="none" stroke="#000000" d="M1035.9446,-233.6962C1035.9446,-233.6962 1035.9446,-252.581 1035.9446,-252.581"/>
<polygon fill="#000000" stroke="#000000" points="1032.4447,-252.581 1035.9446,-262.581 1039.4447,-252.5811 1032.4447,-252.581"/>
</g>
<!-- IntegerWidget -->
<g id="node9" class="node">
<title>IntegerWidget</title>
<polygon fill="#ffffb3" stroke="#000000" points="988.3515,-233.5901 891.6485,-233.5901 891.6485,-197.5901 988.3515,-197.5901 988.3515,-233.5901"/>
<text text-anchor="middle" x="940" y="-211.3901" font-family="Times,serif" font-size="14.00" fill="#000000">IntegerWidget</text>
</g>
<!-- IntegerWidget&#45;&gt;SchemaFormModule -->
<g id="edge16" class="edge">
<title>IntegerWidget&#45;&gt;SchemaFormModule</title>
<path fill="none" stroke="#000000" d="M959.6627,-233.6962C959.6627,-233.6962 959.6627,-252.581 959.6627,-252.581"/>
<polygon fill="#000000" stroke="#000000" points="956.1628,-252.581 959.6627,-262.581 963.1628,-252.5811 956.1628,-252.581"/>
</g>
<!-- ObjectWidget -->
<g id="node10" class="node">
<title>ObjectWidget</title>
<polygon fill="#ffffb3" stroke="#000000" points="873.0286,-233.5901 778.9714,-233.5901 778.9714,-197.5901 873.0286,-197.5901 873.0286,-233.5901"/>
<text text-anchor="middle" x="826" y="-211.3901" font-family="Times,serif" font-size="14.00" fill="#000000">ObjectWidget</text>
</g>
<!-- ObjectWidget&#45;&gt;SchemaFormModule -->
<g id="edge17" class="edge">
<title>ObjectWidget&#45;&gt;SchemaFormModule</title>
<path fill="none" stroke="#000000" d="M852.625,-233.6412C852.625,-247.9631 852.625,-265.5901 852.625,-265.5901 852.625,-265.5901 920.8445,-265.5901 920.8445,-265.5901"/>
<polygon fill="#000000" stroke="#000000" points="920.8445,-269.0902 930.8445,-265.5901 920.8444,-262.0902 920.8445,-269.0902"/>
</g>
<!-- RadioWidget -->
<g id="node11" class="node">
<title>RadioWidget</title>
<polygon fill="#ffffb3" stroke="#000000" points="760.1529,-233.5901 669.8471,-233.5901 669.8471,-197.5901 760.1529,-197.5901 760.1529,-233.5901"/>
<text text-anchor="middle" x="715" y="-211.3901" font-family="Times,serif" font-size="14.00" fill="#000000">RadioWidget</text>
</g>
<!-- RadioWidget&#45;&gt;SchemaFormModule -->
<g id="edge18" class="edge">
<title>RadioWidget&#45;&gt;SchemaFormModule</title>
<path fill="none" stroke="#000000" d="M740.125,-233.8297C740.125,-249.1607 740.125,-268.5901 740.125,-268.5901 740.125,-268.5901 920.5832,-268.5901 920.5832,-268.5901"/>
<polygon fill="#000000" stroke="#000000" points="920.5832,-272.0902 930.5832,-268.5901 920.5832,-265.0902 920.5832,-272.0902"/>
</g>
<!-- RangeWidget -->
<g id="node12" class="node">
<title>RangeWidget</title>
<polygon fill="#ffffb3" stroke="#000000" points="651.4762,-233.5901 558.5238,-233.5901 558.5238,-197.5901 651.4762,-197.5901 651.4762,-233.5901"/>
<text text-anchor="middle" x="605" y="-211.3901" font-family="Times,serif" font-size="14.00" fill="#000000">RangeWidget</text>
</g>
<!-- RangeWidget&#45;&gt;SchemaFormModule -->
<g id="edge19" class="edge">
<title>RangeWidget&#45;&gt;SchemaFormModule</title>
<path fill="none" stroke="#000000" d="M628.625,-233.5991C628.625,-249.6394 628.625,-270.5901 628.625,-270.5901 628.625,-270.5901 920.6804,-270.5901 920.6804,-270.5901"/>
<polygon fill="#000000" stroke="#000000" points="920.6805,-274.0902 930.6804,-270.5901 920.6804,-267.0902 920.6805,-274.0902"/>
</g>
<!-- SelectWidget -->
<g id="node13" class="node">
<title>SelectWidget</title>
<polygon fill="#ffffb3" stroke="#000000" points="540.919,-233.5901 449.081,-233.5901 449.081,-197.5901 540.919,-197.5901 540.919,-233.5901"/>
<text text-anchor="middle" x="495" y="-211.3901" font-family="Times,serif" font-size="14.00" fill="#000000">SelectWidget</text>
</g>
<!-- SelectWidget&#45;&gt;SchemaFormModule -->
<g id="edge20" class="edge">
<title>SelectWidget&#45;&gt;SchemaFormModule</title>
<path fill="none" stroke="#000000" d="M516.625,-233.6237C516.625,-250.6497 516.625,-273.5901 516.625,-273.5901 516.625,-273.5901 920.8136,-273.5901 920.8136,-273.5901"/>
<polygon fill="#000000" stroke="#000000" points="920.8137,-277.0902 930.8136,-273.5901 920.8136,-270.0902 920.8137,-277.0902"/>
</g>
<!-- StringWidget -->
<g id="node14" class="node">
<title>StringWidget</title>
<polygon fill="#ffffb3" stroke="#000000" points="431.9358,-233.5901 340.0642,-233.5901 340.0642,-197.5901 431.9358,-197.5901 431.9358,-233.5901"/>
<text text-anchor="middle" x="386" y="-211.3901" font-family="Times,serif" font-size="14.00" fill="#000000">StringWidget</text>
</g>
<!-- StringWidget&#45;&gt;SchemaFormModule -->
<g id="edge21" class="edge">
<title>StringWidget&#45;&gt;SchemaFormModule</title>
<path fill="none" stroke="#000000" d="M405.625,-233.5921C405.625,-251.2654 405.625,-275.5901 405.625,-275.5901 405.625,-275.5901 920.6238,-275.5901 920.6238,-275.5901"/>
<polygon fill="#000000" stroke="#000000" points="920.6238,-279.0902 930.6238,-275.5901 920.6238,-272.0902 920.6238,-279.0902"/>
</g>
<!-- TextAreaWidget -->
<g id="node15" class="node">
<title>TextAreaWidget</title>
<polygon fill="#ffffb3" stroke="#000000" points="322.0646,-233.5901 211.9354,-233.5901 211.9354,-197.5901 322.0646,-197.5901 322.0646,-233.5901"/>
<text text-anchor="middle" x="267" y="-211.3901" font-family="Times,serif" font-size="14.00" fill="#000000">TextAreaWidget</text>
</g>
<!-- TextAreaWidget&#45;&gt;SchemaFormModule -->
<g id="edge22" class="edge">
<title>TextAreaWidget&#45;&gt;SchemaFormModule</title>
<path fill="none" stroke="#000000" d="M285.125,-233.8123C285.125,-252.4186 285.125,-278.5901 285.125,-278.5901 285.125,-278.5901 920.6134,-278.5901 920.6134,-278.5901"/>
<polygon fill="#000000" stroke="#000000" points="920.6135,-282.0902 930.6134,-278.5901 920.6134,-275.0902 920.6135,-282.0902"/>
</g>
<!-- WidgetChooserComponent -->
<g id="node16" class="node">
<title>WidgetChooserComponent</title>
<polygon fill="#ffffb3" stroke="#000000" points="193.6993,-233.5901 24.3007,-233.5901 24.3007,-197.5901 193.6993,-197.5901 193.6993,-233.5901"/>
<text text-anchor="middle" x="109" y="-211.3901" font-family="Times,serif" font-size="14.00" fill="#000000">WidgetChooserComponent</text>
</g>
<!-- WidgetChooserComponent&#45;&gt;SchemaFormModule -->
<g id="edge23" class="edge">
<title>WidgetChooserComponent&#45;&gt;SchemaFormModule</title>
<path fill="none" stroke="#000000" d="M125.625,-233.6962C125.625,-252.9292 125.625,-280.5901 125.625,-280.5901 125.625,-280.5901 920.6338,-280.5901 920.6338,-280.5901"/>
<polygon fill="#000000" stroke="#000000" points="920.6339,-284.0902 930.6338,-280.5901 920.6338,-277.0902 920.6339,-284.0902"/>
</g>
<!-- ArrayWidget  -->
<g id="node25" class="node">
<title>ArrayWidget </title>
<polygon fill="#fb8072" stroke="#000000" points="2042.8535,-363.5901 1949.1465,-363.5901 1949.1465,-327.5901 2042.8535,-327.5901 2042.8535,-363.5901"/>
<text text-anchor="middle" x="1996" y="-341.3901" font-family="Times,serif" font-size="14.00" fill="#000000">ArrayWidget </text>
</g>
<!-- SchemaFormModule&#45;&gt;ArrayWidget  -->
<g id="edge24" class="edge">
<title>SchemaFormModule&#45;&gt;ArrayWidget </title>
<path fill="none" stroke="#000000" stroke-dasharray="5,2" d="M1065.1933,-283.5901C1283.5313,-283.5901 1958.9939,-283.5901 1958.9939,-283.5901 1958.9939,-283.5901 1958.9939,-317.3234 1958.9939,-317.3234"/>
<polygon fill="#000000" stroke="#000000" points="1955.4939,-317.3233 1958.9939,-327.3234 1962.4939,-317.3234 1955.4939,-317.3233"/>
</g>
<!-- ButtonWidget  -->
<g id="node26" class="node">
<title>ButtonWidget </title>
<polygon fill="#fb8072" stroke="#000000" points="1931.3283,-363.5901 1832.6717,-363.5901 1832.6717,-327.5901 1931.3283,-327.5901 1931.3283,-363.5901"/>
<text text-anchor="middle" x="1882" y="-341.3901" font-family="Times,serif" font-size="14.00" fill="#000000">ButtonWidget </text>
</g>
<!-- SchemaFormModule&#45;&gt;ButtonWidget  -->
<g id="edge25" class="edge">
<title>SchemaFormModule&#45;&gt;ButtonWidget </title>
<path fill="none" stroke="#000000" stroke-dasharray="5,2" d="M1065.4291,-286.5901C1265.8041,-286.5901 1843.787,-286.5901 1843.787,-286.5901 1843.787,-286.5901 1843.787,-317.5675 1843.787,-317.5675"/>
<polygon fill="#000000" stroke="#000000" points="1840.2871,-317.5675 1843.787,-327.5675 1847.2871,-317.5676 1840.2871,-317.5675"/>
</g>
<!-- CheckboxWidget  -->
<g id="node27" class="node">
<title>CheckboxWidget </title>
<polygon fill="#fb8072" stroke="#000000" points="1814.9772,-363.5901 1697.0228,-363.5901 1697.0228,-327.5901 1814.9772,-327.5901 1814.9772,-363.5901"/>
<text text-anchor="middle" x="1756" y="-341.3901" font-family="Times,serif" font-size="14.00" fill="#000000">CheckboxWidget </text>
</g>
<!-- SchemaFormModule&#45;&gt;CheckboxWidget  -->
<g id="edge26" class="edge">
<title>SchemaFormModule&#45;&gt;CheckboxWidget </title>
<path fill="none" stroke="#000000" stroke-dasharray="5,2" d="M1065.2971,-288.5901C1242.7644,-288.5901 1709.928,-288.5901 1709.928,-288.5901 1709.928,-288.5901 1709.928,-317.5549 1709.928,-317.5549"/>
<polygon fill="#000000" stroke="#000000" points="1706.428,-317.5549 1709.928,-327.5549 1713.428,-317.555 1706.428,-317.5549"/>
</g>
<!-- FileWidget  -->
<g id="node28" class="node">
<title>FileWidget </title>
<polygon fill="#fb8072" stroke="#000000" points="1679.4903,-363.5901 1596.5097,-363.5901 1596.5097,-327.5901 1679.4903,-327.5901 1679.4903,-363.5901"/>
<text text-anchor="middle" x="1638" y="-341.3901" font-family="Times,serif" font-size="14.00" fill="#000000">FileWidget </text>
</g>
<!-- SchemaFormModule&#45;&gt;FileWidget  -->
<g id="edge27" class="edge">
<title>SchemaFormModule&#45;&gt;FileWidget </title>
<path fill="none" stroke="#000000" stroke-dasharray="5,2" d="M1065.1397,-291.5901C1222.3472,-291.5901 1601.125,-291.5901 1601.125,-291.5901 1601.125,-291.5901 1601.125,-317.3081 1601.125,-317.3081"/>
<polygon fill="#000000" stroke="#000000" points="1597.6251,-317.3081 1601.125,-327.3081 1604.6251,-317.3082 1597.6251,-317.3081"/>
</g>
<!-- FormComponent  -->
<g id="node29" class="node">
<title>FormComponent </title>
<polygon fill="#fb8072" stroke="#000000" points="1578.6663,-363.5901 1463.3337,-363.5901 1463.3337,-327.5901 1578.6663,-327.5901 1578.6663,-363.5901"/>
<text text-anchor="middle" x="1521" y="-341.3901" font-family="Times,serif" font-size="14.00" fill="#000000">FormComponent </text>
</g>
<!-- SchemaFormModule&#45;&gt;FormComponent  -->
<g id="edge28" class="edge">
<title>SchemaFormModule&#45;&gt;FormComponent </title>
<path fill="none" stroke="#000000" stroke-dasharray="5,2" d="M1065.1035,-293.5901C1198.8992,-293.5901 1486.125,-293.5901 1486.125,-293.5901 1486.125,-293.5901 1486.125,-317.403 1486.125,-317.403"/>
<polygon fill="#000000" stroke="#000000" points="1482.6251,-317.403 1486.125,-327.403 1489.6251,-317.403 1482.6251,-317.403"/>
</g>
<!-- FormElementComponent  -->
<g id="node30" class="node">
<title>FormElementComponent </title>
<polygon fill="#fb8072" stroke="#000000" points="1445.8199,-363.5901 1284.1801,-363.5901 1284.1801,-327.5901 1445.8199,-327.5901 1445.8199,-363.5901"/>
<text text-anchor="middle" x="1365" y="-341.3901" font-family="Times,serif" font-size="14.00" fill="#000000">FormElementComponent </text>
</g>
<!-- SchemaFormModule&#45;&gt;FormElementComponent  -->
<g id="edge29" class="edge">
<title>SchemaFormModule&#45;&gt;FormElementComponent </title>
<path fill="none" stroke="#000000" stroke-dasharray="5,2" d="M1065.1127,-296.5901C1162.5366,-296.5901 1331.625,-296.5901 1331.625,-296.5901 1331.625,-296.5901 1331.625,-317.3443 1331.625,-317.3443"/>
<polygon fill="#000000" stroke="#000000" points="1328.1251,-317.3442 1331.625,-327.3443 1335.1251,-317.3443 1328.1251,-317.3442"/>
</g>
<!-- FormElementComponentAction  -->
<g id="node31" class="node">
<title>FormElementComponentAction </title>
<polygon fill="#fb8072" stroke="#000000" points="1265.9222,-363.5901 1066.0778,-363.5901 1066.0778,-327.5901 1265.9222,-327.5901 1265.9222,-363.5901"/>
<text text-anchor="middle" x="1166" y="-341.3901" font-family="Times,serif" font-size="14.00" fill="#000000">FormElementComponentAction </text>
</g>
<!-- SchemaFormModule&#45;&gt;FormElementComponentAction  -->
<g id="edge30" class="edge">
<title>SchemaFormModule&#45;&gt;FormElementComponentAction </title>
<path fill="none" stroke="#000000" stroke-dasharray="5,2" d="M1056.638,-298.6962C1056.638,-317.9292 1056.638,-345.5901 1056.638,-345.5901 1056.638,-345.5901 1057.5704,-345.5901 1057.5704,-345.5901"/>
<polygon fill="#000000" stroke="#000000" points="1055.9622,-349.0902 1065.9621,-345.5901 1055.9621,-342.0902 1055.9622,-349.0902"/>
</g>
<!-- IntegerWidget  -->
<g id="node32" class="node">
<title>IntegerWidget </title>
<polygon fill="#fb8072" stroke="#000000" points="1048.352,-363.5901 947.648,-363.5901 947.648,-327.5901 1048.352,-327.5901 1048.352,-363.5901"/>
<text text-anchor="middle" x="998" y="-341.3901" font-family="Times,serif" font-size="14.00" fill="#000000">IntegerWidget </text>
</g>
<!-- SchemaFormModule&#45;&gt;IntegerWidget  -->
<g id="edge31" class="edge">
<title>SchemaFormModule&#45;&gt;IntegerWidget </title>
<path fill="none" stroke="#000000" stroke-dasharray="5,2" d="M998,-298.6962C998,-298.6962 998,-317.581 998,-317.581"/>
<polygon fill="#000000" stroke="#000000" points="994.5001,-317.581 998,-327.581 1001.5001,-317.5811 994.5001,-317.581"/>
</g>
<!-- ObjectWidget  -->
<g id="node33" class="node">
<title>ObjectWidget </title>
<polygon fill="#fb8072" stroke="#000000" points="930.0274,-363.5901 831.9726,-363.5901 831.9726,-327.5901 930.0274,-327.5901 930.0274,-363.5901"/>
<text text-anchor="middle" x="881" y="-341.3901" font-family="Times,serif" font-size="14.00" fill="#000000">ObjectWidget </text>
</g>
<!-- SchemaFormModule&#45;&gt;ObjectWidget  -->
<g id="edge32" class="edge">
<title>SchemaFormModule&#45;&gt;ObjectWidget </title>
<path fill="none" stroke="#000000" stroke-dasharray="5,2" d="M939.362,-298.6962C939.362,-317.9292 939.362,-345.5901 939.362,-345.5901 939.362,-345.5901 938.4501,-345.5901 938.4501,-345.5901"/>
<polygon fill="#000000" stroke="#000000" points="940.243,-342.0902 930.2429,-345.5901 940.2429,-349.0902 940.243,-342.0902"/>
</g>
<!-- RadioWidget  -->
<g id="node34" class="node">
<title>RadioWidget </title>
<polygon fill="#fb8072" stroke="#000000" points="814.1523,-363.5901 719.8477,-363.5901 719.8477,-327.5901 814.1523,-327.5901 814.1523,-363.5901"/>
<text text-anchor="middle" x="767" y="-341.3901" font-family="Times,serif" font-size="14.00" fill="#000000">RadioWidget </text>
</g>
<!-- SchemaFormModule&#45;&gt;RadioWidget  -->
<g id="edge33" class="edge">
<title>SchemaFormModule&#45;&gt;RadioWidget </title>
<path fill="none" stroke="#000000" stroke-dasharray="5,2" d="M930.8722,-296.5901C872.2284,-296.5901 796.4062,-296.5901 796.4062,-296.5901 796.4062,-296.5901 796.4062,-317.3443 796.4062,-317.3443"/>
<polygon fill="#000000" stroke="#000000" points="792.9063,-317.3442 796.4062,-327.3443 799.9063,-317.3443 792.9063,-317.3442"/>
</g>
<!-- RangeWidget  -->
<g id="node35" class="node">
<title>RangeWidget </title>
<polygon fill="#fb8072" stroke="#000000" points="702.4774,-363.5901 605.5226,-363.5901 605.5226,-327.5901 702.4774,-327.5901 702.4774,-363.5901"/>
<text text-anchor="middle" x="654" y="-341.3901" font-family="Times,serif" font-size="14.00" fill="#000000">RangeWidget </text>
</g>
<!-- SchemaFormModule&#45;&gt;RangeWidget  -->
<g id="edge34" class="edge">
<title>SchemaFormModule&#45;&gt;RangeWidget </title>
<path fill="none" stroke="#000000" stroke-dasharray="5,2" d="M930.6753,-293.5901C838.9429,-293.5901 685.956,-293.5901 685.956,-293.5901 685.956,-293.5901 685.956,-317.403 685.956,-317.403"/>
<polygon fill="#000000" stroke="#000000" points="682.4561,-317.403 685.956,-327.403 689.4561,-317.403 682.4561,-317.403"/>
</g>
<!-- SelectWidget  -->
<g id="node36" class="node">
<title>SelectWidget </title>
<polygon fill="#fb8072" stroke="#000000" points="587.418,-363.5901 492.582,-363.5901 492.582,-327.5901 587.418,-327.5901 587.418,-363.5901"/>
<text text-anchor="middle" x="540" y="-341.3901" font-family="Times,serif" font-size="14.00" fill="#000000">SelectWidget </text>
</g>
<!-- SchemaFormModule&#45;&gt;SelectWidget  -->
<g id="edge35" class="edge">
<title>SchemaFormModule&#45;&gt;SelectWidget </title>
<path fill="none" stroke="#000000" stroke-dasharray="5,2" d="M930.6552,-291.5901C810.8126,-291.5901 572.9855,-291.5901 572.9855,-291.5901 572.9855,-291.5901 572.9855,-317.3081 572.9855,-317.3081"/>
<polygon fill="#000000" stroke="#000000" points="569.4855,-317.3081 572.9855,-327.3081 576.4855,-317.3082 569.4855,-317.3081"/>
</g>
<!-- StringWidget  -->
<g id="node37" class="node">
<title>StringWidget </title>
<polygon fill="#fb8072" stroke="#000000" points="474.4348,-363.5901 379.5652,-363.5901 379.5652,-327.5901 474.4348,-327.5901 474.4348,-363.5901"/>
<text text-anchor="middle" x="427" y="-341.3901" font-family="Times,serif" font-size="14.00" fill="#000000">StringWidget </text>
</g>
<!-- SchemaFormModule&#45;&gt;StringWidget  -->
<g id="edge36" class="edge">
<title>SchemaFormModule&#45;&gt;StringWidget </title>
<path fill="none" stroke="#000000" stroke-dasharray="5,2" d="M930.6428,-288.5901C786.6518,-288.5901 461.8792,-288.5901 461.8792,-288.5901 461.8792,-288.5901 461.8792,-317.5549 461.8792,-317.5549"/>
<polygon fill="#000000" stroke="#000000" points="458.3793,-317.5549 461.8792,-327.5549 465.3793,-317.555 458.3793,-317.5549"/>
</g>
<!-- TextAreaWidget  -->
<g id="node38" class="node">
<title>TextAreaWidget </title>
<polygon fill="#fb8072" stroke="#000000" points="361.5654,-363.5901 248.4346,-363.5901 248.4346,-327.5901 361.5654,-327.5901 361.5654,-363.5901"/>
<text text-anchor="middle" x="305" y="-341.3901" font-family="Times,serif" font-size="14.00" fill="#000000">TextAreaWidget </text>
</g>
<!-- SchemaFormModule&#45;&gt;TextAreaWidget  -->
<g id="edge37" class="edge">
<title>SchemaFormModule&#45;&gt;TextAreaWidget </title>
<path fill="none" stroke="#000000" stroke-dasharray="5,2" d="M930.8972,-286.5901C765.395,-286.5901 351.0324,-286.5901 351.0324,-286.5901 351.0324,-286.5901 351.0324,-317.5675 351.0324,-317.5675"/>
<polygon fill="#000000" stroke="#000000" points="347.5324,-317.5676 351.0325,-327.5675 354.5324,-317.5675 347.5324,-317.5676"/>
</g>
<!-- WidgetChooserComponent  -->
<g id="node39" class="node">
<title>WidgetChooserComponent </title>
<polygon fill="#fb8072" stroke="#000000" points="230.1995,-363.5901 57.8005,-363.5901 57.8005,-327.5901 230.1995,-327.5901 230.1995,-363.5901"/>
<text text-anchor="middle" x="144" y="-341.3901" font-family="Times,serif" font-size="14.00" fill="#000000">WidgetChooserComponent </text>
</g>
<!-- SchemaFormModule&#45;&gt;WidgetChooserComponent  -->
<g id="edge38" class="edge">
<title>SchemaFormModule&#45;&gt;WidgetChooserComponent </title>
<path fill="none" stroke="#000000" stroke-dasharray="5,2" d="M930.7573,-283.5901C742.0397,-283.5901 221.1586,-283.5901 221.1586,-283.5901 221.1586,-283.5901 221.1586,-317.3234 221.1586,-317.3234"/>
<polygon fill="#000000" stroke="#000000" points="217.6586,-317.3234 221.1587,-327.3234 224.6586,-317.3233 217.6586,-317.3234"/>
</g>
<!-- ActionRegistry -->
<g id="node18" class="node">
<title>ActionRegistry</title>
<ellipse fill="#fdb462" stroke="#000000" cx="1989" cy="-127.295" rx="70.0809" ry="18"/>
<text text-anchor="middle" x="1989" y="-123.095" font-family="Times,serif" font-size="14.00" fill="#000000">ActionRegistry</text>
</g>
<!-- ActionRegistry&#45;&gt;FormComponent -->
<g id="edge7" class="edge">
<title>ActionRegistry&#45;&gt;FormComponent</title>
<path fill="none" stroke="#000000" d="M1943.8118,-141.1785C1943.8118,-149.9315 1943.8118,-159.5901 1943.8118,-159.5901 1943.8118,-159.5901 1494.8748,-159.5901 1494.8748,-159.5901 1494.8748,-159.5901 1494.8748,-187.5631 1494.8748,-187.5631"/>
<polygon fill="#000000" stroke="#000000" points="1491.3749,-187.563 1494.8748,-197.5631 1498.3749,-187.5631 1491.3749,-187.563"/>
</g>
<!-- ValidatorRegistry -->
<g id="node19" class="node">
<title>ValidatorRegistry</title>
<ellipse fill="#fdb462" stroke="#000000" cx="1821" cy="-127.295" rx="80.4519" ry="18"/>
<text text-anchor="middle" x="1821" y="-123.095" font-family="Times,serif" font-size="14.00" fill="#000000">ValidatorRegistry</text>
</g>
<!-- ValidatorRegistry&#45;&gt;FormComponent -->
<g id="edge8" class="edge">
<title>ValidatorRegistry&#45;&gt;FormComponent</title>
<path fill="none" stroke="#000000" d="M1798,-144.7314C1798,-150.5542 1798,-155.5901 1798,-155.5901 1798,-155.5901 1480.9166,-155.5901 1480.9166,-155.5901 1480.9166,-155.5901 1480.9166,-187.5881 1480.9166,-187.5881"/>
<polygon fill="#000000" stroke="#000000" points="1477.4166,-187.5881 1480.9166,-197.5881 1484.4166,-187.5881 1477.4166,-187.5881"/>
</g>
<!-- SchemaPreprocessor -->
<g id="node20" class="node">
<title>SchemaPreprocessor</title>
<ellipse fill="#fdb462" stroke="#000000" cx="1631" cy="-127.295" rx="91.45" ry="18"/>
<text text-anchor="middle" x="1631" y="-123.095" font-family="Times,serif" font-size="14.00" fill="#000000">SchemaPreprocessor</text>
</g>
<!-- SchemaPreprocessor&#45;&gt;FormComponent -->
<g id="edge9" class="edge">
<title>SchemaPreprocessor&#45;&gt;FormComponent</title>
<path fill="none" stroke="#000000" d="M1572.5097,-141.3833C1572.5097,-146.2891 1572.5097,-150.5901 1572.5097,-150.5901 1572.5097,-150.5901 1466.9583,-150.5901 1466.9583,-150.5901 1466.9583,-150.5901 1466.9583,-187.4839 1466.9583,-187.4839"/>
<polygon fill="#000000" stroke="#000000" points="1463.4584,-187.4839 1466.9583,-197.4839 1470.4584,-187.484 1463.4584,-187.4839"/>
</g>
<!-- WidgetFactory -->
<g id="node21" class="node">
<title>WidgetFactory</title>
<ellipse fill="#fdb462" stroke="#000000" cx="1453" cy="-127.295" rx="68.9197" ry="18"/>
<text text-anchor="middle" x="1453" y="-123.095" font-family="Times,serif" font-size="14.00" fill="#000000">WidgetFactory</text>
</g>
<!-- WidgetFactory&#45;&gt;FormComponent -->
<g id="edge10" class="edge">
<title>WidgetFactory&#45;&gt;FormComponent</title>
<path fill="none" stroke="#000000" d="M1453,-145.5898C1453,-145.5898 1453,-187.3187 1453,-187.3187"/>
<polygon fill="#000000" stroke="#000000" points="1449.5001,-187.3187 1453,-197.3187 1456.5001,-187.3188 1449.5001,-187.3187"/>
</g>
<!-- {
 &#160;&#160;&#160;: , : , : [, ]
} -->
<g id="node22" class="node">
<title>{
 &#160;&#160;&#160;: , : , : [, ]
}</title>
<ellipse fill="#fdb462" stroke="#000000" cx="1308" cy="-127.295" rx="58.1632" ry="41.0911"/>
<text text-anchor="middle" x="1308" y="-139.895" font-family="Times,serif" font-size="14.00" fill="#000000">{</text>
<text text-anchor="middle" x="1308" y="-123.095" font-family="Times,serif" font-size="14.00" fill="#000000"> &#160;&#160;&#160;: , : , : [, ]</text>
<text text-anchor="middle" x="1308" y="-106.295" font-family="Times,serif" font-size="14.00" fill="#000000">}</text>
</g>
<!-- {
 &#160;&#160;&#160;: , : , : [, ]
}&#45;&gt;FormComponent -->
<g id="edge11" class="edge">
<title>{
 &#160;&#160;&#160;: , : , : [, ]
}&#45;&gt;FormComponent</title>
<path fill="none" stroke="#000000" d="M1333.2662,-164.5901C1371.3454,-164.5901 1439.0417,-164.5901 1439.0417,-164.5901 1439.0417,-164.5901 1439.0417,-187.4658 1439.0417,-187.4658"/>
<polygon fill="#000000" stroke="#000000" points="1435.5418,-187.4657 1439.0417,-197.4658 1442.5418,-187.4658 1435.5418,-187.4657"/>
</g>
<!-- TerminatorService -->
<g id="node23" class="node">
<title>TerminatorService</title>
<ellipse fill="#fdb462" stroke="#000000" cx="1148" cy="-127.295" rx="83.3616" ry="18"/>
<text text-anchor="middle" x="1148" y="-123.095" font-family="Times,serif" font-size="14.00" fill="#000000">TerminatorService</text>
</g>
<!-- TerminatorService&#45;&gt;FormComponent -->
<g id="edge12" class="edge">
<title>TerminatorService&#45;&gt;FormComponent</title>
<path fill="none" stroke="#000000" d="M1226.1354,-134.001C1226.1354,-147.9051 1226.1354,-178.5901 1226.1354,-178.5901 1226.1354,-178.5901 1425.0835,-178.5901 1425.0835,-178.5901 1425.0835,-178.5901 1425.0835,-187.5236 1425.0835,-187.5236"/>
<polygon fill="#000000" stroke="#000000" points="1421.5835,-187.5236 1425.0835,-197.5236 1428.5835,-187.5237 1421.5835,-187.5236"/>
</g>
<!-- {
 &#160;&#160;&#160;: , : , : true
} -->
<g id="node24" class="node">
<title>{
 &#160;&#160;&#160;: , : , : true
}</title>
<ellipse fill="#fdb462" stroke="#000000" cx="984" cy="-127.295" rx="62.3631" ry="41.0911"/>
<text text-anchor="middle" x="984" y="-139.895" font-family="Times,serif" font-size="14.00" fill="#000000">{</text>
<text text-anchor="middle" x="984" y="-123.095" font-family="Times,serif" font-size="14.00" fill="#000000"> &#160;&#160;&#160;: , : , : true</text>
<text text-anchor="middle" x="984" y="-106.295" font-family="Times,serif" font-size="14.00" fill="#000000">}</text>
</g>
<!-- {
 &#160;&#160;&#160;: , : , : true
}&#45;&gt;FormComponent -->
<g id="edge13" class="edge">
<title>{
 &#160;&#160;&#160;: , : , : true
}&#45;&gt;FormComponent</title>
<path fill="none" stroke="#000000" d="M1026.4851,-157.5834C1026.4851,-173.0259 1026.4851,-188.5901 1026.4851,-188.5901 1026.4851,-188.5901 1411.1252,-188.5901 1411.1252,-188.5901 1411.1252,-188.5901 1411.1252,-189.4742 1411.1252,-189.4742"/>
<polygon fill="#000000" stroke="#000000" points="1407.6253,-187.4308 1411.1252,-197.4309 1414.6253,-187.4309 1407.6253,-187.4308"/>
</g>
</g>
</svg>
