<?xml version="1.0" encoding="UTF-8" standalone="no"?>
<!DOCTYPE svg PUBLIC "-//W3C//DTD SVG 1.1//EN"
 "http://www.w3.org/Graphics/SVG/1.1/DTD/svg11.dtd">
<!-- Generated by graphviz version 2.40.1 (20161225.0304)
 -->
<!-- Title: dependencies Pages: 1 -->
<svg width="1106pt" height="211pt"
 viewBox="0.00 0.00 1106.00 211.00" xmlns="http://www.w3.org/2000/svg" xmlns:xlink="http://www.w3.org/1999/xlink">
<g id="graph0" class="graph" transform="scale(1 1) rotate(0) translate(4 207)">
<title>dependencies</title>
<polygon fill="#ffffff" stroke="transparent" points="-4,4 -4,-207 1102,-207 1102,4 -4,4"/>
<text text-anchor="start" x="528.0091" y="-42.4" font-family="sans-serif" font-weight="bold" font-size="14.00" fill="#000000">Legend</text>
<polygon fill="#ffffb3" stroke="transparent" points="315,-10 315,-30 335,-30 335,-10 315,-10"/>
<text text-anchor="start" x="338.629" y="-15.4" font-family="sans-serif" font-size="14.00" fill="#000000"> &#160;Declarations</text>
<polygon fill="#8dd3c7" stroke="transparent" points="428,-10 428,-30 448,-30 448,-10 428,-10"/>
<text text-anchor="start" x="451.7251" y="-15.4" font-family="sans-serif" font-size="14.00" fill="#000000"> &#160;Module</text>
<polygon fill="#80b1d3" stroke="transparent" points="514,-10 514,-30 534,-30 534,-10 514,-10"/>
<text text-anchor="start" x="537.7812" y="-15.4" font-family="sans-serif" font-size="14.00" fill="#000000"> &#160;Bootstrap</text>
<polygon fill="#fdb462" stroke="transparent" points="611,-10 611,-30 631,-30 631,-10 611,-10"/>
<text text-anchor="start" x="634.6732" y="-15.4" font-family="sans-serif" font-size="14.00" fill="#000000"> &#160;Providers</text>
<polygon fill="#fb8072" stroke="transparent" points="707,-10 707,-30 727,-30 727,-10 707,-10"/>
<text text-anchor="start" x="730.7258" y="-15.4" font-family="sans-serif" font-size="14.00" fill="#000000"> &#160;Exports</text>
<g id="clust1" class="cluster">
<title>cluster_CoreModule</title>
<polygon fill="none" stroke="#000000" stroke-dasharray="1,5" points="8,-70 8,-195 1090,-195 1090,-70 8,-70"/>
</g>
<g id="clust6" class="cluster">
<title>cluster_CoreModule_providers</title>
<polygon fill="none" stroke="#000000" points="16,-78 16,-130 1082,-130 1082,-78 16,-78"/>
</g>
<!-- ApiConfigReaderService -->
<g id="node1" class="node">
<title>ApiConfigReaderService</title>
<ellipse fill="#fdb462" stroke="#000000" cx="965" cy="-104" rx="108.7864" ry="18"/>
<text text-anchor="middle" x="965" y="-99.8" font-family="Times,serif" font-size="14.00" fill="#000000">ApiConfigReaderService</text>
</g>
<!-- CoreModule -->
<g id="node6" class="node">
<title>CoreModule</title>
<polygon fill="#8dd3c7" stroke="#000000" points="563.2619,-187 560.2619,-191 539.2619,-191 536.2619,-187 476.7381,-187 476.7381,-151 563.2619,-151 563.2619,-187"/>
<text text-anchor="middle" x="520" y="-164.8" font-family="Times,serif" font-size="14.00" fill="#000000">CoreModule</text>
</g>
<!-- ApiConfigReaderService&#45;&gt;CoreModule -->
<g id="edge1" class="edge">
<title>ApiConfigReaderService&#45;&gt;CoreModule</title>
<path fill="none" stroke="#000000" d="M965,-122.2843C965,-143.3211 965,-175 965,-175 965,-175 573.4787,-175 573.4787,-175"/>
<polygon fill="#000000" stroke="#000000" points="573.4787,-171.5001 563.4787,-175 573.4787,-178.5001 573.4787,-171.5001"/>
</g>
<!-- ApiDataProviderService -->
<g id="node2" class="node">
<title>ApiDataProviderService</title>
<ellipse fill="#fdb462" stroke="#000000" cx="732" cy="-104" rx="105.915" ry="18"/>
<text text-anchor="middle" x="732" y="-99.8" font-family="Times,serif" font-size="14.00" fill="#000000">ApiDataProviderService</text>
</g>
<!-- ApiDataProviderService&#45;&gt;CoreModule -->
<g id="edge2" class="edge">
<title>ApiDataProviderService&#45;&gt;CoreModule</title>
<path fill="none" stroke="#000000" d="M732,-122.0225C732,-139.3734 732,-163 732,-163 732,-163 573.4129,-163 573.4129,-163"/>
<polygon fill="#000000" stroke="#000000" points="573.413,-159.5001 563.4129,-163 573.4129,-166.5001 573.413,-159.5001"/>
</g>
<!-- FormLoaderService -->
<g id="node3" class="node">
<title>FormLoaderService</title>
<ellipse fill="#fdb462" stroke="#000000" cx="520" cy="-104" rx="88.021" ry="18"/>
<text text-anchor="middle" x="520" y="-99.8" font-family="Times,serif" font-size="14.00" fill="#000000">FormLoaderService</text>
</g>
<!-- FormLoaderService&#45;&gt;CoreModule -->
<g id="edge3" class="edge">
<title>FormLoaderService&#45;&gt;CoreModule</title>
<path fill="none" stroke="#000000" d="M520,-122.1061C520,-122.1061 520,-140.991 520,-140.991"/>
<polygon fill="#000000" stroke="#000000" points="516.5001,-140.9909 520,-150.991 523.5001,-140.991 516.5001,-140.9909"/>
</g>
<!-- MenuLoaderService -->
<g id="node4" class="node">
<title>MenuLoaderService</title>
<ellipse fill="#fdb462" stroke="#000000" cx="324" cy="-104" rx="89.7286" ry="18"/>
<text text-anchor="middle" x="324" y="-99.8" font-family="Times,serif" font-size="14.00" fill="#000000">MenuLoaderService</text>
</g>
<!-- MenuLoaderService&#45;&gt;CoreModule -->
<g id="edge4" class="edge">
<title>MenuLoaderService&#45;&gt;CoreModule</title>
<path fill="none" stroke="#000000" d="M324,-122.0225C324,-139.3734 324,-163 324,-163 324,-163 466.5012,-163 466.5012,-163"/>
<polygon fill="#000000" stroke="#000000" points="466.5013,-166.5001 476.5012,-163 466.5012,-159.5001 466.5013,-166.5001"/>
</g>
<!-- PageTitleTagsService -->
<g id="node5" class="node">
<title>PageTitleTagsService</title>
<ellipse fill="#fdb462" stroke="#000000" cx="120" cy="-104" rx="95.5394" ry="18"/>
<text text-anchor="middle" x="120" y="-99.8" font-family="Times,serif" font-size="14.00" fill="#000000">PageTitleTagsService</text>
</g>
<!-- PageTitleTagsService&#45;&gt;CoreModule -->
<g id="edge5" class="edge">
<title>PageTitleTagsService&#45;&gt;CoreModule</title>
<path fill="none" stroke="#000000" d="M120,-122.2843C120,-143.3211 120,-175 120,-175 120,-175 466.4315,-175 466.4315,-175"/>
<polygon fill="#000000" stroke="#000000" points="466.4316,-178.5001 476.4315,-175 466.4315,-171.5001 466.4316,-178.5001"/>
</g>
</g>
</svg>
