<?xml version="1.0" encoding="UTF-8" standalone="no"?>
<!DOCTYPE svg PUBLIC "-//W3C//DTD SVG 1.1//EN"
 "http://www.w3.org/Graphics/SVG/1.1/DTD/svg11.dtd">
<!-- Generated by graphviz version 2.40.1 (20161225.0304)
 -->
<!-- Title: dependencies Pages: 1 -->
<svg width="1977pt" height="284pt"
 viewBox="0.00 0.00 1977.00 284.00" xmlns="http://www.w3.org/2000/svg" xmlns:xlink="http://www.w3.org/1999/xlink">
<g id="graph0" class="graph" transform="scale(1 1) rotate(0) translate(4 280)">
<title>dependencies</title>
<polygon fill="#ffffff" stroke="transparent" points="-4,4 -4,-280 1973,-280 1973,4 -4,4"/>
<text text-anchor="start" x="963.5091" y="-42.4" font-family="sans-serif" font-weight="bold" font-size="14.00" fill="#000000">Legend</text>
<polygon fill="#ffffb3" stroke="transparent" points="750.5,-10 750.5,-30 770.5,-30 770.5,-10 750.5,-10"/>
<text text-anchor="start" x="774.129" y="-15.4" font-family="sans-serif" font-size="14.00" fill="#000000"> &#160;Declarations</text>
<polygon fill="#8dd3c7" stroke="transparent" points="863.5,-10 863.5,-30 883.5,-30 883.5,-10 863.5,-10"/>
<text text-anchor="start" x="887.2251" y="-15.4" font-family="sans-serif" font-size="14.00" fill="#000000"> &#160;Module</text>
<polygon fill="#80b1d3" stroke="transparent" points="949.5,-10 949.5,-30 969.5,-30 969.5,-10 949.5,-10"/>
<text text-anchor="start" x="973.2812" y="-15.4" font-family="sans-serif" font-size="14.00" fill="#000000"> &#160;Bootstrap</text>
<polygon fill="#fdb462" stroke="transparent" points="1046.5,-10 1046.5,-30 1066.5,-30 1066.5,-10 1046.5,-10"/>
<text text-anchor="start" x="1070.1732" y="-15.4" font-family="sans-serif" font-size="14.00" fill="#000000"> &#160;Providers</text>
<polygon fill="#fb8072" stroke="transparent" points="1142.5,-10 1142.5,-30 1162.5,-30 1162.5,-10 1142.5,-10"/>
<text text-anchor="start" x="1166.2258" y="-15.4" font-family="sans-serif" font-size="14.00" fill="#000000"> &#160;Exports</text>
<g id="clust1" class="cluster">
<title>cluster_NgxSchemaPageModule</title>
<polygon fill="none" stroke="#000000" stroke-dasharray="1,5" points="8,-70 8,-268 1961,-268 1961,-70 8,-70"/>
</g>
<g id="clust2" class="cluster">
<title>cluster_NgxSchemaPageModule_declarations</title>
<polygon fill="none" stroke="#000000" points="792,-78 792,-130 1953,-130 1953,-78 792,-78"/>
</g>
<g id="clust11" class="cluster">
<title>cluster_NgxSchemaPageModule_imports</title>
<polygon fill="none" stroke="#000000" points="408,-78 408,-130 784,-130 784,-78 408,-78"/>
</g>
<g id="clust12" class="cluster">
<title>cluster_NgxSchemaPageModule_exports</title>
<polygon fill="none" stroke="#000000" points="412,-208 412,-260 1600,-260 1600,-208 412,-208"/>
</g>
<g id="clust14" class="cluster">
<title>cluster_NgxSchemaPageModule_providers</title>
<polygon fill="none" stroke="#000000" points="16,-78 16,-130 400,-130 400,-78 16,-78"/>
</g>
<!-- DataTableWidget -->
<g id="node1" class="node">
<title>DataTableWidget</title>
<polygon fill="#ffffb3" stroke="#000000" points="1944.5102,-122 1829.4898,-122 1829.4898,-86 1944.5102,-86 1944.5102,-122"/>
<text text-anchor="middle" x="1887" y="-99.8" font-family="Times,serif" font-size="14.00" fill="#000000">DataTableWidget</text>
</g>
<!-- NgxSchemaPageModule -->
<g id="node9" class="node">
<title>NgxSchemaPageModule</title>
<polygon fill="#8dd3c7" stroke="#000000" points="1116.6853,-187 1113.6853,-191 1092.6853,-191 1089.6853,-187 961.3147,-187 961.3147,-151 1116.6853,-151 1116.6853,-187"/>
<text text-anchor="middle" x="1039" y="-164.8" font-family="Times,serif" font-size="14.00" fill="#000000">NgxSchemaPageModule</text>
</g>
<!-- DataTableWidget&#45;&gt;NgxSchemaPageModule -->
<g id="edge1" class="edge">
<title>DataTableWidget&#45;&gt;NgxSchemaPageModule</title>
<path fill="none" stroke="#000000" d="M1887,-122.308C1887,-142.1455 1887,-171 1887,-171 1887,-171 1126.8797,-171 1126.8797,-171"/>
<polygon fill="#000000" stroke="#000000" points="1126.8797,-167.5001 1116.8797,-171 1126.8797,-174.5001 1126.8797,-167.5001"/>
</g>
<!-- DefaultWidget -->
<g id="node2" class="node">
<title>DefaultWidget</title>
<polygon fill="#ffffb3" stroke="#000000" points="1811.6882,-122 1712.3118,-122 1712.3118,-86 1811.6882,-86 1811.6882,-122"/>
<text text-anchor="middle" x="1762" y="-99.8" font-family="Times,serif" font-size="14.00" fill="#000000">DefaultWidget</text>
</g>
<!-- DefaultWidget&#45;&gt;NgxSchemaPageModule -->
<g id="edge2" class="edge">
<title>DefaultWidget&#45;&gt;NgxSchemaPageModule</title>
<path fill="none" stroke="#000000" d="M1762,-122.2222C1762,-140.8285 1762,-167 1762,-167 1762,-167 1126.7168,-167 1126.7168,-167"/>
<polygon fill="#000000" stroke="#000000" points="1126.7169,-163.5001 1116.7168,-167 1126.7168,-170.5001 1126.7169,-163.5001"/>
</g>
<!-- HeadingWidget -->
<g id="node3" class="node">
<title>HeadingWidget</title>
<polygon fill="#ffffb3" stroke="#000000" points="1694.1374,-122 1589.8626,-122 1589.8626,-86 1694.1374,-86 1694.1374,-122"/>
<text text-anchor="middle" x="1642" y="-99.8" font-family="Times,serif" font-size="14.00" fill="#000000">HeadingWidget</text>
</g>
<!-- HeadingWidget&#45;&gt;NgxSchemaPageModule -->
<g id="edge3" class="edge">
<title>HeadingWidget&#45;&gt;NgxSchemaPageModule</title>
<path fill="none" stroke="#000000" d="M1642.9115,-122.0225C1642.9115,-139.3734 1642.9115,-163 1642.9115,-163 1642.9115,-163 1126.7145,-163 1126.7145,-163"/>
<polygon fill="#000000" stroke="#000000" points="1126.7146,-159.5001 1116.7145,-163 1126.7145,-166.5001 1126.7146,-159.5001"/>
</g>
<!-- NgxSchemaPageComponent -->
<g id="node4" class="node">
<title>NgxSchemaPageComponent</title>
<polygon fill="#ffffb3" stroke="#000000" points="1571.4678,-122 1394.5322,-122 1394.5322,-86 1571.4678,-86 1571.4678,-122"/>
<text text-anchor="middle" x="1483" y="-99.8" font-family="Times,serif" font-size="14.00" fill="#000000">NgxSchemaPageComponent</text>
</g>
<!-- NgxSchemaPageComponent&#45;&gt;NgxSchemaPageModule -->
<g id="edge4" class="edge">
<title>NgxSchemaPageComponent&#45;&gt;NgxSchemaPageModule</title>
<path fill="none" stroke="#000000" d="M1424.4301,-122.0091C1424.4301,-138.0494 1424.4301,-159 1424.4301,-159 1424.4301,-159 1126.9975,-159 1126.9975,-159"/>
<polygon fill="#000000" stroke="#000000" points="1126.9976,-155.5001 1116.9975,-159 1126.9975,-162.5001 1126.9976,-155.5001"/>
</g>
<!-- ObjectWidget -->
<g id="node5" class="node">
<title>ObjectWidget</title>
<polygon fill="#ffffb3" stroke="#000000" points="1376.0286,-122 1281.9714,-122 1281.9714,-86 1376.0286,-86 1376.0286,-122"/>
<text text-anchor="middle" x="1329" y="-99.8" font-family="Times,serif" font-size="14.00" fill="#000000">ObjectWidget</text>
</g>
<!-- ObjectWidget&#45;&gt;NgxSchemaPageModule -->
<g id="edge5" class="edge">
<title>ObjectWidget&#45;&gt;NgxSchemaPageModule</title>
<path fill="none" stroke="#000000" d="M1307.9023,-122.1243C1307.9023,-136.7832 1307.9023,-155 1307.9023,-155 1307.9023,-155 1126.7777,-155 1126.7777,-155"/>
<polygon fill="#000000" stroke="#000000" points="1126.7777,-151.5001 1116.7777,-155 1126.7777,-158.5001 1126.7777,-151.5001"/>
</g>
<!-- PageElementComponent -->
<g id="node6" class="node">
<title>PageElementComponent</title>
<polygon fill="#ffffb3" stroke="#000000" points="1263.6979,-122 1108.3021,-122 1108.3021,-86 1263.6979,-86 1263.6979,-122"/>
<text text-anchor="middle" x="1186" y="-99.8" font-family="Times,serif" font-size="14.00" fill="#000000">PageElementComponent</text>
</g>
<!-- PageElementComponent&#45;&gt;NgxSchemaPageModule -->
<g id="edge6" class="edge">
<title>PageElementComponent&#45;&gt;NgxSchemaPageModule</title>
<path fill="none" stroke="#000000" d="M1112.4969,-122.1061C1112.4969,-122.1061 1112.4969,-140.991 1112.4969,-140.991"/>
<polygon fill="#000000" stroke="#000000" points="1108.9969,-140.9909 1112.4969,-150.991 1115.9969,-140.991 1108.9969,-140.9909"/>
</g>
<!-- SFFormWidget -->
<g id="node7" class="node">
<title>SFFormWidget</title>
<polygon fill="#ffffb3" stroke="#000000" points="1090.6095,-122 987.3905,-122 987.3905,-86 1090.6095,-86 1090.6095,-122"/>
<text text-anchor="middle" x="1039" y="-99.8" font-family="Times,serif" font-size="14.00" fill="#000000">SFFormWidget</text>
</g>
<!-- SFFormWidget&#45;&gt;NgxSchemaPageModule -->
<g id="edge7" class="edge">
<title>SFFormWidget&#45;&gt;NgxSchemaPageModule</title>
<path fill="none" stroke="#000000" d="M1039,-122.1061C1039,-122.1061 1039,-140.991 1039,-140.991"/>
<polygon fill="#000000" stroke="#000000" points="1035.5001,-140.9909 1039,-150.991 1042.5001,-140.991 1035.5001,-140.9909"/>
</g>
<!-- WidgetChooserComponent -->
<g id="node8" class="node">
<title>WidgetChooserComponent</title>
<polygon fill="#ffffb3" stroke="#000000" points="969.6993,-122 800.3007,-122 800.3007,-86 969.6993,-86 969.6993,-122"/>
<text text-anchor="middle" x="885" y="-99.8" font-family="Times,serif" font-size="14.00" fill="#000000">WidgetChooserComponent</text>
</g>
<!-- WidgetChooserComponent&#45;&gt;NgxSchemaPageModule -->
<g id="edge8" class="edge">
<title>WidgetChooserComponent&#45;&gt;NgxSchemaPageModule</title>
<path fill="none" stroke="#000000" d="M965.5035,-122.1061C965.5035,-122.1061 965.5035,-140.991 965.5035,-140.991"/>
<polygon fill="#000000" stroke="#000000" points="962.0036,-140.9909 965.5035,-150.991 969.0036,-140.991 962.0036,-140.9909"/>
</g>
<!-- DataTableWidget  -->
<g id="node13" class="node">
<title>DataTableWidget </title>
<polygon fill="#fb8072" stroke="#000000" points="1591.5092,-252 1472.4908,-252 1472.4908,-216 1591.5092,-216 1591.5092,-252"/>
<text text-anchor="middle" x="1532" y="-229.8" font-family="Times,serif" font-size="14.00" fill="#000000">DataTableWidget </text>
</g>
<!-- NgxSchemaPageModule&#45;&gt;DataTableWidget  -->
<g id="edge12" class="edge">
<title>NgxSchemaPageModule&#45;&gt;DataTableWidget </title>
<path fill="none" stroke="#000000" stroke-dasharray="5,2" d="M1116.6006,-175C1253.1306,-175 1521.9897,-175 1521.9897,-175 1521.9897,-175 1521.9897,-205.9775 1521.9897,-205.9775"/>
<polygon fill="#000000" stroke="#000000" points="1518.4897,-205.9774 1521.9897,-215.9775 1525.4897,-205.9775 1518.4897,-205.9774"/>
</g>
<!-- DefaultWidget  -->
<g id="node14" class="node">
<title>DefaultWidget </title>
<polygon fill="#fb8072" stroke="#000000" points="1454.1885,-252 1351.8115,-252 1351.8115,-216 1454.1885,-216 1454.1885,-252"/>
<text text-anchor="middle" x="1403" y="-229.8" font-family="Times,serif" font-size="14.00" fill="#000000">DefaultWidget </text>
</g>
<!-- NgxSchemaPageModule&#45;&gt;DefaultWidget  -->
<g id="edge13" class="edge">
<title>NgxSchemaPageModule&#45;&gt;DefaultWidget </title>
<path fill="none" stroke="#000000" stroke-dasharray="5,2" d="M1116.836,-179C1212.9725,-179 1363.9599,-179 1363.9599,-179 1363.9599,-179 1363.9599,-205.9909 1363.9599,-205.9909"/>
<polygon fill="#000000" stroke="#000000" points="1360.4599,-205.9909 1363.9599,-215.9909 1367.4599,-205.991 1360.4599,-205.9909"/>
</g>
<!-- HeadingWidget  -->
<g id="node15" class="node">
<title>HeadingWidget </title>
<polygon fill="#fb8072" stroke="#000000" points="1334.1369,-252 1225.8631,-252 1225.8631,-216 1334.1369,-216 1334.1369,-252"/>
<text text-anchor="middle" x="1280" y="-229.8" font-family="Times,serif" font-size="14.00" fill="#000000">HeadingWidget </text>
</g>
<!-- NgxSchemaPageModule&#45;&gt;HeadingWidget  -->
<g id="edge14" class="edge">
<title>NgxSchemaPageModule&#45;&gt;HeadingWidget </title>
<path fill="none" stroke="#000000" stroke-dasharray="5,2" d="M1116.791,-183C1175.0601,-183 1244.7653,-183 1244.7653,-183 1244.7653,-183 1244.7653,-205.8757 1244.7653,-205.8757"/>
<polygon fill="#000000" stroke="#000000" points="1241.2653,-205.8757 1244.7653,-215.8757 1248.2653,-205.8757 1241.2653,-205.8757"/>
</g>
<!-- NgxSchemaPageComponent  -->
<g id="node16" class="node">
<title>NgxSchemaPageComponent </title>
<polygon fill="#fb8072" stroke="#000000" points="1208.4684,-252 1027.5316,-252 1027.5316,-216 1208.4684,-216 1208.4684,-252"/>
<text text-anchor="middle" x="1118" y="-229.8" font-family="Times,serif" font-size="14.00" fill="#000000">NgxSchemaPageComponent </text>
</g>
<!-- NgxSchemaPageModule&#45;&gt;NgxSchemaPageComponent  -->
<g id="edge15" class="edge">
<title>NgxSchemaPageModule&#45;&gt;NgxSchemaPageComponent </title>
<path fill="none" stroke="#000000" stroke-dasharray="5,2" d="M1072.1793,-187.1061C1072.1793,-187.1061 1072.1793,-205.991 1072.1793,-205.991"/>
<polygon fill="#000000" stroke="#000000" points="1068.6794,-205.9909 1072.1793,-215.991 1075.6794,-205.991 1068.6794,-205.9909"/>
</g>
<!-- ObjectWidget  -->
<g id="node17" class="node">
<title>ObjectWidget </title>
<polygon fill="#fb8072" stroke="#000000" points="1010.0274,-252 911.9726,-252 911.9726,-216 1010.0274,-216 1010.0274,-252"/>
<text text-anchor="middle" x="961" y="-229.8" font-family="Times,serif" font-size="14.00" fill="#000000">ObjectWidget </text>
</g>
<!-- NgxSchemaPageModule&#45;&gt;ObjectWidget  -->
<g id="edge16" class="edge">
<title>NgxSchemaPageModule&#45;&gt;ObjectWidget </title>
<path fill="none" stroke="#000000" stroke-dasharray="5,2" d="M985.7106,-187.1061C985.7106,-187.1061 985.7106,-205.991 985.7106,-205.991"/>
<polygon fill="#000000" stroke="#000000" points="982.2106,-205.9909 985.7106,-215.991 989.2106,-205.991 982.2106,-205.9909"/>
</g>
<!-- PageElementComponent  -->
<g id="node18" class="node">
<title>PageElementComponent </title>
<polygon fill="#fb8072" stroke="#000000" points="894.1981,-252 735.8019,-252 735.8019,-216 894.1981,-216 894.1981,-252"/>
<text text-anchor="middle" x="815" y="-229.8" font-family="Times,serif" font-size="14.00" fill="#000000">PageElementComponent </text>
</g>
<!-- NgxSchemaPageModule&#45;&gt;PageElementComponent  -->
<g id="edge17" class="edge">
<title>NgxSchemaPageModule&#45;&gt;PageElementComponent </title>
<path fill="none" stroke="#000000" stroke-dasharray="5,2" d="M961.3349,-183C908.2168,-183 847.3747,-183 847.3747,-183 847.3747,-183 847.3747,-205.8757 847.3747,-205.8757"/>
<polygon fill="#000000" stroke="#000000" points="843.8747,-205.8757 847.3747,-215.8757 850.8747,-205.8757 843.8747,-205.8757"/>
</g>
<!-- SFFormWidget  -->
<g id="node19" class="node">
<title>SFFormWidget </title>
<polygon fill="#fb8072" stroke="#000000" points="717.1101,-252 610.8899,-252 610.8899,-216 717.1101,-216 717.1101,-252"/>
<text text-anchor="middle" x="664" y="-229.8" font-family="Times,serif" font-size="14.00" fill="#000000">SFFormWidget </text>
</g>
<!-- NgxSchemaPageModule&#45;&gt;SFFormWidget  -->
<g id="edge18" class="edge">
<title>NgxSchemaPageModule&#45;&gt;SFFormWidget </title>
<path fill="none" stroke="#000000" stroke-dasharray="5,2" d="M961.3633,-179C861.455,-179 700.5963,-179 700.5963,-179 700.5963,-179 700.5963,-205.9909 700.5963,-205.9909"/>
<polygon fill="#000000" stroke="#000000" points="697.0963,-205.9909 700.5963,-215.9909 704.0963,-205.991 697.0963,-205.9909"/>
</g>
<!-- WidgetChooserComponent  -->
<g id="node20" class="node">
<title>WidgetChooserComponent </title>
<polygon fill="#fb8072" stroke="#000000" points="592.1995,-252 419.8005,-252 419.8005,-216 592.1995,-216 592.1995,-252"/>
<text text-anchor="middle" x="506" y="-229.8" font-family="Times,serif" font-size="14.00" fill="#000000">WidgetChooserComponent </text>
</g>
<!-- NgxSchemaPageModule&#45;&gt;WidgetChooserComponent  -->
<g id="edge19" class="edge">
<title>NgxSchemaPageModule&#45;&gt;WidgetChooserComponent </title>
<path fill="none" stroke="#000000" stroke-dasharray="5,2" d="M961.3204,-175C826.1921,-175 562.1247,-175 562.1247,-175 562.1247,-175 562.1247,-205.9775 562.1247,-205.9775"/>
<polygon fill="#000000" stroke="#000000" points="558.6247,-205.9774 562.1247,-215.9775 565.6247,-205.9775 558.6247,-205.9774"/>
</g>
<!-- NgxCommon -->
<g id="node10" class="node">
<title>NgxCommon</title>
<polygon fill="#8dd3c7" stroke="#000000" points="776.2247,-122 773.2247,-126 752.2247,-126 749.2247,-122 683.7753,-122 683.7753,-86 776.2247,-86 776.2247,-122"/>
<text text-anchor="middle" x="730" y="-99.8" font-family="Times,serif" font-size="14.00" fill="#000000">NgxCommon</text>
</g>
<!-- NgxCommon&#45;&gt;NgxSchemaPageModule -->
<g id="edge9" class="edge">
<title>NgxCommon&#45;&gt;NgxSchemaPageModule</title>
<path fill="none" stroke="#000000" d="M755.8817,-122.1243C755.8817,-136.7832 755.8817,-155 755.8817,-155 755.8817,-155 951.2622,-155 951.2622,-155"/>
<polygon fill="#000000" stroke="#000000" points="951.2622,-158.5001 961.2622,-155 951.2622,-151.5001 951.2622,-158.5001"/>
</g>
<!-- SchemaFormModule -->
<g id="node11" class="node">
<title>SchemaFormModule</title>
<polygon fill="#8dd3c7" stroke="#000000" points="666.2008,-122 663.2008,-126 642.2008,-126 639.2008,-122 531.7992,-122 531.7992,-86 666.2008,-86 666.2008,-122"/>
<text text-anchor="middle" x="599" y="-99.8" font-family="Times,serif" font-size="14.00" fill="#000000">SchemaFormModule</text>
</g>
<!-- SchemaFormModule&#45;&gt;NgxSchemaPageModule -->
<g id="edge10" class="edge">
<title>SchemaFormModule&#45;&gt;NgxSchemaPageModule</title>
<path fill="none" stroke="#000000" d="M638.3978,-122.0091C638.3978,-138.0494 638.3978,-159 638.3978,-159 638.3978,-159 951.2849,-159 951.2849,-159"/>
<polygon fill="#000000" stroke="#000000" points="951.2849,-162.5001 961.2849,-159 951.2848,-155.5001 951.2849,-162.5001"/>
</g>
<!-- ThemeModule -->
<g id="node12" class="node">
<title>ThemeModule</title>
<polygon fill="#8dd3c7" stroke="#000000" points="514.4231,-122 511.4231,-126 490.4231,-126 487.4231,-122 415.5769,-122 415.5769,-86 514.4231,-86 514.4231,-122"/>
<text text-anchor="middle" x="465" y="-99.8" font-family="Times,serif" font-size="14.00" fill="#000000">ThemeModule</text>
</g>
<!-- ThemeModule&#45;&gt;NgxSchemaPageModule -->
<g id="edge11" class="edge">
<title>ThemeModule&#45;&gt;NgxSchemaPageModule</title>
<path fill="none" stroke="#000000" d="M466.9308,-122.0225C466.9308,-139.3734 466.9308,-163 466.9308,-163 466.9308,-163 951.2528,-163 951.2528,-163"/>
<polygon fill="#000000" stroke="#000000" points="951.2529,-166.5001 961.2528,-163 951.2528,-159.5001 951.2529,-166.5001"/>
</g>
<!-- NgxSchemaPageService -->
<g id="node21" class="node">
<title>NgxSchemaPageService</title>
<ellipse fill="#fdb462" stroke="#000000" cx="286" cy="-104" rx="105.9189" ry="18"/>
<text text-anchor="middle" x="286" y="-99.8" font-family="Times,serif" font-size="14.00" fill="#000000">NgxSchemaPageService</text>
</g>
<!-- NgxSchemaPageService&#45;&gt;NgxSchemaPageModule -->
<g id="edge20" class="edge">
<title>NgxSchemaPageService&#45;&gt;NgxSchemaPageModule</title>
<path fill="none" stroke="#000000" d="M286,-122.2222C286,-140.8285 286,-167 286,-167 286,-167 951.2519,-167 951.2519,-167"/>
<polygon fill="#000000" stroke="#000000" points="951.252,-170.5001 961.2519,-167 951.2519,-163.5001 951.252,-170.5001"/>
</g>
<!-- WidgetFactory -->
<g id="node22" class="node">
<title>WidgetFactory</title>
<ellipse fill="#fdb462" stroke="#000000" cx="93" cy="-104" rx="68.9197" ry="18"/>
<text text-anchor="middle" x="93" y="-99.8" font-family="Times,serif" font-size="14.00" fill="#000000">WidgetFactory</text>
</g>
<!-- WidgetFactory&#45;&gt;NgxSchemaPageModule -->
<g id="edge21" class="edge">
<title>WidgetFactory&#45;&gt;NgxSchemaPageModule</title>
<path fill="none" stroke="#000000" d="M93,-122.308C93,-142.1455 93,-171 93,-171 93,-171 951.1829,-171 951.1829,-171"/>
<polygon fill="#000000" stroke="#000000" points="951.1829,-174.5001 961.1829,-171 951.1828,-167.5001 951.1829,-174.5001"/>
</g>
</g>
</svg>
