<?xml version="1.0" encoding="UTF-8" standalone="no"?>
<!DOCTYPE svg PUBLIC "-//W3C//DTD SVG 1.1//EN"
 "http://www.w3.org/Graphics/SVG/1.1/DTD/svg11.dtd">
<!-- Generated by graphviz version 2.40.1 (20161225.0304)
 -->
<!-- Title: dependencies Pages: 1 -->
<svg width="1282pt" height="211pt"
 viewBox="0.00 0.00 1282.00 211.00" xmlns="http://www.w3.org/2000/svg" xmlns:xlink="http://www.w3.org/1999/xlink">
<g id="graph0" class="graph" transform="scale(1 1) rotate(0) translate(4 207)">
<title>dependencies</title>
<polygon fill="#ffffff" stroke="transparent" points="-4,4 -4,-207 1278,-207 1278,4 -4,4"/>
<text text-anchor="start" x="616.0091" y="-42.4" font-family="sans-serif" font-weight="bold" font-size="14.00" fill="#000000">Legend</text>
<polygon fill="#ffffb3" stroke="transparent" points="403,-10 403,-30 423,-30 423,-10 403,-10"/>
<text text-anchor="start" x="426.629" y="-15.4" font-family="sans-serif" font-size="14.00" fill="#000000"> &#160;Declarations</text>
<polygon fill="#8dd3c7" stroke="transparent" points="516,-10 516,-30 536,-30 536,-10 516,-10"/>
<text text-anchor="start" x="539.7251" y="-15.4" font-family="sans-serif" font-size="14.00" fill="#000000"> &#160;Module</text>
<polygon fill="#80b1d3" stroke="transparent" points="602,-10 602,-30 622,-30 622,-10 602,-10"/>
<text text-anchor="start" x="625.7812" y="-15.4" font-family="sans-serif" font-size="14.00" fill="#000000"> &#160;Bootstrap</text>
<polygon fill="#fdb462" stroke="transparent" points="699,-10 699,-30 719,-30 719,-10 699,-10"/>
<text text-anchor="start" x="722.6732" y="-15.4" font-family="sans-serif" font-size="14.00" fill="#000000"> &#160;Providers</text>
<polygon fill="#fb8072" stroke="transparent" points="795,-10 795,-30 815,-30 815,-10 795,-10"/>
<text text-anchor="start" x="818.7258" y="-15.4" font-family="sans-serif" font-size="14.00" fill="#000000"> &#160;Exports</text>
<g id="clust1" class="cluster">
<title>cluster_UsersModule</title>
<polygon fill="none" stroke="#000000" stroke-dasharray="1,5" points="8,-70 8,-195 1266,-195 1266,-70 8,-70"/>
</g>
<g id="clust2" class="cluster">
<title>cluster_UsersModule_declarations</title>
<polygon fill="none" stroke="#000000" points="440,-78 440,-130 1258,-130 1258,-78 440,-78"/>
</g>
<g id="clust8" class="cluster">
<title>cluster_UsersModule_imports</title>
<polygon fill="none" stroke="#000000" points="164,-78 164,-130 432,-130 432,-78 164,-78"/>
</g>
<g id="clust11" class="cluster">
<title>cluster_UsersModule_providers</title>
<polygon fill="none" stroke="#000000" points="16,-78 16,-130 156,-130 156,-78 16,-78"/>
</g>
<!-- AddReviewComponent -->
<g id="node1" class="node">
<title>AddReviewComponent</title>
<polygon fill="#ffffb3" stroke="#000000" points="1250.2021,-122 1101.7979,-122 1101.7979,-86 1250.2021,-86 1250.2021,-122"/>
<text text-anchor="middle" x="1176" y="-99.8" font-family="Times,serif" font-size="14.00" fill="#000000">AddReviewComponent</text>
</g>
<!-- UsersModule -->
<g id="node6" class="node">
<title>UsersModule</title>
<polygon fill="#8dd3c7" stroke="#000000" points="636.9218,-187 633.9218,-191 612.9218,-191 609.9218,-187 545.0782,-187 545.0782,-151 636.9218,-151 636.9218,-187"/>
<text text-anchor="middle" x="591" y="-164.8" font-family="Times,serif" font-size="14.00" fill="#000000">UsersModule</text>
</g>
<!-- AddReviewComponent&#45;&gt;UsersModule -->
<g id="edge1" class="edge">
<title>AddReviewComponent&#45;&gt;UsersModule</title>
<path fill="none" stroke="#000000" d="M1176,-122.2921C1176,-144.2057 1176,-178 1176,-178 1176,-178 646.904,-178 646.904,-178"/>
<polygon fill="#000000" stroke="#000000" points="646.904,-174.5001 636.904,-178 646.9039,-181.5001 646.904,-174.5001"/>
</g>
<!-- DetailReviewComponent -->
<g id="node2" class="node">
<title>DetailReviewComponent</title>
<polygon fill="#ffffb3" stroke="#000000" points="1084.3033,-122 925.6967,-122 925.6967,-86 1084.3033,-86 1084.3033,-122"/>
<text text-anchor="middle" x="1005" y="-99.8" font-family="Times,serif" font-size="14.00" fill="#000000">DetailReviewComponent</text>
</g>
<!-- DetailReviewComponent&#45;&gt;UsersModule -->
<g id="edge2" class="edge">
<title>DetailReviewComponent&#45;&gt;UsersModule</title>
<path fill="none" stroke="#000000" d="M1005,-122.1061C1005,-141.3391 1005,-169 1005,-169 1005,-169 646.8871,-169 646.8871,-169"/>
<polygon fill="#000000" stroke="#000000" points="646.8871,-165.5001 636.8871,-169 646.887,-172.5001 646.8871,-165.5001"/>
</g>
<!-- EditReviewComponent -->
<g id="node3" class="node">
<title>EditReviewComponent</title>
<polygon fill="#ffffb3" stroke="#000000" points="907.9298,-122 760.0702,-122 760.0702,-86 907.9298,-86 907.9298,-122"/>
<text text-anchor="middle" x="834" y="-99.8" font-family="Times,serif" font-size="14.00" fill="#000000">EditReviewComponent</text>
</g>
<!-- EditReviewComponent&#45;&gt;UsersModule -->
<g id="edge3" class="edge">
<title>EditReviewComponent&#45;&gt;UsersModule</title>
<path fill="none" stroke="#000000" d="M834,-122.027C834,-138.3976 834,-160 834,-160 834,-160 646.9921,-160 646.9921,-160"/>
<polygon fill="#000000" stroke="#000000" points="646.9922,-156.5001 636.9921,-160 646.9921,-163.5001 646.9922,-156.5001"/>
</g>
<!-- ListReviewComponent -->
<g id="node4" class="node">
<title>ListReviewComponent</title>
<polygon fill="#ffffb3" stroke="#000000" points="741.8739,-122 596.1261,-122 596.1261,-86 741.8739,-86 741.8739,-122"/>
<text text-anchor="middle" x="669" y="-99.8" font-family="Times,serif" font-size="14.00" fill="#000000">ListReviewComponent</text>
</g>
<!-- ListReviewComponent&#45;&gt;UsersModule -->
<g id="edge4" class="edge">
<title>ListReviewComponent&#45;&gt;UsersModule</title>
<path fill="none" stroke="#000000" d="M616.3867,-122.1061C616.3867,-122.1061 616.3867,-140.991 616.3867,-140.991"/>
<polygon fill="#000000" stroke="#000000" points="612.8868,-140.9909 616.3867,-150.991 619.8868,-140.991 612.8868,-140.9909"/>
</g>
<!-- ReviewsComponent -->
<g id="node5" class="node">
<title>ReviewsComponent</title>
<polygon fill="#ffffb3" stroke="#000000" points="577.5408,-122 448.4592,-122 448.4592,-86 577.5408,-86 577.5408,-122"/>
<text text-anchor="middle" x="513" y="-99.8" font-family="Times,serif" font-size="14.00" fill="#000000">ReviewsComponent</text>
</g>
<!-- ReviewsComponent&#45;&gt;UsersModule -->
<g id="edge5" class="edge">
<title>ReviewsComponent&#45;&gt;UsersModule</title>
<path fill="none" stroke="#000000" d="M561.5298,-122.1061C561.5298,-122.1061 561.5298,-140.991 561.5298,-140.991"/>
<polygon fill="#000000" stroke="#000000" points="558.0299,-140.9909 561.5298,-150.991 565.0299,-140.991 558.0299,-140.9909"/>
</g>
<!-- ThemeModule -->
<g id="node7" class="node">
<title>ThemeModule</title>
<polygon fill="#8dd3c7" stroke="#000000" points="424.4231,-122 421.4231,-126 400.4231,-126 397.4231,-122 325.5769,-122 325.5769,-86 424.4231,-86 424.4231,-122"/>
<text text-anchor="middle" x="375" y="-99.8" font-family="Times,serif" font-size="14.00" fill="#000000">ThemeModule</text>
</g>
<!-- ThemeModule&#45;&gt;UsersModule -->
<g id="edge6" class="edge">
<title>ThemeModule&#45;&gt;UsersModule</title>
<path fill="none" stroke="#000000" d="M375,-122.027C375,-138.3976 375,-160 375,-160 375,-160 535.192,-160 535.192,-160"/>
<polygon fill="#000000" stroke="#000000" points="535.192,-163.5001 545.192,-160 535.1919,-156.5001 535.192,-163.5001"/>
</g>
<!-- UsersRoutingModule -->
<g id="node8" class="node">
<title>UsersRoutingModule</title>
<polygon fill="#8dd3c7" stroke="#000000" points="308.0394,-122 305.0394,-126 284.0394,-126 281.0394,-122 171.9606,-122 171.9606,-86 308.0394,-86 308.0394,-122"/>
<text text-anchor="middle" x="240" y="-99.8" font-family="Times,serif" font-size="14.00" fill="#000000">UsersRoutingModule</text>
</g>
<!-- UsersRoutingModule&#45;&gt;UsersModule -->
<g id="edge7" class="edge">
<title>UsersRoutingModule&#45;&gt;UsersModule</title>
<path fill="none" stroke="#000000" d="M240,-122.1061C240,-141.3391 240,-169 240,-169 240,-169 535.1129,-169 535.1129,-169"/>
<polygon fill="#000000" stroke="#000000" points="535.1129,-172.5001 545.1129,-169 535.1128,-165.5001 535.1129,-172.5001"/>
</g>
<!-- UsersService -->
<g id="node9" class="node">
<title>UsersService</title>
<ellipse fill="#fdb462" stroke="#000000" cx="86" cy="-104" rx="61.9519" ry="18"/>
<text text-anchor="middle" x="86" y="-99.8" font-family="Times,serif" font-size="14.00" fill="#000000">UsersService</text>
</g>
<!-- UsersService&#45;&gt;UsersModule -->
<g id="edge8" class="edge">
<title>UsersService&#45;&gt;UsersModule</title>
<path fill="none" stroke="#000000" d="M86,-122.2921C86,-144.2057 86,-178 86,-178 86,-178 534.8459,-178 534.8459,-178"/>
<polygon fill="#000000" stroke="#000000" points="534.8459,-181.5001 544.8459,-178 534.8458,-174.5001 534.8459,-181.5001"/>
</g>
</g>
</svg>
