<?xml version="1.0" encoding="UTF-8" standalone="no"?>
<!DOCTYPE svg PUBLIC "-//W3C//DTD SVG 1.1//EN"
 "http://www.w3.org/Graphics/SVG/1.1/DTD/svg11.dtd">
<!-- Generated by graphviz version 2.40.1 (20161225.0304)
 -->
<!-- Title: dependencies Pages: 1 -->
<svg width="700pt" height="211pt"
 viewBox="0.00 0.00 700.00 211.00" xmlns="http://www.w3.org/2000/svg" xmlns:xlink="http://www.w3.org/1999/xlink">
<g id="graph0" class="graph" transform="scale(1 1) rotate(0) translate(4 207)">
<title>dependencies</title>
<polygon fill="#ffffff" stroke="transparent" points="-4,4 -4,-207 696,-207 696,4 -4,4"/>
<text text-anchor="start" x="325.0091" y="-42.4" font-family="sans-serif" font-weight="bold" font-size="14.00" fill="#000000">Legend</text>
<polygon fill="#ffffb3" stroke="transparent" points="112,-10 112,-30 132,-30 132,-10 112,-10"/>
<text text-anchor="start" x="135.629" y="-15.4" font-family="sans-serif" font-size="14.00" fill="#000000"> &#160;Declarations</text>
<polygon fill="#8dd3c7" stroke="transparent" points="225,-10 225,-30 245,-30 245,-10 225,-10"/>
<text text-anchor="start" x="248.7251" y="-15.4" font-family="sans-serif" font-size="14.00" fill="#000000"> &#160;Module</text>
<polygon fill="#80b1d3" stroke="transparent" points="311,-10 311,-30 331,-30 331,-10 311,-10"/>
<text text-anchor="start" x="334.7812" y="-15.4" font-family="sans-serif" font-size="14.00" fill="#000000"> &#160;Bootstrap</text>
<polygon fill="#fdb462" stroke="transparent" points="408,-10 408,-30 428,-30 428,-10 408,-10"/>
<text text-anchor="start" x="431.6732" y="-15.4" font-family="sans-serif" font-size="14.00" fill="#000000"> &#160;Providers</text>
<polygon fill="#fb8072" stroke="transparent" points="504,-10 504,-30 524,-30 524,-10 504,-10"/>
<text text-anchor="start" x="527.7258" y="-15.4" font-family="sans-serif" font-size="14.00" fill="#000000"> &#160;Exports</text>
<g id="clust1" class="cluster">
<title>cluster_MiscellaneousModule</title>
<polygon fill="none" stroke="#000000" stroke-dasharray="1,5" points="8,-70 8,-195 684,-195 684,-70 8,-70"/>
</g>
<g id="clust2" class="cluster">
<title>cluster_MiscellaneousModule_declarations</title>
<polygon fill="none" stroke="#000000" points="342,-78 342,-130 676,-130 676,-78 342,-78"/>
</g>
<g id="clust5" class="cluster">
<title>cluster_MiscellaneousModule_imports</title>
<polygon fill="none" stroke="#000000" points="16,-78 16,-130 334,-130 334,-78 16,-78"/>
</g>
<!-- MiscellaneousComponent -->
<g id="node1" class="node">
<title>MiscellaneousComponent</title>
<polygon fill="#ffffb3" stroke="#000000" points="668.1965,-122 505.8035,-122 505.8035,-86 668.1965,-86 668.1965,-122"/>
<text text-anchor="middle" x="587" y="-99.8" font-family="Times,serif" font-size="14.00" fill="#000000">MiscellaneousComponent</text>
</g>
<!-- MiscellaneousModule -->
<g id="node3" class="node">
<title>MiscellaneousModule</title>
<polygon fill="#8dd3c7" stroke="#000000" points="396.4144,-187 393.4144,-191 372.4144,-191 369.4144,-187 255.5856,-187 255.5856,-151 396.4144,-151 396.4144,-187"/>
<text text-anchor="middle" x="326" y="-164.8" font-family="Times,serif" font-size="14.00" fill="#000000">MiscellaneousModule</text>
</g>
<!-- MiscellaneousComponent&#45;&gt;MiscellaneousModule -->
<g id="edge1" class="edge">
<title>MiscellaneousComponent&#45;&gt;MiscellaneousModule</title>
<path fill="none" stroke="#000000" d="M587,-122.1061C587,-141.3391 587,-169 587,-169 587,-169 406.2865,-169 406.2865,-169"/>
<polygon fill="#000000" stroke="#000000" points="406.2866,-165.5001 396.2865,-169 406.2865,-172.5001 406.2866,-165.5001"/>
</g>
<!-- NotFoundComponent -->
<g id="node2" class="node">
<title>NotFoundComponent</title>
<polygon fill="#ffffb3" stroke="#000000" points="488.1122,-122 349.8878,-122 349.8878,-86 488.1122,-86 488.1122,-122"/>
<text text-anchor="middle" x="419" y="-99.8" font-family="Times,serif" font-size="14.00" fill="#000000">NotFoundComponent</text>
</g>
<!-- NotFoundComponent&#45;&gt;MiscellaneousModule -->
<g id="edge2" class="edge">
<title>NotFoundComponent&#45;&gt;MiscellaneousModule</title>
<path fill="none" stroke="#000000" d="M373.0754,-122.1061C373.0754,-122.1061 373.0754,-140.991 373.0754,-140.991"/>
<polygon fill="#000000" stroke="#000000" points="369.5755,-140.9909 373.0754,-150.991 376.5755,-140.991 369.5755,-140.9909"/>
</g>
<!-- MiscellaneousRoutingModule -->
<g id="node4" class="node">
<title>MiscellaneousRoutingModule</title>
<polygon fill="#8dd3c7" stroke="#000000" points="325.5322,-122 322.5322,-126 301.5322,-126 298.5322,-122 140.4678,-122 140.4678,-86 325.5322,-86 325.5322,-122"/>
<text text-anchor="middle" x="233" y="-99.8" font-family="Times,serif" font-size="14.00" fill="#000000">MiscellaneousRoutingModule</text>
</g>
<!-- MiscellaneousRoutingModule&#45;&gt;MiscellaneousModule -->
<g id="edge3" class="edge">
<title>MiscellaneousRoutingModule&#45;&gt;MiscellaneousModule</title>
<path fill="none" stroke="#000000" d="M290.7795,-122.1061C290.7795,-122.1061 290.7795,-140.991 290.7795,-140.991"/>
<polygon fill="#000000" stroke="#000000" points="287.2795,-140.9909 290.7795,-150.991 294.2795,-140.991 287.2795,-140.9909"/>
</g>
<!-- ThemeModule -->
<g id="node5" class="node">
<title>ThemeModule</title>
<polygon fill="#8dd3c7" stroke="#000000" points="122.4231,-122 119.4231,-126 98.4231,-126 95.4231,-122 23.5769,-122 23.5769,-86 122.4231,-86 122.4231,-122"/>
<text text-anchor="middle" x="73" y="-99.8" font-family="Times,serif" font-size="14.00" fill="#000000">ThemeModule</text>
</g>
<!-- ThemeModule&#45;&gt;MiscellaneousModule -->
<g id="edge4" class="edge">
<title>ThemeModule&#45;&gt;MiscellaneousModule</title>
<path fill="none" stroke="#000000" d="M73,-122.1061C73,-141.3391 73,-169 73,-169 73,-169 245.5254,-169 245.5254,-169"/>
<polygon fill="#000000" stroke="#000000" points="245.5254,-172.5001 255.5254,-169 245.5254,-165.5001 245.5254,-172.5001"/>
</g>
</g>
</svg>
