<?xml version="1.0" encoding="UTF-8" standalone="no"?>
<!DOCTYPE svg PUBLIC "-//W3C//DTD SVG 1.1//EN"
 "http://www.w3.org/Graphics/SVG/1.1/DTD/svg11.dtd">
<!-- Generated by graphviz version 2.40.1 (20161225.0304)
 -->
<!-- Title: dependencies Pages: 1 -->
<svg width="1321pt" height="211pt"
 viewBox="0.00 0.00 1321.00 211.00" xmlns="http://www.w3.org/2000/svg" xmlns:xlink="http://www.w3.org/1999/xlink">
<g id="graph0" class="graph" transform="scale(1 1) rotate(0) translate(4 207)">
<title>dependencies</title>
<polygon fill="#ffffff" stroke="transparent" points="-4,4 -4,-207 1317,-207 1317,4 -4,4"/>
<text text-anchor="start" x="635.5091" y="-42.4" font-family="sans-serif" font-weight="bold" font-size="14.00" fill="#000000">Legend</text>
<polygon fill="#ffffb3" stroke="transparent" points="422.5,-10 422.5,-30 442.5,-30 442.5,-10 422.5,-10"/>
<text text-anchor="start" x="446.129" y="-15.4" font-family="sans-serif" font-size="14.00" fill="#000000"> &#160;Declarations</text>
<polygon fill="#8dd3c7" stroke="transparent" points="535.5,-10 535.5,-30 555.5,-30 555.5,-10 535.5,-10"/>
<text text-anchor="start" x="559.2251" y="-15.4" font-family="sans-serif" font-size="14.00" fill="#000000"> &#160;Module</text>
<polygon fill="#80b1d3" stroke="transparent" points="621.5,-10 621.5,-30 641.5,-30 641.5,-10 621.5,-10"/>
<text text-anchor="start" x="645.2812" y="-15.4" font-family="sans-serif" font-size="14.00" fill="#000000"> &#160;Bootstrap</text>
<polygon fill="#fdb462" stroke="transparent" points="718.5,-10 718.5,-30 738.5,-30 738.5,-10 718.5,-10"/>
<text text-anchor="start" x="742.1732" y="-15.4" font-family="sans-serif" font-size="14.00" fill="#000000"> &#160;Providers</text>
<polygon fill="#fb8072" stroke="transparent" points="814.5,-10 814.5,-30 834.5,-30 834.5,-10 814.5,-10"/>
<text text-anchor="start" x="838.2258" y="-15.4" font-family="sans-serif" font-size="14.00" fill="#000000"> &#160;Exports</text>
<g id="clust1" class="cluster">
<title>cluster_ReviewsModule</title>
<polygon fill="none" stroke="#000000" stroke-dasharray="1,5" points="8,-70 8,-195 1305,-195 1305,-70 8,-70"/>
</g>
<g id="clust2" class="cluster">
<title>cluster_ReviewsModule_declarations</title>
<polygon fill="none" stroke="#000000" points="479,-78 479,-130 1297,-130 1297,-78 479,-78"/>
</g>
<g id="clust8" class="cluster">
<title>cluster_ReviewsModule_imports</title>
<polygon fill="none" stroke="#000000" points="186,-78 186,-130 471,-130 471,-78 186,-78"/>
</g>
<g id="clust11" class="cluster">
<title>cluster_ReviewsModule_providers</title>
<polygon fill="none" stroke="#000000" points="16,-78 16,-130 178,-130 178,-78 16,-78"/>
</g>
<!-- AddReviewComponent -->
<g id="node1" class="node">
<title>AddReviewComponent</title>
<polygon fill="#ffffb3" stroke="#000000" points="1289.2021,-122 1140.7979,-122 1140.7979,-86 1289.2021,-86 1289.2021,-122"/>
<text text-anchor="middle" x="1215" y="-99.8" font-family="Times,serif" font-size="14.00" fill="#000000">AddReviewComponent</text>
</g>
<!-- ReviewsModule -->
<g id="node6" class="node">
<title>ReviewsModule</title>
<polygon fill="#8dd3c7" stroke="#000000" points="683.7577,-187 680.7577,-191 659.7577,-191 656.7577,-187 576.2423,-187 576.2423,-151 683.7577,-151 683.7577,-187"/>
<text text-anchor="middle" x="630" y="-164.8" font-family="Times,serif" font-size="14.00" fill="#000000">ReviewsModule</text>
</g>
<!-- AddReviewComponent&#45;&gt;ReviewsModule -->
<g id="edge1" class="edge">
<title>AddReviewComponent&#45;&gt;ReviewsModule</title>
<path fill="none" stroke="#000000" d="M1215,-122.2921C1215,-144.2057 1215,-178 1215,-178 1215,-178 693.9868,-178 693.9868,-178"/>
<polygon fill="#000000" stroke="#000000" points="693.9869,-174.5001 683.9868,-178 693.9868,-181.5001 693.9869,-174.5001"/>
</g>
<!-- DetailReviewComponent -->
<g id="node2" class="node">
<title>DetailReviewComponent</title>
<polygon fill="#ffffb3" stroke="#000000" points="1123.3033,-122 964.6967,-122 964.6967,-86 1123.3033,-86 1123.3033,-122"/>
<text text-anchor="middle" x="1044" y="-99.8" font-family="Times,serif" font-size="14.00" fill="#000000">DetailReviewComponent</text>
</g>
<!-- DetailReviewComponent&#45;&gt;ReviewsModule -->
<g id="edge2" class="edge">
<title>DetailReviewComponent&#45;&gt;ReviewsModule</title>
<path fill="none" stroke="#000000" d="M1044,-122.1061C1044,-141.3391 1044,-169 1044,-169 1044,-169 694.1233,-169 694.1233,-169"/>
<polygon fill="#000000" stroke="#000000" points="694.1233,-165.5001 684.1233,-169 694.1232,-172.5001 694.1233,-165.5001"/>
</g>
<!-- EditReviewComponent -->
<g id="node3" class="node">
<title>EditReviewComponent</title>
<polygon fill="#ffffb3" stroke="#000000" points="946.9298,-122 799.0702,-122 799.0702,-86 946.9298,-86 946.9298,-122"/>
<text text-anchor="middle" x="873" y="-99.8" font-family="Times,serif" font-size="14.00" fill="#000000">EditReviewComponent</text>
</g>
<!-- EditReviewComponent&#45;&gt;ReviewsModule -->
<g id="edge3" class="edge">
<title>EditReviewComponent&#45;&gt;ReviewsModule</title>
<path fill="none" stroke="#000000" d="M873,-122.027C873,-138.3976 873,-160 873,-160 873,-160 693.9296,-160 693.9296,-160"/>
<polygon fill="#000000" stroke="#000000" points="693.9296,-156.5001 683.9296,-160 693.9295,-163.5001 693.9296,-156.5001"/>
</g>
<!-- ListReviewComponent -->
<g id="node4" class="node">
<title>ListReviewComponent</title>
<polygon fill="#ffffb3" stroke="#000000" points="780.8739,-122 635.1261,-122 635.1261,-86 780.8739,-86 780.8739,-122"/>
<text text-anchor="middle" x="708" y="-99.8" font-family="Times,serif" font-size="14.00" fill="#000000">ListReviewComponent</text>
</g>
<!-- ListReviewComponent&#45;&gt;ReviewsModule -->
<g id="edge4" class="edge">
<title>ListReviewComponent&#45;&gt;ReviewsModule</title>
<path fill="none" stroke="#000000" d="M659.4709,-122.1061C659.4709,-122.1061 659.4709,-140.991 659.4709,-140.991"/>
<polygon fill="#000000" stroke="#000000" points="655.971,-140.9909 659.4709,-150.991 662.971,-140.991 655.971,-140.9909"/>
</g>
<!-- ReviewsComponent -->
<g id="node5" class="node">
<title>ReviewsComponent</title>
<polygon fill="#ffffb3" stroke="#000000" points="616.5408,-122 487.4592,-122 487.4592,-86 616.5408,-86 616.5408,-122"/>
<text text-anchor="middle" x="552" y="-99.8" font-family="Times,serif" font-size="14.00" fill="#000000">ReviewsComponent</text>
</g>
<!-- ReviewsComponent&#45;&gt;ReviewsModule -->
<g id="edge5" class="edge">
<title>ReviewsComponent&#45;&gt;ReviewsModule</title>
<path fill="none" stroke="#000000" d="M596.4457,-122.1061C596.4457,-122.1061 596.4457,-140.991 596.4457,-140.991"/>
<polygon fill="#000000" stroke="#000000" points="592.9457,-140.9909 596.4457,-150.991 599.9457,-140.991 592.9457,-140.9909"/>
</g>
<!-- ReviewsRoutingModule -->
<g id="node7" class="node">
<title>ReviewsRoutingModule</title>
<polygon fill="#8dd3c7" stroke="#000000" points="463.3753,-122 460.3753,-126 439.3753,-126 436.3753,-122 310.6247,-122 310.6247,-86 463.3753,-86 463.3753,-122"/>
<text text-anchor="middle" x="387" y="-99.8" font-family="Times,serif" font-size="14.00" fill="#000000">ReviewsRoutingModule</text>
</g>
<!-- ReviewsRoutingModule&#45;&gt;ReviewsModule -->
<g id="edge6" class="edge">
<title>ReviewsRoutingModule&#45;&gt;ReviewsModule</title>
<path fill="none" stroke="#000000" d="M387,-122.027C387,-138.3976 387,-160 387,-160 387,-160 566.0704,-160 566.0704,-160"/>
<polygon fill="#000000" stroke="#000000" points="566.0705,-163.5001 576.0704,-160 566.0704,-156.5001 566.0705,-163.5001"/>
</g>
<!-- ThemeModule -->
<g id="node8" class="node">
<title>ThemeModule</title>
<polygon fill="#8dd3c7" stroke="#000000" points="292.4231,-122 289.4231,-126 268.4231,-126 265.4231,-122 193.5769,-122 193.5769,-86 292.4231,-86 292.4231,-122"/>
<text text-anchor="middle" x="243" y="-99.8" font-family="Times,serif" font-size="14.00" fill="#000000">ThemeModule</text>
</g>
<!-- ThemeModule&#45;&gt;ReviewsModule -->
<g id="edge7" class="edge">
<title>ThemeModule&#45;&gt;ReviewsModule</title>
<path fill="none" stroke="#000000" d="M243,-122.1061C243,-141.3391 243,-169 243,-169 243,-169 566.1893,-169 566.1893,-169"/>
<polygon fill="#000000" stroke="#000000" points="566.1893,-172.5001 576.1893,-169 566.1893,-165.5001 566.1893,-172.5001"/>
</g>
<!-- ReviewsService -->
<g id="node9" class="node">
<title>ReviewsService</title>
<ellipse fill="#fdb462" stroke="#000000" cx="97" cy="-104" rx="73.49" ry="18"/>
<text text-anchor="middle" x="97" y="-99.8" font-family="Times,serif" font-size="14.00" fill="#000000">ReviewsService</text>
</g>
<!-- ReviewsService&#45;&gt;ReviewsModule -->
<g id="edge8" class="edge">
<title>ReviewsService&#45;&gt;ReviewsModule</title>
<path fill="none" stroke="#000000" d="M97,-122.2921C97,-144.2057 97,-178 97,-178 97,-178 565.9599,-178 565.9599,-178"/>
<polygon fill="#000000" stroke="#000000" points="565.96,-181.5001 575.9599,-178 565.9599,-174.5001 565.96,-181.5001"/>
</g>
</g>
</svg>
