<?xml version="1.0" encoding="UTF-8" standalone="no"?>
<!DOCTYPE svg PUBLIC "-//W3C//DTD SVG 1.1//EN"
 "http://www.w3.org/Graphics/SVG/1.1/DTD/svg11.dtd">
<!-- Generated by graphviz version 2.40.1 (20161225.0304)
 -->
<!-- Title: dependencies Pages: 1 -->
<svg width="1479pt" height="284pt"
 viewBox="0.00 0.00 1479.00 284.00" xmlns="http://www.w3.org/2000/svg" xmlns:xlink="http://www.w3.org/1999/xlink">
<g id="graph0" class="graph" transform="scale(1 1) rotate(0) translate(4 280)">
<title>dependencies</title>
<polygon fill="#ffffff" stroke="transparent" points="-4,4 -4,-280 1475,-280 1475,4 -4,4"/>
<text text-anchor="start" x="714.5091" y="-42.4" font-family="sans-serif" font-weight="bold" font-size="14.00" fill="#000000">Legend</text>
<polygon fill="#ffffb3" stroke="transparent" points="501.5,-10 501.5,-30 521.5,-30 521.5,-10 501.5,-10"/>
<text text-anchor="start" x="525.129" y="-15.4" font-family="sans-serif" font-size="14.00" fill="#000000"> &#160;Declarations</text>
<polygon fill="#8dd3c7" stroke="transparent" points="614.5,-10 614.5,-30 634.5,-30 634.5,-10 614.5,-10"/>
<text text-anchor="start" x="638.2251" y="-15.4" font-family="sans-serif" font-size="14.00" fill="#000000"> &#160;Module</text>
<polygon fill="#80b1d3" stroke="transparent" points="700.5,-10 700.5,-30 720.5,-30 720.5,-10 700.5,-10"/>
<text text-anchor="start" x="724.2812" y="-15.4" font-family="sans-serif" font-size="14.00" fill="#000000"> &#160;Bootstrap</text>
<polygon fill="#fdb462" stroke="transparent" points="797.5,-10 797.5,-30 817.5,-30 817.5,-10 797.5,-10"/>
<text text-anchor="start" x="821.1732" y="-15.4" font-family="sans-serif" font-size="14.00" fill="#000000"> &#160;Providers</text>
<polygon fill="#fb8072" stroke="transparent" points="893.5,-10 893.5,-30 913.5,-30 913.5,-10 893.5,-10"/>
<text text-anchor="start" x="917.2258" y="-15.4" font-family="sans-serif" font-size="14.00" fill="#000000"> &#160;Exports</text>
<g id="clust1" class="cluster">
<title>cluster_AppModule</title>
<polygon fill="none" stroke="#000000" stroke-dasharray="1,5" points="8,-70 8,-268 1463,-268 1463,-70 8,-70"/>
</g>
<g id="clust2" class="cluster">
<title>cluster_AppModule_declarations</title>
<polygon fill="none" stroke="#000000" points="1333,-78 1333,-130 1455,-130 1455,-78 1333,-78"/>
</g>
<g id="clust4" class="cluster">
<title>cluster_AppModule_imports</title>
<polygon fill="none" stroke="#000000" points="850,-78 850,-130 1325,-130 1325,-78 850,-78"/>
</g>
<g id="clust6" class="cluster">
<title>cluster_AppModule_bootstrap</title>
<polygon fill="none" stroke="#000000" points="780,-208 780,-260 904,-260 904,-208 780,-208"/>
</g>
<g id="clust7" class="cluster">
<title>cluster_AppModule_providers</title>
<polygon fill="none" stroke="#000000" points="16,-78 16,-130 842,-130 842,-78 16,-78"/>
</g>
<!-- AppComponent -->
<g id="node1" class="node">
<title>AppComponent</title>
<polygon fill="#ffffb3" stroke="#000000" points="1446.9399,-122 1341.0601,-122 1341.0601,-86 1446.9399,-86 1446.9399,-122"/>
<text text-anchor="middle" x="1394" y="-99.8" font-family="Times,serif" font-size="14.00" fill="#000000">AppComponent</text>
</g>
<!-- AppModule -->
<g id="node2" class="node">
<title>AppModule</title>
<polygon fill="#8dd3c7" stroke="#000000" points="883.6571,-187 880.6571,-191 859.6571,-191 856.6571,-187 800.3429,-187 800.3429,-151 883.6571,-151 883.6571,-187"/>
<text text-anchor="middle" x="842" y="-164.8" font-family="Times,serif" font-size="14.00" fill="#000000">AppModule</text>
</g>
<!-- AppComponent&#45;&gt;AppModule -->
<g id="edge1" class="edge">
<title>AppComponent&#45;&gt;AppModule</title>
<path fill="none" stroke="#000000" d="M1394,-122.0109C1394,-144.4852 1394,-180 1394,-180 1394,-180 893.9428,-180 893.9428,-180"/>
<polygon fill="#000000" stroke="#000000" points="893.9428,-176.5001 883.9428,-180 893.9428,-183.5001 893.9428,-176.5001"/>
</g>
<!-- AppComponent  -->
<g id="node7" class="node">
<title>AppComponent </title>
<polygon fill="#80b1d3" stroke="#000000" points="896.439,-252 787.561,-252 787.561,-216 896.439,-216 896.439,-252"/>
<text text-anchor="middle" x="842" y="-229.8" font-family="Times,serif" font-size="14.00" fill="#000000">AppComponent </text>
</g>
<!-- AppModule&#45;&gt;AppComponent  -->
<g id="edge6" class="edge">
<title>AppModule&#45;&gt;AppComponent </title>
<path fill="none" stroke="#000000" stroke-dasharray="1,5" d="M842,-187.1061C842,-187.1061 842,-205.991 842,-205.991"/>
<polygon fill="#000000" stroke="#000000" points="838.5001,-205.9909 842,-215.991 845.5001,-205.991 838.5001,-205.9909"/>
</g>
<!-- AppRoutingModule -->
<g id="node3" class="node">
<title>AppRoutingModule</title>
<polygon fill="#8dd3c7" stroke="#000000" points="1317.2744,-122 1314.2744,-126 1293.2744,-126 1290.2744,-122 1188.7256,-122 1188.7256,-86 1317.2744,-86 1317.2744,-122"/>
<text text-anchor="middle" x="1253" y="-99.8" font-family="Times,serif" font-size="14.00" fill="#000000">AppRoutingModule</text>
</g>
<!-- AppRoutingModule&#45;&gt;AppModule -->
<g id="edge2" class="edge">
<title>AppRoutingModule&#45;&gt;AppModule</title>
<path fill="none" stroke="#000000" d="M1253,-122.1289C1253,-142.5724 1253,-173 1253,-173 1253,-173 893.6707,-173 893.6707,-173"/>
<polygon fill="#000000" stroke="#000000" points="893.6707,-169.5001 883.6707,-173 893.6706,-176.5001 893.6707,-169.5001"/>
</g>
<!-- CoreModule -->
<g id="node4" class="node">
<title>CoreModule</title>
<polygon fill="#8dd3c7" stroke="#000000" points="1170.2619,-122 1167.2619,-126 1146.2619,-126 1143.2619,-122 1083.7381,-122 1083.7381,-86 1170.2619,-86 1170.2619,-122"/>
<text text-anchor="middle" x="1127" y="-99.8" font-family="Times,serif" font-size="14.00" fill="#000000">CoreModule</text>
</g>
<!-- CoreModule&#45;&gt;AppModule -->
<g id="edge3" class="edge">
<title>CoreModule&#45;&gt;AppModule</title>
<path fill="none" stroke="#000000" d="M1127,-122.2667C1127,-140.5552 1127,-166 1127,-166 1127,-166 893.7467,-166 893.7467,-166"/>
<polygon fill="#000000" stroke="#000000" points="893.7467,-162.5001 883.7467,-166 893.7466,-169.5001 893.7467,-162.5001"/>
</g>
<!-- NgxCommon -->
<g id="node5" class="node">
<title>NgxCommon</title>
<polygon fill="#8dd3c7" stroke="#000000" points="1066.2247,-122 1063.2247,-126 1042.2247,-126 1039.2247,-122 973.7753,-122 973.7753,-86 1066.2247,-86 1066.2247,-122"/>
<text text-anchor="middle" x="1020" y="-99.8" font-family="Times,serif" font-size="14.00" fill="#000000">NgxCommon</text>
</g>
<!-- NgxCommon&#45;&gt;AppModule -->
<g id="edge4" class="edge">
<title>NgxCommon&#45;&gt;AppModule</title>
<path fill="none" stroke="#000000" d="M1020,-122.0091C1020,-138.0494 1020,-159 1020,-159 1020,-159 893.7331,-159 893.7331,-159"/>
<polygon fill="#000000" stroke="#000000" points="893.7331,-155.5001 883.7331,-159 893.7331,-162.5001 893.7331,-155.5001"/>
</g>
<!-- ThemeModule -->
<g id="node6" class="node">
<title>ThemeModule</title>
<polygon fill="#8dd3c7" stroke="#000000" points="956.4231,-122 953.4231,-126 932.4231,-126 929.4231,-122 857.5769,-122 857.5769,-86 956.4231,-86 956.4231,-122"/>
<text text-anchor="middle" x="907" y="-99.8" font-family="Times,serif" font-size="14.00" fill="#000000">ThemeModule</text>
</g>
<!-- ThemeModule&#45;&gt;AppModule -->
<g id="edge5" class="edge">
<title>ThemeModule&#45;&gt;AppModule</title>
<path fill="none" stroke="#000000" d="M870.8086,-122.1061C870.8086,-122.1061 870.8086,-140.991 870.8086,-140.991"/>
<polygon fill="#000000" stroke="#000000" points="867.3086,-140.9909 870.8086,-150.991 874.3086,-140.991 867.3086,-140.9909"/>
</g>
<!-- AppService -->
<g id="node8" class="node">
<title>AppService</title>
<ellipse fill="#fdb462" stroke="#000000" cx="777" cy="-104" rx="56.7406" ry="18"/>
<text text-anchor="middle" x="777" y="-99.8" font-family="Times,serif" font-size="14.00" fill="#000000">AppService</text>
</g>
<!-- AppService&#45;&gt;AppModule -->
<g id="edge7" class="edge">
<title>AppService&#45;&gt;AppModule</title>
<path fill="none" stroke="#000000" d="M816.896,-116.8419C816.896,-116.8419 816.896,-140.5231 816.896,-140.5231"/>
<polygon fill="#000000" stroke="#000000" points="813.3961,-140.523 816.896,-150.5231 820.3961,-140.5231 813.3961,-140.523"/>
</g>
<!-- BaseurlInterceptor -->
<g id="node9" class="node">
<title>BaseurlInterceptor</title>
<ellipse fill="#fdb462" stroke="#000000" cx="619" cy="-104" rx="82.7801" ry="18"/>
<text text-anchor="middle" x="619" y="-99.8" font-family="Times,serif" font-size="14.00" fill="#000000">BaseurlInterceptor</text>
</g>
<!-- BaseurlInterceptor&#45;&gt;AppModule -->
<g id="edge8" class="edge">
<title>BaseurlInterceptor&#45;&gt;AppModule</title>
<path fill="none" stroke="#000000" d="M619,-122.0091C619,-138.0494 619,-159 619,-159 619,-159 790.317,-159 790.317,-159"/>
<polygon fill="#000000" stroke="#000000" points="790.317,-162.5001 800.317,-159 790.317,-155.5001 790.317,-162.5001"/>
</g>
<!-- NotificationInterceptor -->
<g id="node10" class="node">
<title>NotificationInterceptor</title>
<ellipse fill="#fdb462" stroke="#000000" cx="418" cy="-104" rx="100.1143" ry="18"/>
<text text-anchor="middle" x="418" y="-99.8" font-family="Times,serif" font-size="14.00" fill="#000000">NotificationInterceptor</text>
</g>
<!-- NotificationInterceptor&#45;&gt;AppModule -->
<g id="edge9" class="edge">
<title>NotificationInterceptor&#45;&gt;AppModule</title>
<path fill="none" stroke="#000000" d="M418,-122.2667C418,-140.5552 418,-166 418,-166 418,-166 790.1849,-166 790.1849,-166"/>
<polygon fill="#000000" stroke="#000000" points="790.1849,-169.5001 800.1849,-166 790.1848,-162.5001 790.1849,-169.5001"/>
</g>
<!-- SPService -->
<g id="node11" class="node">
<title>SPService</title>
<ellipse fill="#fdb462" stroke="#000000" cx="249" cy="-104" rx="50.958" ry="18"/>
<text text-anchor="middle" x="249" y="-99.8" font-family="Times,serif" font-size="14.00" fill="#000000">SPService</text>
</g>
<!-- SPService&#45;&gt;AppModule -->
<g id="edge10" class="edge">
<title>SPService&#45;&gt;AppModule</title>
<path fill="none" stroke="#000000" d="M249,-122.1289C249,-142.5724 249,-173 249,-173 249,-173 790.3014,-173 790.3014,-173"/>
<polygon fill="#000000" stroke="#000000" points="790.3014,-176.5001 800.3014,-173 790.3014,-169.5001 790.3014,-176.5001"/>
</g>
<!-- TokenInterceptor -->
<g id="node12" class="node">
<title>TokenInterceptor</title>
<ellipse fill="#fdb462" stroke="#000000" cx="102" cy="-104" rx="78.1308" ry="18"/>
<text text-anchor="middle" x="102" y="-99.8" font-family="Times,serif" font-size="14.00" fill="#000000">TokenInterceptor</text>
</g>
<!-- TokenInterceptor&#45;&gt;AppModule -->
<g id="edge11" class="edge">
<title>TokenInterceptor&#45;&gt;AppModule</title>
<path fill="none" stroke="#000000" d="M102,-122.0109C102,-144.4852 102,-180 102,-180 102,-180 790.0941,-180 790.0941,-180"/>
<polygon fill="#000000" stroke="#000000" points="790.0942,-183.5001 800.0941,-180 790.0941,-176.5001 790.0942,-183.5001"/>
</g>
</g>
</svg>
