<?xml version="1.0" encoding="UTF-8" standalone="no"?>
<!DOCTYPE svg PUBLIC "-//W3C//DTD SVG 1.1//EN"
 "http://www.w3.org/Graphics/SVG/1.1/DTD/svg11.dtd">
<!-- Generated by graphviz version 2.40.1 (20161225.0304)
 -->
<!-- Title: dependencies Pages: 1 -->
<svg width="1241pt" height="211pt"
 viewBox="0.00 0.00 1241.00 211.00" xmlns="http://www.w3.org/2000/svg" xmlns:xlink="http://www.w3.org/1999/xlink">
<g id="graph0" class="graph" transform="scale(1 1) rotate(0) translate(4 207)">
<title>dependencies</title>
<polygon fill="#ffffff" stroke="transparent" points="-4,4 -4,-207 1237,-207 1237,4 -4,4"/>
<text text-anchor="start" x="595.5091" y="-42.4" font-family="sans-serif" font-weight="bold" font-size="14.00" fill="#000000">Legend</text>
<polygon fill="#ffffb3" stroke="transparent" points="382.5,-10 382.5,-30 402.5,-30 402.5,-10 382.5,-10"/>
<text text-anchor="start" x="406.129" y="-15.4" font-family="sans-serif" font-size="14.00" fill="#000000"> &#160;Declarations</text>
<polygon fill="#8dd3c7" stroke="transparent" points="495.5,-10 495.5,-30 515.5,-30 515.5,-10 495.5,-10"/>
<text text-anchor="start" x="519.2251" y="-15.4" font-family="sans-serif" font-size="14.00" fill="#000000"> &#160;Module</text>
<polygon fill="#80b1d3" stroke="transparent" points="581.5,-10 581.5,-30 601.5,-30 601.5,-10 581.5,-10"/>
<text text-anchor="start" x="605.2812" y="-15.4" font-family="sans-serif" font-size="14.00" fill="#000000"> &#160;Bootstrap</text>
<polygon fill="#fdb462" stroke="transparent" points="678.5,-10 678.5,-30 698.5,-30 698.5,-10 678.5,-10"/>
<text text-anchor="start" x="702.1732" y="-15.4" font-family="sans-serif" font-size="14.00" fill="#000000"> &#160;Providers</text>
<polygon fill="#fb8072" stroke="transparent" points="774.5,-10 774.5,-30 794.5,-30 794.5,-10 774.5,-10"/>
<text text-anchor="start" x="798.2258" y="-15.4" font-family="sans-serif" font-size="14.00" fill="#000000"> &#160;Exports</text>
<g id="clust1" class="cluster">
<title>cluster_ReviewsModule</title>
<polygon fill="none" stroke="#000000" stroke-dasharray="1,5" points="8,-70 8,-195 1225,-195 1225,-70 8,-70"/>
</g>
<g id="clust2" class="cluster">
<title>cluster_ReviewsModule_declarations</title>
<polygon fill="none" stroke="#000000" points="479,-78 479,-130 1217,-130 1217,-78 479,-78"/>
</g>
<g id="clust8" class="cluster">
<title>cluster_ReviewsModule_imports</title>
<polygon fill="none" stroke="#000000" points="186,-78 186,-130 471,-130 471,-78 186,-78"/>
</g>
<g id="clust11" class="cluster">
<title>cluster_ReviewsModule_providers</title>
<polygon fill="none" stroke="#000000" points="16,-78 16,-130 178,-130 178,-78 16,-78"/>
</g>
<!-- CrudAddComponent -->
<g id="node1" class="node">
<title>CrudAddComponent</title>
<polygon fill="#ffffb3" stroke="#000000" points="1208.9369,-122 1075.0631,-122 1075.0631,-86 1208.9369,-86 1208.9369,-122"/>
<text text-anchor="middle" x="1142" y="-99.8" font-family="Times,serif" font-size="14.00" fill="#000000">CrudAddComponent</text>
</g>
<!-- ReviewsModule -->
<g id="node6" class="node">
<title>ReviewsModule</title>
<polygon fill="#8dd3c7" stroke="#000000" points="681.7577,-187 678.7577,-191 657.7577,-191 654.7577,-187 574.2423,-187 574.2423,-151 681.7577,-151 681.7577,-187"/>
<text text-anchor="middle" x="628" y="-164.8" font-family="Times,serif" font-size="14.00" fill="#000000">ReviewsModule</text>
</g>
<!-- CrudAddComponent&#45;&gt;ReviewsModule -->
<g id="edge1" class="edge">
<title>CrudAddComponent&#45;&gt;ReviewsModule</title>
<path fill="none" stroke="#000000" d="M1142,-122.2921C1142,-144.2057 1142,-178 1142,-178 1142,-178 692.0355,-178 692.0355,-178"/>
<polygon fill="#000000" stroke="#000000" points="692.0356,-174.5001 682.0355,-178 692.0355,-181.5001 692.0356,-174.5001"/>
</g>
<!-- CrudComponent -->
<g id="node2" class="node">
<title>CrudComponent</title>
<polygon fill="#ffffb3" stroke="#000000" points="1057.8301,-122 948.1699,-122 948.1699,-86 1057.8301,-86 1057.8301,-122"/>
<text text-anchor="middle" x="1003" y="-99.8" font-family="Times,serif" font-size="14.00" fill="#000000">CrudComponent</text>
</g>
<!-- CrudComponent&#45;&gt;ReviewsModule -->
<g id="edge2" class="edge">
<title>CrudComponent&#45;&gt;ReviewsModule</title>
<path fill="none" stroke="#000000" d="M1003,-122.1061C1003,-141.3391 1003,-169 1003,-169 1003,-169 692.1277,-169 692.1277,-169"/>
<polygon fill="#000000" stroke="#000000" points="692.1278,-165.5001 682.1277,-169 692.1277,-172.5001 692.1278,-165.5001"/>
</g>
<!-- CrudDetailComponent -->
<g id="node3" class="node">
<title>CrudDetailComponent</title>
<polygon fill="#ffffb3" stroke="#000000" points="930.5379,-122 787.4621,-122 787.4621,-86 930.5379,-86 930.5379,-122"/>
<text text-anchor="middle" x="859" y="-99.8" font-family="Times,serif" font-size="14.00" fill="#000000">CrudDetailComponent</text>
</g>
<!-- CrudDetailComponent&#45;&gt;ReviewsModule -->
<g id="edge3" class="edge">
<title>CrudDetailComponent&#45;&gt;ReviewsModule</title>
<path fill="none" stroke="#000000" d="M859,-122.027C859,-138.3976 859,-160 859,-160 859,-160 691.8677,-160 691.8677,-160"/>
<polygon fill="#000000" stroke="#000000" points="691.8677,-156.5001 681.8677,-160 691.8677,-163.5001 691.8677,-156.5001"/>
</g>
<!-- CrudEditComponent -->
<g id="node4" class="node">
<title>CrudEditComponent</title>
<polygon fill="#ffffb3" stroke="#000000" points="769.1638,-122 636.8362,-122 636.8362,-86 769.1638,-86 769.1638,-122"/>
<text text-anchor="middle" x="703" y="-99.8" font-family="Times,serif" font-size="14.00" fill="#000000">CrudEditComponent</text>
</g>
<!-- CrudEditComponent&#45;&gt;ReviewsModule -->
<g id="edge4" class="edge">
<title>CrudEditComponent&#45;&gt;ReviewsModule</title>
<path fill="none" stroke="#000000" d="M659.2735,-122.1061C659.2735,-122.1061 659.2735,-140.991 659.2735,-140.991"/>
<polygon fill="#000000" stroke="#000000" points="655.7736,-140.9909 659.2735,-150.991 662.7736,-140.991 655.7736,-140.9909"/>
</g>
<!-- CrudListComponent -->
<g id="node5" class="node">
<title>CrudListComponent</title>
<polygon fill="#ffffb3" stroke="#000000" points="618.608,-122 487.392,-122 487.392,-86 618.608,-86 618.608,-122"/>
<text text-anchor="middle" x="553" y="-99.8" font-family="Times,serif" font-size="14.00" fill="#000000">CrudListComponent</text>
</g>
<!-- CrudListComponent&#45;&gt;ReviewsModule -->
<g id="edge5" class="edge">
<title>CrudListComponent&#45;&gt;ReviewsModule</title>
<path fill="none" stroke="#000000" d="M596.3376,-122.1061C596.3376,-122.1061 596.3376,-140.991 596.3376,-140.991"/>
<polygon fill="#000000" stroke="#000000" points="592.8377,-140.9909 596.3376,-150.991 599.8377,-140.991 592.8377,-140.9909"/>
</g>
<!-- ReviewsRoutingModule -->
<g id="node7" class="node">
<title>ReviewsRoutingModule</title>
<polygon fill="#8dd3c7" stroke="#000000" points="463.3753,-122 460.3753,-126 439.3753,-126 436.3753,-122 310.6247,-122 310.6247,-86 463.3753,-86 463.3753,-122"/>
<text text-anchor="middle" x="387" y="-99.8" font-family="Times,serif" font-size="14.00" fill="#000000">ReviewsRoutingModule</text>
</g>
<!-- ReviewsRoutingModule&#45;&gt;ReviewsModule -->
<g id="edge6" class="edge">
<title>ReviewsRoutingModule&#45;&gt;ReviewsModule</title>
<path fill="none" stroke="#000000" d="M387,-122.027C387,-138.3976 387,-160 387,-160 387,-160 564.2149,-160 564.2149,-160"/>
<polygon fill="#000000" stroke="#000000" points="564.2149,-163.5001 574.2149,-160 564.2148,-156.5001 564.2149,-163.5001"/>
</g>
<!-- ThemeModule -->
<g id="node8" class="node">
<title>ThemeModule</title>
<polygon fill="#8dd3c7" stroke="#000000" points="292.4231,-122 289.4231,-126 268.4231,-126 265.4231,-122 193.5769,-122 193.5769,-86 292.4231,-86 292.4231,-122"/>
<text text-anchor="middle" x="243" y="-99.8" font-family="Times,serif" font-size="14.00" fill="#000000">ThemeModule</text>
</g>
<!-- ThemeModule&#45;&gt;ReviewsModule -->
<g id="edge7" class="edge">
<title>ThemeModule&#45;&gt;ReviewsModule</title>
<path fill="none" stroke="#000000" d="M243,-122.1061C243,-141.3391 243,-169 243,-169 243,-169 564.062,-169 564.062,-169"/>
<polygon fill="#000000" stroke="#000000" points="564.0621,-172.5001 574.062,-169 564.062,-165.5001 564.0621,-172.5001"/>
</g>
<!-- ReviewsService -->
<g id="node9" class="node">
<title>ReviewsService</title>
<ellipse fill="#fdb462" stroke="#000000" cx="97" cy="-104" rx="73.49" ry="18"/>
<text text-anchor="middle" x="97" y="-99.8" font-family="Times,serif" font-size="14.00" fill="#000000">ReviewsService</text>
</g>
<!-- ReviewsService&#45;&gt;ReviewsModule -->
<g id="edge8" class="edge">
<title>ReviewsService&#45;&gt;ReviewsModule</title>
<path fill="none" stroke="#000000" d="M97,-122.2921C97,-144.2057 97,-178 97,-178 97,-178 564.1627,-178 564.1627,-178"/>
<polygon fill="#000000" stroke="#000000" points="564.1627,-181.5001 574.1627,-178 564.1627,-174.5001 564.1627,-181.5001"/>
</g>
</g>
</svg>
