<?xml version="1.0" encoding="UTF-8" standalone="no"?>
<!DOCTYPE svg PUBLIC "-//W3C//DTD SVG 1.1//EN"
 "http://www.w3.org/Graphics/SVG/1.1/DTD/svg11.dtd">
<!-- Generated by graphviz version 2.40.1 (20161225.0304)
 -->
<!-- Title: dependencies Pages: 1 -->
<svg width="1298pt" height="211pt"
 viewBox="0.00 0.00 1298.00 211.00" xmlns="http://www.w3.org/2000/svg" xmlns:xlink="http://www.w3.org/1999/xlink">
<g id="graph0" class="graph" transform="scale(1 1) rotate(0) translate(4 207)">
<title>dependencies</title>
<polygon fill="#ffffff" stroke="transparent" points="-4,4 -4,-207 1294,-207 1294,4 -4,4"/>
<text text-anchor="start" x="624.0091" y="-42.4" font-family="sans-serif" font-weight="bold" font-size="14.00" fill="#000000">Legend</text>
<polygon fill="#ffffb3" stroke="transparent" points="411,-10 411,-30 431,-30 431,-10 411,-10"/>
<text text-anchor="start" x="434.629" y="-15.4" font-family="sans-serif" font-size="14.00" fill="#000000"> &#160;Declarations</text>
<polygon fill="#8dd3c7" stroke="transparent" points="524,-10 524,-30 544,-30 544,-10 524,-10"/>
<text text-anchor="start" x="547.7251" y="-15.4" font-family="sans-serif" font-size="14.00" fill="#000000"> &#160;Module</text>
<polygon fill="#80b1d3" stroke="transparent" points="610,-10 610,-30 630,-30 630,-10 610,-10"/>
<text text-anchor="start" x="633.7812" y="-15.4" font-family="sans-serif" font-size="14.00" fill="#000000"> &#160;Bootstrap</text>
<polygon fill="#fdb462" stroke="transparent" points="707,-10 707,-30 727,-30 727,-10 707,-10"/>
<text text-anchor="start" x="730.6732" y="-15.4" font-family="sans-serif" font-size="14.00" fill="#000000"> &#160;Providers</text>
<polygon fill="#fb8072" stroke="transparent" points="803,-10 803,-30 823,-30 823,-10 803,-10"/>
<text text-anchor="start" x="826.7258" y="-15.4" font-family="sans-serif" font-size="14.00" fill="#000000"> &#160;Exports</text>
<g id="clust1" class="cluster">
<title>cluster_CrudModule</title>
<polygon fill="none" stroke="#000000" stroke-dasharray="1,5" points="8,-70 8,-195 1282,-195 1282,-70 8,-70"/>
</g>
<g id="clust2" class="cluster">
<title>cluster_CrudModule_declarations</title>
<polygon fill="none" stroke="#000000" points="536,-78 536,-130 1274,-130 1274,-78 536,-78"/>
</g>
<g id="clust8" class="cluster">
<title>cluster_CrudModule_imports</title>
<polygon fill="none" stroke="#000000" points="158,-78 158,-130 528,-130 528,-78 158,-78"/>
</g>
<g id="clust11" class="cluster">
<title>cluster_CrudModule_providers</title>
<polygon fill="none" stroke="#000000" points="16,-78 16,-130 150,-130 150,-78 16,-78"/>
</g>
<!-- CrudAddComponent -->
<g id="node1" class="node">
<title>CrudAddComponent</title>
<polygon fill="#ffffb3" stroke="#000000" points="1265.9369,-122 1132.0631,-122 1132.0631,-86 1265.9369,-86 1265.9369,-122"/>
<text text-anchor="middle" x="1199" y="-99.8" font-family="Times,serif" font-size="14.00" fill="#000000">CrudAddComponent</text>
</g>
<!-- CrudModule -->
<g id="node6" class="node">
<title>CrudModule</title>
<polygon fill="#8dd3c7" stroke="#000000" points="653.5482,-187 650.5482,-191 629.5482,-191 626.5482,-187 566.4518,-187 566.4518,-151 653.5482,-151 653.5482,-187"/>
<text text-anchor="middle" x="610" y="-164.8" font-family="Times,serif" font-size="14.00" fill="#000000">CrudModule</text>
</g>
<!-- CrudAddComponent&#45;&gt;CrudModule -->
<g id="edge1" class="edge">
<title>CrudAddComponent&#45;&gt;CrudModule</title>
<path fill="none" stroke="#000000" d="M1199,-122.0109C1199,-144.4852 1199,-180 1199,-180 1199,-180 663.7895,-180 663.7895,-180"/>
<polygon fill="#000000" stroke="#000000" points="663.7896,-176.5001 653.7895,-180 663.7895,-183.5001 663.7896,-176.5001"/>
</g>
<!-- CrudComponent -->
<g id="node2" class="node">
<title>CrudComponent</title>
<polygon fill="#ffffb3" stroke="#000000" points="1114.8301,-122 1005.1699,-122 1005.1699,-86 1114.8301,-86 1114.8301,-122"/>
<text text-anchor="middle" x="1060" y="-99.8" font-family="Times,serif" font-size="14.00" fill="#000000">CrudComponent</text>
</g>
<!-- CrudComponent&#45;&gt;CrudModule -->
<g id="edge2" class="edge">
<title>CrudComponent&#45;&gt;CrudModule</title>
<path fill="none" stroke="#000000" d="M1060,-122.1289C1060,-142.5724 1060,-173 1060,-173 1060,-173 663.5568,-173 663.5568,-173"/>
<polygon fill="#000000" stroke="#000000" points="663.5568,-169.5001 653.5568,-173 663.5567,-176.5001 663.5568,-169.5001"/>
</g>
<!-- CrudDetailComponent -->
<g id="node3" class="node">
<title>CrudDetailComponent</title>
<polygon fill="#ffffb3" stroke="#000000" points="987.5379,-122 844.4621,-122 844.4621,-86 987.5379,-86 987.5379,-122"/>
<text text-anchor="middle" x="916" y="-99.8" font-family="Times,serif" font-size="14.00" fill="#000000">CrudDetailComponent</text>
</g>
<!-- CrudDetailComponent&#45;&gt;CrudModule -->
<g id="edge3" class="edge">
<title>CrudDetailComponent&#45;&gt;CrudModule</title>
<path fill="none" stroke="#000000" d="M916,-122.2667C916,-140.5552 916,-166 916,-166 916,-166 663.8423,-166 663.8423,-166"/>
<polygon fill="#000000" stroke="#000000" points="663.8424,-162.5001 653.8423,-166 663.8423,-169.5001 663.8424,-162.5001"/>
</g>
<!-- CrudEditComponent -->
<g id="node4" class="node">
<title>CrudEditComponent</title>
<polygon fill="#ffffb3" stroke="#000000" points="826.1638,-122 693.8362,-122 693.8362,-86 826.1638,-86 826.1638,-122"/>
<text text-anchor="middle" x="760" y="-99.8" font-family="Times,serif" font-size="14.00" fill="#000000">CrudEditComponent</text>
</g>
<!-- CrudEditComponent&#45;&gt;CrudModule -->
<g id="edge4" class="edge">
<title>CrudEditComponent&#45;&gt;CrudModule</title>
<path fill="none" stroke="#000000" d="M760,-122.0091C760,-138.0494 760,-159 760,-159 760,-159 663.7894,-159 663.7894,-159"/>
<polygon fill="#000000" stroke="#000000" points="663.7895,-155.5001 653.7894,-159 663.7894,-162.5001 663.7895,-155.5001"/>
</g>
<!-- CrudListComponent -->
<g id="node5" class="node">
<title>CrudListComponent</title>
<polygon fill="#ffffb3" stroke="#000000" points="675.608,-122 544.392,-122 544.392,-86 675.608,-86 675.608,-122"/>
<text text-anchor="middle" x="610" y="-99.8" font-family="Times,serif" font-size="14.00" fill="#000000">CrudListComponent</text>
</g>
<!-- CrudListComponent&#45;&gt;CrudModule -->
<g id="edge5" class="edge">
<title>CrudListComponent&#45;&gt;CrudModule</title>
<path fill="none" stroke="#000000" d="M610,-122.1061C610,-122.1061 610,-140.991 610,-140.991"/>
<polygon fill="#000000" stroke="#000000" points="606.5001,-140.9909 610,-150.991 613.5001,-140.991 606.5001,-140.9909"/>
</g>
<!-- CoreModule -->
<g id="node7" class="node">
<title>CoreModule</title>
<polygon fill="#8dd3c7" stroke="#000000" points="520.2619,-122 517.2619,-126 496.2619,-126 493.2619,-122 433.7381,-122 433.7381,-86 520.2619,-86 520.2619,-122"/>
<text text-anchor="middle" x="477" y="-99.8" font-family="Times,serif" font-size="14.00" fill="#000000">CoreModule</text>
</g>
<!-- CoreModule&#45;&gt;CrudModule -->
<g id="edge6" class="edge">
<title>CoreModule&#45;&gt;CrudModule</title>
<path fill="none" stroke="#000000" d="M477,-122.0091C477,-138.0494 477,-159 477,-159 477,-159 556.4508,-159 556.4508,-159"/>
<polygon fill="#000000" stroke="#000000" points="556.4509,-162.5001 566.4508,-159 556.4508,-155.5001 556.4509,-162.5001"/>
</g>
<!-- CrudRoutingModule -->
<g id="node8" class="node">
<title>CrudRoutingModule</title>
<polygon fill="#8dd3c7" stroke="#000000" points="415.1652,-122 412.1652,-126 391.1652,-126 388.1652,-122 282.8348,-122 282.8348,-86 415.1652,-86 415.1652,-122"/>
<text text-anchor="middle" x="349" y="-99.8" font-family="Times,serif" font-size="14.00" fill="#000000">CrudRoutingModule</text>
</g>
<!-- CrudRoutingModule&#45;&gt;CrudModule -->
<g id="edge7" class="edge">
<title>CrudRoutingModule&#45;&gt;CrudModule</title>
<path fill="none" stroke="#000000" d="M349,-122.2667C349,-140.5552 349,-166 349,-166 349,-166 556.3145,-166 556.3145,-166"/>
<polygon fill="#000000" stroke="#000000" points="556.3145,-169.5001 566.3145,-166 556.3144,-162.5001 556.3145,-169.5001"/>
</g>
<!-- ThemeModule -->
<g id="node9" class="node">
<title>ThemeModule</title>
<polygon fill="#8dd3c7" stroke="#000000" points="264.4231,-122 261.4231,-126 240.4231,-126 237.4231,-122 165.5769,-122 165.5769,-86 264.4231,-86 264.4231,-122"/>
<text text-anchor="middle" x="215" y="-99.8" font-family="Times,serif" font-size="14.00" fill="#000000">ThemeModule</text>
</g>
<!-- ThemeModule&#45;&gt;CrudModule -->
<g id="edge8" class="edge">
<title>ThemeModule&#45;&gt;CrudModule</title>
<path fill="none" stroke="#000000" d="M215,-122.1289C215,-142.5724 215,-173 215,-173 215,-173 556.2189,-173 556.2189,-173"/>
<polygon fill="#000000" stroke="#000000" points="556.2189,-176.5001 566.2189,-173 556.2188,-169.5001 556.2189,-176.5001"/>
</g>
<!-- CrudService -->
<g id="node10" class="node">
<title>CrudService</title>
<ellipse fill="#fdb462" stroke="#000000" cx="83" cy="-104" rx="59.1083" ry="18"/>
<text text-anchor="middle" x="83" y="-99.8" font-family="Times,serif" font-size="14.00" fill="#000000">CrudService</text>
</g>
<!-- CrudService&#45;&gt;CrudModule -->
<g id="edge9" class="edge">
<title>CrudService&#45;&gt;CrudModule</title>
<path fill="none" stroke="#000000" d="M83,-122.0109C83,-144.4852 83,-180 83,-180 83,-180 556.425,-180 556.425,-180"/>
<polygon fill="#000000" stroke="#000000" points="556.4251,-183.5001 566.425,-180 556.425,-176.5001 556.4251,-183.5001"/>
</g>
</g>
</svg>
